<?xml version="1.0" encoding="utf-8"?>
<!-- Generator: Adobe Illustrator 19.0.0, SVG Export Plug-In . SVG Version: 6.00 Build 0)  -->
<svg version="1.1" id="Layer_1" xmlns="http://www.w3.org/2000/svg" xmlns:xlink="http://www.w3.org/1999/xlink" x="0px" y="0px"
	 viewBox="0 0 96 96" style="enable-background:new 0 0 96 96;" xml:space="preserve">
<style type="text/css">
	.st0{fill:#C4C5C1;}
</style>
<g id="XMLID_1_">
	<path id="XMLID_7_" class="st0" d="M66.6,43.4c-3.4,0-6.4,1.9-8,4.7V48C53.7,47.9,48,46.4,44,43.3c-3.5-2.7-7-7.5-8.8-11.3
		c2.1-1.7,3.5-4.3,3.5-7.2c0-5.1-4.1-9.3-9.3-9.3s-9.3,4.2-9.3,9.3c0,3.4,1.9,6.4,4.6,8v30.4c-2.7,1.6-4.6,4.6-4.6,8
		c0,5.1,4.1,9.3,9.3,9.3s9.3-4.1,9.3-9.3c0-3.4-1.9-6.4-4.6-8V46.5c3.1,3.2,6.7,5.9,10.7,7.8s9.4,2.9,13.8,3v-0.1
		c1.7,2.8,4.6,4.7,8,4.7c5.1,0,9.3-4.1,9.3-9.3S71.7,43.4,66.6,43.4z M35,71.2c0,3.1-2.6,5.6-5.6,5.6s-5.6-2.6-5.6-5.6
		s2.6-5.6,5.6-5.6S35,68.2,35,71.2z M29.4,30.4c-3.1,0-5.6-2.6-5.6-5.6s2.6-5.6,5.6-5.6s5.6,2.6,5.6,5.6S32.5,30.4,29.4,30.4z
		 M66.6,58.2c-3.1,0-5.6-2.6-5.6-5.6c0-3,2.6-5.6,5.6-5.6c3,0,5.6,2.6,5.6,5.6C72.1,55.7,69.6,58.2,66.6,58.2z"/>
</g>
</svg>
