<svg id="Calque_1" data-name="Calque 1" xmlns="http://www.w3.org/2000/svg" viewBox="0 0 1932.94 512"><defs><style>.cls-1,.cls-2{fill:#1b171b;}.cls-2{fill-rule:evenodd;}.cls-3{fill:#4e9bcd;}</style></defs><title>SonarQube</title><g id="SonarQube_Black" data-name="SonarQube Black"><path class="cls-1" d="M93.66,348.49c9.93,6.06,30.54,13.16,46.48,13.16,16.35,0,23.08-5.7,23.08-14.55s-5.3-13.15-25.55-19.89C101.8,315.13,88,295.6,88.32,275c0-32.33,27.71-56.8,70.64-56.8,20.25,0,38.34,4.58,49,9.92l-9.57,37.27c-7.81-4.26-22.72-9.92-37.63-9.92-13.15,0-20.61,5.3-20.61,14.19,0,8.17,6.78,12.44,28.06,19.89,33,11.36,46.88,28,47.2,53.61,0,32.29-25.55,56.09-75.26,56.09-22.72,0-42.93-5-56.08-12.08Z"/><path class="cls-1" d="M405.38,307c0,63.54-45.08,92.68-91.6,92.68C263,399.64,224,366.27,224,310.15s36.91-91.92,92.68-91.92C369.9,218.23,405.38,254.78,405.38,307ZM279.7,308.75c0,29.82,12.43,52.18,35.51,52.18,21,0,34.44-21,34.44-52.18,0-25.91-9.92-52.21-34.44-52.21C289.3,256.54,279.7,283.16,279.7,308.75Z"/><path class="cls-1" d="M424.63,277.5c0-21.64-.72-40.1-1.43-55.36h46.87l2.47,23.75h1.08c7.1-11,24.83-27.66,53.57-27.66,35.52,0,62.15,23.4,62.15,74.54v103h-54V299.51c0-22.37-7.81-37.63-27.34-37.63-14.91,0-23.76,10.28-27.3,20.25-1.44,3.19-2.16,8.49-2.16,13.47V395.73H424.63Z"/><path class="cls-1" d="M717.17,395.73,714,378.31h-1c-11.36,13.87-29.14,21.33-49.71,21.33-35.16,0-56.09-25.59-56.09-53.26,0-45.08,40.46-66.77,101.89-66.41V277.5c0-9.25-5-22.36-31.61-22.36-17.74,0-36.55,6-47.91,13.11l-10-34.75c12.08-6.78,35.88-15.27,67.45-15.27,57.87,0,76.33,34.08,76.33,74.9v60.35c0,16.66.72,32.64,2.51,42.25Zm-6.38-82c-28.38-.36-50.42,6.41-50.42,27.34,0,13.87,9.25,20.61,21.32,20.61a29.48,29.48,0,0,0,28-19.89,38.59,38.59,0,0,0,1.07-9.25Z"/><path class="cls-1" d="M791.79,279.26c0-25.55-.72-42.22-1.43-57.12h46.51l1.8,31.92h1.39c8.89-25.19,30.18-35.83,46.88-35.83a58,58,0,0,1,11.36.68v50.78a76.44,76.44,0,0,0-14.55-1.44c-19.89,0-33.36,10.69-37,27.35a66.32,66.32,0,0,0-1,12.08v88.05h-54Z"/><path class="cls-1" d="M1254.46,348.85c0,17.74.36,33.37,1.43,46.88h-27.7l-1.79-28.06h-.68c-8.17,13.83-26.31,32-56.8,32-27,0-59.32-14.91-59.32-75.26V223.89h31.25V319c0,32.64,9.93,54.69,38.35,54.69,20.93,0,35.48-14.59,41.18-28.42a46.33,46.33,0,0,0,2.83-16V223.89h31.25Z"/><path class="cls-1" d="M1290.73,395.73c.72-11.72,1.4-29.14,1.4-44.41V143.65H1323V251.59h.72c11-19.17,30.89-31.61,58.59-31.61,42.57,0,72.75,35.52,72.39,87.7,0,61.42-38.7,92-77,92-24.87,0-44.73-9.61-57.52-32.33h-1.08l-1.39,28.42ZM1323,326.85a58.43,58.43,0,0,0,1.43,11.36c6,21.65,24.12,36.55,46.84,36.55,32.69,0,52.18-26.62,52.18-66,0-34.44-17.74-63.89-51.1-63.89-21.29,0-41.18,14.55-47.56,38.3-.71,3.59-1.79,7.82-1.79,12.8Z"/><path class="cls-1" d="M1497.37,315.49c.68,42.25,27.67,59.63,58.92,59.63,22.36,0,35.87-3.9,47.55-8.85l5.34,22.36c-11,4.95-29.81,10.65-57.16,10.65-52.89,0-84.5-34.8-84.5-86.62S1498.05,220,1548.11,220c56.09,0,71,49.35,71,81a117.86,117.86,0,0,1-1,14.55Zm91.56-22.36c.36-19.89-8.13-50.79-43.29-50.79-31.61,0-45.44,29.14-48,50.79Z"/><path class="cls-2" d="M1072.51,254.83a92.78,92.78,0,1,0-39.74,137.25l35.91,58.3L1097.17,431l-35.89-58.31a92.79,92.79,0,0,0,11.23-117.89m-40.22,105.91a65,65,0,1,1,17.22-90.29,65.05,65.05,0,0,1-17.22,90.29"/><path class="cls-3" d="M1832.64,396.45h-22c0-177.18-146.21-321.34-325.91-321.34v-22C1676.56,53.11,1832.64,207.13,1832.64,396.45Z"/><path class="cls-3" d="M1847.86,278.3c-26.43-111.17-116.49-204-229.42-236.38l5-17.63c119.2,34.22,214.28,132.25,242.21,249.77Z"/><path class="cls-3" d="M1864.78,174c-27.22-59.35-73.59-111.11-130.57-145.73l7.62-12.54c59.46,36.13,107.86,90.16,136.29,152.15Z"/></g></svg>