<svg xmlns="http://www.w3.org/2000/svg" xmlns:xlink="http://www.w3.org/1999/xlink" viewBox="0 0 1200 1200"><defs><style>.cls-1{fill:#858585;}.cls-2,.cls-3,.cls-5,.cls-6{fill:none;stroke-linejoin:round;stroke-width:40px;}.cls-2{stroke:#89df00;}.cls-3{stroke:url(#New_Gradient_Swatch);}.cls-4{fill:url(#New_Gradient_Swatch-2);}.cls-5{stroke:#c4c5c1;}.cls-5,.cls-6{stroke-linecap:round;}.cls-6{stroke:url(#New_Gradient_Swatch-3);}</style><linearGradient id="New_Gradient_Swatch" x1="250.44" y1="600" x2="949.56" y2="600" gradientUnits="userSpaceOnUse"><stop offset="0" stop-color="#24ae1d"/><stop offset="1" stop-color="#89df00"/></linearGradient><linearGradient id="New_Gradient_Swatch-2" x1="484.29" y1="353.49" x2="715.74" y2="353.49" xlink:href="#New_Gradient_Swatch"/><linearGradient id="New_Gradient_Swatch-3" x1="372.37" y1="864.8" x2="849.56" y2="864.8" xlink:href="#New_Gradient_Swatch"/></defs><g id="Layer_3" data-name="Layer 3"><path class="cls-1" d="M849.56,104.09H350.44a20,20,0,0,0-20,20v276.4a20,20,0,0,0,20,20h93.85V237.78a40,40,0,0,1,40-40H715.72a40,40,0,0,1,40,40V420.49h93.84a20,20,0,0,0,20-20V124.09A20,20,0,0,0,849.56,104.09Z"/><polygon class="cls-2" points="929.56 955.91 729.56 955.91 729.56 1155.91 929.56 955.91"/><path class="cls-3" d="M889.56,44.09H310.44a40,40,0,0,0-40,40V1115.91a40,40,0,0,0,40,40H729.56l200-200V84.09A40,40,0,0,0,889.56,44.09Z"/><path class="cls-4" d="M484.29,469.21H715.74l0-231.43H484.29Z"/><line class="cls-5" x1="392.37" y1="619.22" x2="829.56" y2="619.22"/><line class="cls-5" x1="392.37" y1="742.01" x2="829.56" y2="742.01"/><line class="cls-6" x1="392.37" y1="864.8" x2="829.56" y2="864.8"/><line class="cls-5" x1="392.37" y1="864.8" x2="829.56" y2="864.8"/><line class="cls-5" x1="392.37" y1="987.59" x2="617.08" y2="987.59"/></g></svg>