<svg xmlns="http://www.w3.org/2000/svg" xmlns:xlink="http://www.w3.org/1999/xlink" width="100" height="100" viewBox="0 0 100 100"><g><g transform="translate(50 50) scale(0.69 0.69) rotate(0) translate(-50 -50)" style="fill:#000000"><svg fill="#000000" xmlns="http://www.w3.org/2000/svg" viewBox="0 0 100 100" x="0px" y="0px"><path d="m61.344613 37.736c-2.928305 0-5.595359 2.663595-5.595359 5.592125v40.240284c0 2.930206 2.664525 5.598591 5.595359 5.598591h33.655387v-41.125067h-33.655387c-.643389 0-1.269918-.15517-1.847159-.424609h34.406537c-.123323-.102022-.241641-.210832-.356715-.322228h-34.628541c-.201792-.129835-.395603-.271581-.57764-.42892h34.802048c-.08832-.103572-.169979-.212037-.251101-.321152h-34.889342c-.131384-.135993-.254056-.279555-.369647-.42892h34.96909c-.06495-.105258-.12836-.211107-.18644-.320073h-35.011119c-.09125-.13895-.175546-.282995-.25218-.429998h35.055305c-.04527-.105338-.08534-.212253-.123934-.320073h-35.08548c-.06043-.140516-.114443-.283333-.160576-.42892h35.113501c-.02834-.106672-.05393-.213882-.07544-.322229h-35.127511c-.03338-.141415-.05761-.28445-.07651-.42892h35.133976c-.01167-.106056-.01356-.213032-.01832-.320073h-35.142598c-.0039-.07242-.0119-.144834-.01185-.217693.000043-.07113.0081-.141604.01185-.212305h35.142598c.0048-.106968.0056-.214093.01724-.320073h-35.133976c.01887-.144445.04425-.287531.07759-.42892h35.127511c.02141-.107925.04723-.214894.07544-.321152h-35.114578c.04607-.145556.10021-.288434.160576-.42892h35.08548c.03879-.108484.07946-.21518.125011-.32115h-35.055305c.07642-.146649.160129-.290287.251103-.428921h35.012196c.0582-.10927.12024-.215605.185364-.32115h-34.968014c.115721-.149527.239174-.292798.370723-.42892h34.888264c.08096-.108894.162973-.217781.251103-.321151h-34.802048c.181702-.157062.375175-.299262.576562-.42892h34.629619c.114987-.111287.233494-.219219.356715-.321151h-34.40977c.57809-.270305 1.206026-.41704 1.850392-.426765h33.655387v-.882627zm7.390786 18.4665h14.934375v2.317028h-14.934375zm-1.379442 5.241875h17.693258v2.31703h-17.693258z"></path><path d="m10.595357 10.833055c-2.928303 0-5.595357 2.663596-5.595357 5.592125v51.433201c0 2.930205 2.664523 5.59859 5.595357 5.59859h41.277096v-52.317983h-41.277096c-.643388 0-1.269918-.15517-1.847158-.424609h42.028245c-.123323-.102025-.241642-.210832-.356714-.322228h-42.250249c-.201792-.129835-.395604-.271581-.577641-.42892h42.423756c-.08831-.103572-.16998-.212037-.251101-.321152h-42.51105c-.131384-.135993-.254056-.279555-.369646-.42892h42.590797c-.06495-.105259-.128359-.211108-.18644-.320073h-42.632827c-.09125-.13895-.175546-.282995-.252179-.429998h42.677013c-.04527-.105339-.08534-.212253-.123935-.320073h-42.707188c-.060429-.140516-.114443-.283334-.160576-.42892h42.735209c-.02834-.106672-.05393-.213881-.07544-.322228h-42.749218c-.033377-.141416-.057617-.284451-.076507-.428921h42.755684c-.01167-.106056-.01356-.213032-.01832-.320073h-42.764306c-.0039-.07242-.0119-.144834-.01185-.217693.000042-.07112.0081-.141604.01185-.212304h42.764306c.0048-.106968.0056-.214093.01724-.320074h-42.755684c.01887-.144445.04425-.287532.07759-.42892h42.749218c.02141-.107925.04723-.214894.07544-.321151h-42.736287c.04607-.145557.100211-.288436.160576-.42892h42.707188c.03879-.108484.07946-.215182.125013-.321151h-42.677013c.07642-.146649.160128-.290286.251101-.42892h42.633905c.0582-.10927.12024-.215607.185363-.321151h-42.58972c.115719-.149529.239173-.292799.370723-.42892h42.509971c.08096-.108894.162972-.217781.251103-.321151h-42.423756c.181698-.157062.375172-.299262.57656-.42892h42.251327c.114985-.111287.233493-.219219.356714-.321152h-42.031478c.57809-.270304 1.205953-.426764 1.850391-.426764h41.277096v-.882627zm9.011292 20.983075h19.314484v2.544923h-19.314484zm-1.379442 5.697857h22.073368v2.545326h-22.073368z"></path></svg></g></g></svg>