<svg xmlns="http://www.w3.org/2000/svg" xmlns:xlink="http://www.w3.org/1999/xlink" viewBox="0 0 1200 1200"><defs><style>.cls-1,.cls-10,.cls-12,.cls-2,.cls-3,.cls-4,.cls-6,.cls-7,.cls-8{fill:none;}.cls-10,.cls-12,.cls-2,.cls-3,.cls-6,.cls-8{stroke-linecap:round;}.cls-12,.cls-2,.cls-3,.cls-4,.cls-6{stroke-linejoin:round;}.cls-10,.cls-12,.cls-2,.cls-3,.cls-4,.cls-7,.cls-8{stroke-width:40px;}.cls-2{stroke:url(#New_Gradient_Swatch);}.cls-3{stroke:url(#New_Gradient_Swatch-2);}.cls-4{stroke:#89df00;}.cls-5{clip-path:url(#clip-path);}.cls-6,.cls-8{stroke:#f8f8f8;}.cls-6{stroke-width:80px;}.cls-10,.cls-7,.cls-8{stroke-miterlimit:10;}.cls-7{stroke:url(#New_Gradient_Swatch-3);}.cls-9{fill:#f8f8f8;}.cls-10{stroke:url(#New_Gradient_Swatch-4);}.cls-11{fill:url(#New_Gradient_Swatch-5);}.cls-12{stroke:#c4c5c1;}.cls-13{fill:#24ae1d;}.cls-14{fill:#89df00;}</style><linearGradient id="New_Gradient_Swatch" x1="24.71" y1="660.43" x2="773.09" y2="660.43" gradientUnits="userSpaceOnUse"><stop offset="0" stop-color="#24ae1d"/><stop offset="1" stop-color="#89df00"/></linearGradient><linearGradient id="New_Gradient_Swatch-2" x1="173.12" y1="512.01" x2="921.51" y2="512.01" xlink:href="#New_Gradient_Swatch"/><clipPath id="clip-path"><path class="cls-1" d="M748.86,815a201.76,201.76,0,1,1,142.68-59.09A200.44,200.44,0,0,1,748.86,815Z"/></clipPath><linearGradient id="New_Gradient_Swatch-3" x1="475.69" y1="613.2" x2="1019.24" y2="613.2" xlink:href="#New_Gradient_Swatch"/><linearGradient id="New_Gradient_Swatch-4" x1="954.1" y1="857.66" x2="1029.76" y2="857.66" xlink:href="#New_Gradient_Swatch"/><linearGradient id="New_Gradient_Swatch-5" x1="993.71" y1="949.56" x2="1173.95" y2="949.56" gradientTransform="translate(1178.77 2387.39) rotate(-135)" xlink:href="#New_Gradient_Swatch"/></defs><g id="Layer_3" data-name="Layer 3"><path class="cls-2" d="M753.09,970.38v115.44a33,33,0,0,1-33,33H77.69a33,33,0,0,1-33-33V235a33,33,0,0,1,33-33H193.12V930.38a40,40,0,0,0,40,40Z"/><path class="cls-3" d="M901.51,894.4v36a40,40,0,0,1-40,40H233.12a40,40,0,0,1-40-40V93.64a40,40,0,0,1,40-40H701.51l200,200V323.4"/><polygon class="cls-4" points="901.51 253.64 701.51 253.64 701.51 53.64 901.51 253.64"/><g class="cls-5"><line class="cls-6" x1="425.17" y1="522.31" x2="757.25" y2="522.31"/><line class="cls-6" x1="425.17" y1="687.88" x2="757.25" y2="687.88"/></g><circle class="cls-7" cx="747.46" cy="613.2" r="251.78"/><path class="cls-8" d="M865.15,705.35a149.77,149.77,0,0,0-.28-184.65"/><circle class="cls-9" cx="814.38" cy="760.33" r="20"/><line class="cls-10" x1="974.1" y1="839.83" x2="1009.76" y2="875.49"/><rect class="cls-11" x="1002.74" y="891.49" width="162.19" height="116.15" rx="20" transform="translate(2521.66 854.62) rotate(135)"/><line class="cls-12" x1="326.19" y1="785.54" x2="466.85" y2="785.54"/><line class="cls-12" x1="326.19" y1="664.43" x2="415.06" y2="664.43"/><line class="cls-12" x1="326.19" y1="543.31" x2="435.06" y2="543.31"/><path class="cls-13" d="M375.51,272.87c-23.83-23.47-36.66-96-4-128.75A83,83,0,0,1,415.29,121a36.12,36.12,0,0,0-8.63,23.32c0,15,3.38,29.28,44.12,74.65,33,36.92,41.76,57.51,41.64,96.85a83.11,83.11,0,0,1-2.35,19.36,79.21,79.21,0,0,0-22.42-52.93c-38.31-38.92-74-56.26-79-94.61-6,38.12,29.79,59,69.29,96.14h0c23.67,22.4,28.53,56.89,15.62,85.11a77,77,0,0,1-15.62,22.64,75.62,75.62,0,0,1-107.28,0h0c-1.1-1.08-2.91-3.08-3.78-4.1C334.67,373.72,326.74,356,323.36,335c-6.33-41.53-20.62-53.33-24.6-57.31,25.57,0,34.69,36.7,36.52,52.29,2.46,17.44,8.59,34.87,21.11,48.93l.17.19.18.19a46.16,46.16,0,0,0,65.49-.23,46.63,46.63,0,0,0,13.45-32.89,43,43,0,0,0-13.61-32.53C397.84,292.28,390.83,288,375.51,272.87Z"/><path class="cls-14" d="M415.62,320.22a36.48,36.48,0,0,1,10.86,25.91,37,37,0,0,1-63.33,26.57c-37.14-41.86-11.4-120-11.4-120C367.6,291.19,380,284.39,415.62,320.22Z"/></g></svg>