<svg xmlns="http://www.w3.org/2000/svg" xmlns:xlink="http://www.w3.org/1999/xlink" viewBox="0 0 1200 1200"><defs><style>.cls-1{fill:none;stroke:#c4c5c1;stroke-linecap:round;stroke-linejoin:round;stroke-width:40px;}.cls-2{fill:url(#New_Gradient_Swatch);}.cls-3{fill:url(#New_Gradient_Swatch-2);}.cls-4{fill:#f8f8f8;}.cls-5{fill:#858585;}.cls-6{fill:url(#New_Gradient_Swatch-3);}.cls-7{fill:url(#New_Gradient_Swatch-4);}</style><linearGradient id="New_Gradient_Swatch" x1="491.1" y1="746.97" x2="740.15" y2="746.97" gradientUnits="userSpaceOnUse"><stop offset="0" stop-color="#24ae1d"/><stop offset="1" stop-color="#89df00"/></linearGradient><linearGradient id="New_Gradient_Swatch-2" x1="684.55" y1="257.73" x2="1200" y2="257.73" xlink:href="#New_Gradient_Swatch"/><linearGradient id="New_Gradient_Swatch-3" x1="40" y1="1063.75" x2="232.5" y2="1063.75" xlink:href="#New_Gradient_Swatch"/><linearGradient id="New_Gradient_Swatch-4" x1="0" y1="1063.75" x2="272.5" y2="1063.75" xlink:href="#New_Gradient_Swatch"/></defs><g id="Layer_3" data-name="Layer 3"><line class="cls-1" x1="755.94" y1="892.13" x2="777.33" y2="914.26"/><line class="cls-1" x1="435.46" y1="866.03" x2="298.57" y2="956.49"/><line class="cls-1" x1="545.4" y1="558.51" x2="484.17" y2="394.2"/><line class="cls-1" x1="726.22" y1="581.32" x2="760.91" y2="529.37"/><circle class="cls-2" cx="615.63" cy="746.97" r="124.52"/><circle class="cls-3" cx="942.28" cy="257.73" r="257.73"/><circle class="cls-4" cx="877.84" cy="1018.25" r="66.49"/><circle class="cls-5" cx="423.92" cy="232.5" r="96.25"/><circle class="cls-4" cx="223.16" cy="604.03" r="183.16"/><circle class="cls-6" cx="136.25" cy="1063.75" r="96.25"/><path class="cls-7" d="M136.25,967.5A96.25,96.25,0,1,1,40,1063.75a96.25,96.25,0,0,1,96.25-96.25m0-40a136.26,136.26,0,1,0,96.34,39.91,135.33,135.33,0,0,0-96.34-39.91Z"/></g></svg>