<svg id="Layer_1" data-name="Layer 1" xmlns="http://www.w3.org/2000/svg" xmlns:xlink="http://www.w3.org/1999/xlink" viewBox="0 0 1200 1200"><defs><style>.cls-1{fill:none;stroke:#262626;stroke-linecap:round;stroke-linejoin:round;stroke-width:40px;}.cls-2{fill:url(#New_Gradient_Swatch);}.cls-3{fill:#262626;}.cls-4{fill:url(#New_Gradient_Swatch-2);}.cls-5{fill:#858585;}.cls-6{fill:#c4c5c1;}.cls-7{fill:url(#New_Gradient_Swatch-3);}</style><linearGradient id="New_Gradient_Swatch" x1="471.1" y1="746.97" x2="760.15" y2="746.97" gradientTransform="translate(1254.34 19.64) rotate(80.78)" gradientUnits="userSpaceOnUse"><stop offset="0" stop-color="#24ae1d"/><stop offset="1" stop-color="#89df00"/></linearGradient><linearGradient id="New_Gradient_Swatch-2" x1="624.55" y1="297.73" x2="1180" y2="297.73" gradientTransform="matrix(1, 0, 0, 1, 0, 0)" xlink:href="#New_Gradient_Swatch"/><linearGradient id="New_Gradient_Swatch-3" x1="20" y1="1063.75" x2="252.5" y2="1063.75" gradientTransform="matrix(1, 0, 0, 1, 0, 0)" xlink:href="#New_Gradient_Swatch"/></defs><line class="cls-1" x1="755.94" y1="892.13" x2="777.33" y2="914.26"/><line class="cls-1" x1="435.46" y1="866.03" x2="298.57" y2="956.49"/><line class="cls-1" x1="538.71" y1="540.55" x2="491.1" y2="412.8"/><circle class="cls-2" cx="615.63" cy="746.97" r="144.52" transform="translate(-220.31 1235) rotate(-80.78)"/><path class="cls-3" d="M615.63,622.44A124.53,124.53,0,1,1,491.1,747,124.53,124.53,0,0,1,615.63,622.44m0-40a164.16,164.16,0,1,0,64,12.95,163.47,163.47,0,0,0-64-12.95Z"/><path class="cls-4" d="M902.27,575.45A277.73,277.73,0,0,1,705.89,101.34a277.73,277.73,0,0,1,392.77,392.77A275.94,275.94,0,0,1,902.27,575.45Z"/><path class="cls-3" d="M902.27,40C1044.61,40,1160,155.39,1160,297.73S1044.61,555.45,902.27,555.45,644.55,440.06,644.55,297.73,759.94,40,902.27,40m0-40a297.8,297.8,0,0,0-115.9,572A297.8,297.8,0,0,0,1018.18,23.41,296.06,296.06,0,0,0,902.27,0Z"/><circle class="cls-5" cx="877.84" cy="1018.25" r="86.49"/><path class="cls-3" d="M877.84,951.76a66.49,66.49,0,1,1-66.49,66.49,66.49,66.49,0,0,1,66.49-66.49m0-40a106.49,106.49,0,1,0,106.49,106.49A106.61,106.61,0,0,0,877.84,911.76Z"/><circle class="cls-5" cx="423.92" cy="232.5" r="116.25"/><path class="cls-3" d="M423.92,136.25a96.25,96.25,0,1,1-96.25,96.25,96.25,96.25,0,0,1,96.25-96.25m0-40a136.26,136.26,0,1,0,96.34,39.91,135.31,135.31,0,0,0-96.34-39.91Z"/><circle class="cls-6" cx="223.16" cy="604.03" r="203.16" transform="translate(-361.75 334.71) rotate(-45)"/><path class="cls-3" d="M223.16,420.87c101.15,0,183.16,82,183.16,183.16s-82,183.15-183.16,183.15S40,705.18,40,604A183.16,183.16,0,0,1,223.16,420.87m0-40A222.55,222.55,0,1,0,310,398.42a221.78,221.78,0,0,0-86.87-17.55Z"/><circle class="cls-7" cx="136.25" cy="1063.75" r="116.25"/><path class="cls-3" d="M136.25,967.5A96.25,96.25,0,1,1,40,1063.75a96.25,96.25,0,0,1,96.25-96.25m0-40a136.26,136.26,0,1,0,96.34,39.91,135.33,135.33,0,0,0-96.34-39.91Z"/><circle class="cls-3" cx="722.15" cy="577.91" r="20"/></svg>