<svg xmlns="http://www.w3.org/2000/svg" xmlns:xlink="http://www.w3.org/1999/xlink" viewBox="0 0 1200 1200"><defs><style>.cls-1{fill:none;stroke:#f8f8f8;stroke-linecap:round;stroke-linejoin:round;stroke-width:40px;}.cls-2{fill:#c4c5c1;}.cls-3{fill:url(#New_Gradient_Swatch);}.cls-4{fill:url(#New_Gradient_Swatch-2);}</style><linearGradient id="New_Gradient_Swatch" x1="700.44" y1="87.37" x2="860.76" y2="87.37" gradientUnits="userSpaceOnUse"><stop offset="0" stop-color="#24ae1d"/><stop offset="1" stop-color="#89df00"/></linearGradient><linearGradient id="New_Gradient_Swatch-2" x1="625.45" y1="429.01" x2="1142.96" y2="429.01" xlink:href="#New_Gradient_Swatch"/></defs><g id="Layer_3" data-name="Layer 3"><polyline class="cls-1" points="69.42 1180 377.42 1180 377.42 998.19 681.33 998.19 681.33 823.06 1180 823.06"/><path class="cls-2" d="M254.67,370.91c32.82-23.86,42.21-83.63,14.08-122.37s-85.62-45.66-118.44-21.79-39,73.45-6,117.24C173.1,382.23,221.84,394.78,254.67,370.91Z"/><path class="cls-2" d="M204.29,1031.81l71.6-163.23h0l42.51-127.33a.06.06,0,0,1,.07,0c2.34.36,93.49,14.64,106.13,18,0,0,0,0,0,.07l-14,94.09c-4.59,28.65,94.18,25.18,93.3-1.48,0-.11,10.41-125.39,10.41-125.39h0a46.23,46.23,0,0,0-20.77-38.33h0L364.67,644.83a.07.07,0,0,1,0-.06c3.37-40.91,2.18-79.43-4.48-116.52a.06.06,0,0,1,.09-.06l72.56,38.72,2.73,1.45A41.08,41.08,0,0,0,470.47,570l107.82-44.49a34.81,34.81,0,0,0,19.23-44.25c-6.46-17.27-25.65-26.15-43.27-20.77l-2.32.71L462,488.65a0,0,0,0,1-.05,0l-115.75-85a52,52,0,0,0-42.63-8.68h0c-46.45,4.44-100.28,17.6-152,35.81a38.33,38.33,0,0,0-13.9,8.55L43.57,530l-2.19,2.09a39.26,39.26,0,0,0-10.82,18.69L1.68,665l-.7,2.8c-9.42,44,52.05,61.84,67.52,19.4L102.24,583.5s0,0,0,0l81.81-52.68a.07.07,0,0,1,.1,0c13.69,46.3,28.45,83.5,27.45,150.51C210,793.57,165,929.63,116.12,1031.74,97.56,1065.83,192.74,1065,204.29,1031.81Z"/><path class="cls-3" d="M804.57,174.23c40.23-5.27,63.61-47.31,54.07-94.13C847.71,26.49,806-4.69,765.75.58s-73.77,49.24-63.41,96S764.34,179.49,804.57,174.23Z"/><path class="cls-4" d="M1141.55,345.69l-28.75-96.31a30.11,30.11,0,0,0-17.32-19.12L945.56,161.52a67,67,0,0,0-44.77-4.07c-52.34,13.62-118.11,46-140.65,64-8.67,6.92-24.27,18.89-28,34.44-7.39,30.67-27,123.25-27,123.25l-79.19,64.36-.47.44a50.1,50.1,0,0,1,14.37,15.74c7.63,13.22,8.54,29,3.88,45,7.4.92,15.55-.67,23.73-5.76l92.92-62.53a25.55,25.55,0,0,0,9-10.7c.45-1.34,21.92-74.47,21.92-74.47l33.12,88.54-94.8,60.47a43.5,43.5,0,0,0-16.25,54.53l65.51,134.57c13.58,26.29,85.49,9.62,74.35-13.57L806.07,556.8,906.79,498l54.83,90.35,68.49,87.39c26.57,32.06,85.49,21.66,73.3,0-18-37.31-79-141.33-79-141.33L953,275.87l93.77,24,29.78,69.43C1094.77,408.57,1152.71,387.82,1141.55,345.69Z"/></g></svg>