<svg id="Layer_1" data-name="Layer 1" xmlns="http://www.w3.org/2000/svg" xmlns:xlink="http://www.w3.org/1999/xlink" viewBox="0 0 1200 1200"><defs><style>.cls-1,.cls-4{fill:none;stroke:#262626;stroke-linecap:round;stroke-linejoin:round;}.cls-1{stroke-width:40px;}.cls-2{fill:url(#New_Gradient_Swatch);}.cls-3{fill:url(#New_Gradient_Swatch-2);}.cls-4{stroke-width:20px;}.cls-5{fill:#c4c5c1;}</style><linearGradient id="New_Gradient_Swatch" x1="698.61" y1="122.79" x2="853.53" y2="122.79" gradientUnits="userSpaceOnUse"><stop offset="0" stop-color="#24ae1d"/><stop offset="1" stop-color="#89df00"/></linearGradient><linearGradient id="New_Gradient_Swatch-2" x1="626.15" y1="452.71" x2="1126.22" y2="452.71" xlink:href="#New_Gradient_Swatch"/></defs><polyline class="cls-1" points="88.86 1125.77 386.47 1125.77 386.47 950.2 680.15 950.2 680.15 781.08 1162 781.08"/><path class="cls-2" d="M799.23,206.67c38.87-5.09,61.46-45.69,52.24-90.9C840.91,64,800.59,33.89,761.72,39s-71.29,47.56-61.27,92.67S760.35,211.75,799.23,206.67Z"/><path class="cls-3" d="M1124.85,372.25l-27.79-93a29.07,29.07,0,0,0-16.73-18.46L935.47,194.4a64.81,64.81,0,0,0-43.27-3.93c-50.57,13.14-114.12,44.39-135.9,61.77-8.38,6.68-23.45,18.24-27.07,33.26-7.14,29.62-26.11,119-26.11,119L626.6,466.67l-.45.42A48.59,48.59,0,0,1,640,482.3c7.36,12.76,8.25,28,3.74,43.44,7.15.9,15-.64,22.93-5.56L756.5,459.8a24.74,24.74,0,0,0,8.7-10.34c.43-1.29,21.18-71.92,21.18-71.92l32,85.51-91.61,58.4a42,42,0,0,0-15.7,52.65l63.31,130c13.12,25.39,82.6,9.29,71.84-13.11L800.68,576.11,898,519.31l53,87.25L1017.17,691c25.67,31,82.6,20.92,70.83,0-17.41-36-76.36-136.48-76.36-136.48l-69-249.64,90.6,23.15L1062,395C1079.64,433,1135.63,412.93,1124.85,372.25Z"/><polyline class="cls-4" points="800.68 576.11 898.01 519.31 950.99 606.56 1017.17 690.95"/><path class="cls-4" d="M942.66,304.83l90.6,23.15L1062,395c17.6,37.94,73.59,17.9,62.81-22.78l-1.07-3.56-26.72-89.45a29.07,29.07,0,0,0-16.73-18.46L935.47,194.4"/><path class="cls-4" d="M853.17,143.85a97.74,97.74,0,0,0-1.7-28.08C840.91,64,800.59,33.89,761.72,39c-20.5,2.69-39.21,15.77-50.84,34.15"/><path class="cls-4" d="M652.65,525.59a37.68,37.68,0,0,0,14.06-5.41L756.5,459.8a24.83,24.83,0,0,0,7.77-8.49c.33-.6,22.11-73.77,22.11-73.77s23.07,64.94,32,85.51l-91.61,58.4a42,42,0,0,0-15.7,52.65l63.31,130"/><path class="cls-4" d="M756.3,252.24c-8.38,6.68-23.45,18.24-27.07,33.26-7.14,29.62-26.11,119-26.11,119L634,460.65"/><path class="cls-5" d="M267.86,396.61c31.72-23.05,40.79-80.77,13.61-118.18s-82.73-44.09-114.45-21-37.66,70.93-5.8,113.22C189.05,407.53,236.15,419.65,267.86,396.61Z"/><path class="cls-5" d="M219.19,1034.82,288.37,877.2h0l41.08-123a.07.07,0,0,1,.06,0c2.27.36,90.34,14.15,102.55,17.41a0,0,0,0,1,0,.06l-13.57,90.87c-4.44,27.66,91,24.32,90.16-1.43,0-.11,10.05-121.09,10.05-121.09h0a44.61,44.61,0,0,0-20.07-37h0L374.16,661.13a.08.08,0,0,1,0-.07c3.26-39.5,2.11-76.7-4.33-112.52a.06.06,0,0,1,.08-.06L440,585.88l2.63,1.4a39.75,39.75,0,0,0,33.77,1.59l104.17-43a33.62,33.62,0,0,0,18.59-42.74c-6.24-16.67-24.78-25.24-41.81-20.05l-2.25.69-86.85,26.5h-.06L356.35,428.17a50.28,50.28,0,0,0-41.19-8.38h0c-44.87,4.29-96.89,17-146.87,34.58a37.17,37.17,0,0,0-13.43,8.25l-91,87.58-2.11,2a37.9,37.9,0,0,0-10.46,18L23.41,680.58l-.69,2.7C13.63,725.8,73,743,88,702l32.61-100.13,0,0L199.66,551a.06.06,0,0,1,.09,0c13.23,44.72,27.5,80.64,26.53,145.35-1.62,108.39-45,239.78-92.3,338.39C116.06,1067.68,208,1066.85,219.19,1034.82Z"/><path class="cls-4" d="M508.7,861.1s.05,0,.06-.06l10-121h0a44.61,44.61,0,0,0-20.07-37h0L374.16,661.13a.08.08,0,0,1,0-.07c3.26-39.5,2.11-76.7-4.33-112.52a.06.06,0,0,1,.08-.06L440,585.88l2.63,1.4a39.75,39.75,0,0,0,33.77,1.59l104.17-43a33.62,33.62,0,0,0,18.59-42.74c-6.24-16.67-24.78-25.24-41.81-20.05l-2.25.69-86.85,26.5h-.06L356.35,428.17"/><path class="cls-4" d="M219.13,1034.86a.07.07,0,0,0,.06,0L288.37,877.2h0l41.08-123a.07.07,0,0,1,.06,0"/><path class="cls-4" d="M88,702l32.61-100.13,0,0L199.66,551a.06.06,0,0,1,.09,0c2.76,9.33,5.57,18.28,8.27,27.19"/><path class="cls-4" d="M262.68,260c-29.18-20.47-70.14-21.18-95.66-2.63-31.72,23-37.66,70.93-5.8,113.22,25.75,34.16,68,47.09,99.28,30.58"/></svg>