<svg id="Layer_1" data-name="Layer 1" xmlns="http://www.w3.org/2000/svg" xmlns:xlink="http://www.w3.org/1999/xlink" viewBox="0 0 1200 1200"><defs><style>.cls-1{fill:#262626;}.cls-2{fill:url(#New_Gradient_Swatch);}</style><linearGradient id="New_Gradient_Swatch" x1="92.73" y1="699.96" x2="1020.04" y2="699.96" gradientUnits="userSpaceOnUse"><stop offset="0" stop-color="#24ae1d"/><stop offset="1" stop-color="#89df00"/></linearGradient></defs><path class="cls-1" d="M674.57,1.07c-165.24-10.15-335,51.52-452.76,195.55a20.48,20.48,0,0,0,1.74,28.63,19.81,19.81,0,0,0,28.23-1.76q.42-.48.81-1C427.37,8.68,726-8.81,932.9,128.53s324.51,427.14,127.92,843.56a20.41,20.41,0,0,0,9,27.18,19.85,19.85,0,0,0,26.8-9.15c.09-.18.18-.36.26-.55,202.51-428.94,80.86-746.93-142.08-894.95C871.22,39.11,773.71,7.16,674.57,1.07Z"/><path class="cls-1" d="M180,265.55a19.94,19.94,0,0,0-17.76,10.2C102.81,377.32,85.93,508.9,3.48,635.62a20.46,20.46,0,0,0,5.26,28.19,19.83,19.83,0,0,0,27.79-5.34l.33-.51C124.79,522.83,143.6,387.07,196.65,296.45a20.44,20.44,0,0,0-6.57-27.9,19.76,19.76,0,0,0-10-3Z"/><path class="cls-1" d="M631.86,496.86a71.41,71.41,0,0,0-41.09,12.94C565,527.73,547.1,562.43,540.35,616.39c-4.66,37.25-4.3,79.59-26.82,157.2-22.35,77-49.11,113.19-80,164.27a20.47,20.47,0,0,0,6.43,28,19.86,19.86,0,0,0,27.56-6.53l.12-.19c30-49.46,60.45-91.86,84.32-174.1,23.7-81.64,24-130.6,28.13-163.49,5.9-47.2,20.66-69.43,33.33-78.22s25.82-7.7,38.65-.68a19.85,19.85,0,0,0,27.31-7.46A20.46,20.46,0,0,0,672,507.44c-.33-.18-.66-.37-1-.54a81.4,81.4,0,0,0-39.11-10Z"/><path class="cls-1" d="M691.44,558.66A20.18,20.18,0,0,0,672.54,580a19.09,19.09,0,0,0,.21,2c2.23,16.23,1.59,37.15-2,61.07-7.3,48.86-26.65,110-53.75,172.94a20.4,20.4,0,0,0,10.46,26.67,19.91,19.91,0,0,0,26.2-10.41c28.1-65.19,48.56-128.82,56.67-183.13,4-26.58,5-51,2-72.73A20.08,20.08,0,0,0,691.44,558.66Z"/><path class="cls-1" d="M602.17,886.68a20,20,0,0,0-18.7,11.88c-42.82,91.83-120.24,181.34-172.76,232.26a20.52,20.52,0,0,0-.65,28.71,19.83,19.83,0,0,0,28.31.66c55.15-53.47,134.83-144.76,181.25-244.3a20.41,20.41,0,0,0-9.15-27.14A19.84,19.84,0,0,0,602.17,886.68Z"/><path class="cls-1" d="M414.57,983a19.93,19.93,0,0,0-16.67,8.56,931.93,931.93,0,0,1-79.84,95.82,20.49,20.49,0,0,0-.72,28.68,19.81,19.81,0,0,0,28.28.72c.43-.42.85-.85,1.24-1.3a973.16,973.16,0,0,0,83.33-99.94,20.47,20.47,0,0,0-3.85-28.42A19.83,19.83,0,0,0,414.57,983Z"/><path class="cls-1" d="M608.58,400a159,159,0,0,0-63.91,20c-40,22.76-71.59,65.39-84.32,126.72a20.29,20.29,0,0,0,15.5,24A20,20,0,0,0,499.52,555c10.81-52.08,35.16-82.82,64.74-99.67s65.6-19.68,100-10.09c68.8,19.17,128.15,84.8,110,181.39l-.06.32-.05.38a1008.65,1008.65,0,0,1-39.79,166.23,20.35,20.35,0,0,0,12.58,25.7,19.93,19.93,0,0,0,25.33-12.76,1049.68,1049.68,0,0,0,41.25-172.57c21.71-116.24-52.29-203.7-138.64-227.76a183,183,0,0,0-66.3-6.18Z"/><path class="cls-1" d="M462.85,623.58a20.09,20.09,0,0,0-19.06,16.9c-10.6,58.37-22.48,118.43-49.74,181.6a20.42,20.42,0,0,0,9.25,27.11A19.88,19.88,0,0,0,430,839.8c.23-.48.44-1,.63-1.46,29.29-67.86,41.78-131.75,52.45-190.52A20.27,20.27,0,0,0,467.41,624a19.39,19.39,0,0,0-4.56-.39Z"/><path class="cls-1" d="M725.19,853.77a20,20,0,0,0-18.33,12.52c-60.4,141.93-139.2,231.82-183.23,292.63a20.48,20.48,0,0,0,3.4,28.48,19.81,19.81,0,0,0,28.08-3.44c.27-.34.52-.69.76-1,41.56-57.41,124.71-152.54,187.71-300.56a20.4,20.4,0,0,0-10.08-26.8,19.84,19.84,0,0,0-8.31-1.78Z"/><path class="cls-1" d="M371.76,885.46a20,20,0,0,0-16.05,9.67c-28,44.86-65.73,91.59-118.17,140.35a20.49,20.49,0,0,0-1.78,28.63,19.81,19.81,0,0,0,28.23,1.8c.2-.18.39-.35.58-.54,54.78-50.92,95-100.47,125-148.53a20.46,20.46,0,0,0-5.77-28.08A19.8,19.8,0,0,0,371.76,885.46Z"/><path class="cls-2" d="M592.54,300.2c-36,3.73-71,14.55-102.55,33.07-62.94,37-110.57,105.41-122.4,203.36-24.76,186.58-86.41,336-210.21,431.66a20.49,20.49,0,0,0-4,28.42,19.83,19.83,0,0,0,28,4l.21-.16c134.71-104.1,200-265.93,225.58-458.54h0v-.27c10.5-87.59,50.43-142.62,102.81-173.41s118.56-36.72,180.67-19.55a20,20,0,0,0,24.62-14.13,20.32,20.32,0,0,0-13.93-25l-.16-.05a294.91,294.91,0,0,0-108.7-9.45Zm180.88,43.37a20.35,20.35,0,0,0-9.89,37.61,253,253,0,0,1,85.05,89.37,19.86,19.86,0,0,0,27,8.5,20.44,20.44,0,0,0,8.38-27.4q-.32-.6-.66-1.17a293.25,293.25,0,0,0-98.49-103.63,19.8,19.8,0,0,0-11.41-3.28ZM893.84,509a20.11,20.11,0,0,0-20.77,19.47,20.82,20.82,0,0,0,.66,6c9.5,38.51,11.28,82.56,2.4,132.16q-8.61,41.09-19.27,79.5a20.34,20.34,0,0,0,13.07,25.44A20,20,0,0,0,895,758.36q.18-.58.33-1.2,11.05-39.85,20-82.45l.1-.27.06-.33c9.84-54.83,8-105-3-149.48A20.09,20.09,0,0,0,893.84,509ZM831.5,861.64a20,20,0,0,0-18.08,12.89c-48.67,120.62-111.25,217-174.53,292a20.5,20.5,0,0,0,2.35,28.61,19.82,19.82,0,0,0,28.07-2.2c65.81-78.06,130.75-178.21,181.14-303.09a20.38,20.38,0,0,0-10.51-26.63,19.62,19.62,0,0,0-8.44-1.63ZM599.1,201c-120.62,8.83-234.84,74.21-288.8,201.88a20.4,20.4,0,0,0,9.91,26.87,19.88,19.88,0,0,0,26.49-10.05c.13-.28.25-.57.37-.87C410.93,267.7,567.51,216.32,710.71,250.29c143,33.91,268.81,151.7,269.17,346.29-18.55,177.36-97.2,353.31-158.49,461.66a20.46,20.46,0,0,0,7.36,27.72,19.86,19.86,0,0,0,27.34-7.46l0-.08c63.34-112,144.52-292,163.75-478.93l.16-1v-1.06c0-213.11-141.68-349-300.21-386.6A398.12,398.12,0,0,0,599.1,201ZM301,496.75a20.08,20.08,0,0,0-19.43,16.48C228.06,777.1,142.64,838.55,109,846.37a20.28,20.28,0,0,0-15.92,23.72,20,20,0,0,0,23.39,16.14c.5-.1,1-.21,1.48-.35,59.9-13.92,147.91-93.61,202.82-364.46a20.29,20.29,0,0,0-15.21-24.19A19.58,19.58,0,0,0,301,496.75Z"/><path class="cls-1" d="M656.76,99a20.3,20.3,0,0,0-1,40.52,468.46,468.46,0,0,1,162.08,42.62,19.89,19.89,0,0,0,26.54-9.95,20.41,20.41,0,0,0-9.82-26.91A507.45,507.45,0,0,0,658.74,99.11q-1,0-2,0Z"/><path class="cls-1" d="M551.44,102.91a21.3,21.3,0,0,0-3.38.27c-119,18.38-229.86,83.4-296.3,198.4l-.47.79-.37.78c-43.23,92.92-60,181.82-82.7,258.56S118.07,702.06,54.36,752.08a20.48,20.48,0,0,0-4.46,28.33,19.83,19.83,0,0,0,27.94,4.52c.34-.25.67-.51,1-.79C151.28,727.27,183.05,653,206.55,573.39c23.42-79.32,39.8-164.83,80.21-252C346.8,218,445.38,160,554.05,143.26a20.31,20.31,0,0,0-2.61-40.35Z"/><path class="cls-1" d="M912.07,195.3a20.15,20.15,0,0,0-20,20.3,20.37,20.37,0,0,0,9.1,17c131.94,89.25,193.45,250.4,165.63,425.27l-.11.48,0,.46c-8.9,80.67-37.76,161.73-70.31,242.19a20.4,20.4,0,0,0,10.91,26.49,19.92,19.92,0,0,0,26.12-11.07c32.87-81.26,63.21-165.37,72.92-252.38,29.83-188-37.27-366.67-182.92-465.2a19.82,19.82,0,0,0-11.3-3.54Z"/></svg>