<svg xmlns="http://www.w3.org/2000/svg" xmlns:xlink="http://www.w3.org/1999/xlink" width="100" height="100" viewBox="0 0 100 100"><g><g transform="translate(50 50) scale(0.69 0.69) rotate(0) translate(-50 -50)" style="fill:#000000"><svg fill="#000000" xmlns:x="http://ns.adobe.com/Extensibility/1.0/" xmlns:i="http://ns.adobe.com/AdobeIllustrator/10.0/" xmlns:graph="http://ns.adobe.com/Graphs/1.0/" xmlns="http://www.w3.org/2000/svg" xmlns:xlink="http://www.w3.org/1999/xlink" version="1.1" x="0px" y="0px" viewBox="0 0 100 100" enable-background="new 0 0 100 100" xml:space="preserve"><metadata><sfw xmlns="http://ns.adobe.com/SaveForWeb/1.0/"><slices></slices><sliceSourceBounds width="1448.1" height="1444.6" x="0.8" y="-1448.4" bottomLeftOrigin="true"></sliceSourceBounds></sfw></metadata><path d="M96.1,19.5c0-5.3-4.3-9.5-9.5-9.5H13.5c-5.3,0-9.5,4.3-9.5,9.5v44.3c0,5.3,4.3,9.5,9.5,9.5h52.2L82,89.7  c0.9,0.9,2.4,0.3,2.4-1V73.3h2.1c5.3,0,9.5-4.3,9.5-9.5V19.5z M46.5,40.8c0,4.8-0.4,8.7-1.1,11.4c-0.2,0.6-0.5,1.1-0.7,1.7h-8.1  c0.1-0.1,0.3-0.2,0.4-0.4c1.2-1.9,1.9-4.6,2-8h-3.1c-2.1,0-3.9-2-3.9-4.5v-7.8c0-2.5,1.7-4.5,3.9-4.5h10.6V40.8z M68,40.8  c0,4.8-0.4,8.7-1.1,11.4c-0.2,0.6-0.5,1.1-0.7,1.7h-8.1c0.1-0.1,0.3-0.2,0.4-0.4c1.2-1.9,1.9-4.6,2-8h-3.1c-2.1,0-3.9-2-3.9-4.5  v-7.8c0-2.5,1.7-4.5,3.9-4.5H68V40.8z"></path></svg></g></g></svg>