<svg xmlns="http://www.w3.org/2000/svg" xmlns:xlink="http://www.w3.org/1999/xlink" viewBox="0 0 1200 1200"><defs><style>.cls-1,.cls-5,.cls-6,.cls-7{fill:none;}.cls-1,.cls-6,.cls-7{stroke-linecap:round;stroke-linejoin:round;fill-rule:evenodd;}.cls-1,.cls-5{stroke-width:40px;}.cls-1{stroke:url(#New_Gradient_Swatch);}.cls-2{fill:#858585;}.cls-3{fill:url(#New_Gradient_Swatch-2);}.cls-4{fill:#c4c5c1;}.cls-5{stroke:#f8f8f8;stroke-miterlimit:10;}.cls-6,.cls-7{stroke-width:20px;}.cls-6{stroke:url(#New_Gradient_Swatch-3);}.cls-7{stroke:url(#New_Gradient_Swatch-4);}</style><linearGradient id="New_Gradient_Swatch" x1="105.77" y1="600" x2="1094.23" y2="600" gradientUnits="userSpaceOnUse"><stop offset="0" stop-color="#24ae1d"/><stop offset="1" stop-color="#89df00"/></linearGradient><linearGradient id="New_Gradient_Swatch-2" x1="-1378.29" y1="-158.86" x2="-952.87" y2="-158.86" gradientTransform="translate(-397.19 1433.52) rotate(130.33)" xlink:href="#New_Gradient_Swatch"/><linearGradient id="New_Gradient_Swatch-3" x1="650.26" y1="884.41" x2="955.92" y2="884.41" xlink:href="#New_Gradient_Swatch"/><linearGradient id="New_Gradient_Swatch-4" x1="650.26" y1="256.68" x2="1023.56" y2="256.68" xlink:href="#New_Gradient_Swatch"/></defs><g id="Layer_3" data-name="Layer 3"><path class="cls-1" d="M600,20,125.77,283.64c0,527.27,210.77,790.91,474.23,896.36,210.77-105.45,474.23-369.09,474.23-896.36Z"/><path class="cls-2" d="M728.63,630.36l29.78,16a3.65,3.65,0,0,0,4.73-.87l26.63-30.45a3.17,3.17,0,0,1,3.74-1.4,128.79,128.79,0,0,0,26.31,2.63,4.07,4.07,0,0,1,3.64,2l19.78,35.38a3.93,3.93,0,0,0,4.48,2l32-9.62a3.94,3.94,0,0,0,2.65-4.12l-3-40.42a4.05,4.05,0,0,1,2-3.64,128.58,128.58,0,0,0,20.5-16.7,4.3,4.3,0,0,1,3.89-.89l39,10.75a3.66,3.66,0,0,0,4.43-1.88l16-29.77a3.65,3.65,0,0,0-.87-4.73L933.91,528a3.18,3.18,0,0,1-1.4-3.74,128.09,128.09,0,0,0,2.64-26.3,4.05,4.05,0,0,1,2-3.64l35.39-19.78a3.93,3.93,0,0,0,2-4.48l-9.62-32a4,4,0,0,0-4.13-2.64l-40.42,3a4.09,4.09,0,0,1-3.64-2,128.58,128.58,0,0,0-16.7-20.5,4.31,4.31,0,0,1-.89-3.89l10.75-39a3.66,3.66,0,0,0-1.88-4.43l-29.78-16a3.65,3.65,0,0,0-4.73.87L846.29,384a3.19,3.19,0,0,1-3.74,1.4,128.25,128.25,0,0,0-26.31-2.64,4.05,4.05,0,0,1-3.64-2l-19.78-35.38a3.94,3.94,0,0,0-4.48-2l-32.56,9.78a3.93,3.93,0,0,0-2.65,4.12l3,40.42a4.06,4.06,0,0,1-2,3.64,128,128,0,0,0-20.5,16.7,4.3,4.3,0,0,1-3.89.89l-39-10.75a3.66,3.66,0,0,0-4.43,1.88l-16,29.77a3.65,3.65,0,0,0,.87,4.73l30.61,27.14a3.16,3.16,0,0,1,1.4,3.74,128.76,128.76,0,0,0-2.63,26.3,4.07,4.07,0,0,1-2,3.64l-35.39,19.77a3.94,3.94,0,0,0-2,4.48L671,562.25a3.93,3.93,0,0,0,4.12,2.65l40.43-3a4.06,4.06,0,0,1,3.64,2,128.48,128.48,0,0,0,16.7,20.5,4.3,4.3,0,0,1,.89,3.89l-10.75,39C725.48,629.09,726.27,630.8,728.63,630.36ZM794,544.53A50.44,50.44,0,1,1,862.35,524,50.41,50.41,0,0,1,794,544.53Z"/><path class="cls-3" d="M363.35,825.38l43.59-32.59a5.79,5.79,0,0,1,5.32-.8,172.21,172.21,0,0,0,33.87,10.86,5.48,5.48,0,0,1,4.24,3.6l16.08,52.1a5.3,5.3,0,0,0,5.34,3.87l45.59-3.72A5.3,5.3,0,0,0,522,854l7.42-54a5.46,5.46,0,0,1,3.6-4.24,172.23,172.23,0,0,0,31.66-16.2,4.28,4.28,0,0,1,5.37-.08l49,25a4.92,4.92,0,0,0,6.35-1.23l29.44-34.67a4.92,4.92,0,0,0,.19-6.47l-32.6-43.58a5.77,5.77,0,0,1-.79-5.31,173.55,173.55,0,0,0,10.86-33.87,5.46,5.46,0,0,1,3.6-4.24l52.11-16.08a5.31,5.31,0,0,0,3.87-5.33l-3.73-45.59a5.28,5.28,0,0,0-4.68-4.63l-54-7.43a5.44,5.44,0,0,1-4.23-3.59,172.91,172.91,0,0,0-16.21-31.66,4.28,4.28,0,0,1-.08-5.37l25-49A4.91,4.91,0,0,0,633,500.1l-34.67-29.44a4.93,4.93,0,0,0-6.47-.18l-43.59,32.59a5.77,5.77,0,0,1-5.31.79A173.42,173.42,0,0,0,509,493a5.48,5.48,0,0,1-4.24-3.59L488.72,437.3a5.29,5.29,0,0,0-5.34-3.86l-44.87,3.66a5.29,5.29,0,0,0-4.64,4.68l-7.42,54a5.48,5.48,0,0,1-3.6,4.24,172.31,172.31,0,0,0-31.67,16.2,4.28,4.28,0,0,1-5.37.08l-48.3-25.09a4.92,4.92,0,0,0-6.35,1.23l-29.44,34.67a4.92,4.92,0,0,0-.19,6.47l32.6,43.58a5.77,5.77,0,0,1,.79,5.31,172.21,172.21,0,0,0-10.86,33.87,5.48,5.48,0,0,1-3.6,4.24l-52.11,16.08a5.31,5.31,0,0,0-3.87,5.34l3.66,44.87a5.3,5.3,0,0,0,4.69,4.63l54,7.42a5.45,5.45,0,0,1,4.23,3.6A172.91,172.91,0,0,0,347.3,734.2a4.28,4.28,0,0,1,.08,5.37l-25.1,48.29a4.93,4.93,0,0,0,1.24,6.36l34.67,29.43C358.81,826.83,361.33,827,363.35,825.38ZM425.85,604a67.86,67.86,0,1,1,7.81,95.64A67.84,67.84,0,0,1,425.85,604Z"/><path class="cls-4" d="M537.31,450.77l23.42,7.11a2.64,2.64,0,0,0,3.23-1.29l14.54-25.42a2.32,2.32,0,0,1,2.46-1.53,93.54,93.54,0,0,0,19-1.89,2.93,2.93,0,0,1,2.86.87L622,450.89a2.85,2.85,0,0,0,3.46.77l21.37-11.42a2.85,2.85,0,0,0,1.29-3.3l-7.91-28.26a2.94,2.94,0,0,1,.87-2.86A93,93,0,0,0,653.21,391a3.14,3.14,0,0,1,2.64-1.19l29.22,2a2.65,2.65,0,0,0,2.87-2l7.11-23.42a2.65,2.65,0,0,0-1.29-3.23l-25.43-14.54a2.3,2.3,0,0,1-1.53-2.45,92.67,92.67,0,0,0-1.89-19,2.94,2.94,0,0,1,.87-2.87l22.28-19.09a2.85,2.85,0,0,0,.77-3.46l-11.42-21.37a2.85,2.85,0,0,0-3.3-1.29l-28.27,7.9a2.94,2.94,0,0,1-2.86-.86,92.87,92.87,0,0,0-14.78-12.16,3.12,3.12,0,0,1-1.19-2.64l2-29.21a2.65,2.65,0,0,0-2-2.87l-23.42-7.11a2.65,2.65,0,0,0-3.24,1.29l-14.88,25.6a2.29,2.29,0,0,1-2.45,1.53,93.47,93.47,0,0,0-19.05,1.89,2.93,2.93,0,0,1-2.86-.86l-19.1-22.28a2.85,2.85,0,0,0-3.46-.77l-21.71,11.6a2.85,2.85,0,0,0-1.29,3.3l7.9,28.26a2.94,2.94,0,0,1-.86,2.86,92.93,92.93,0,0,0-12.17,14.78,3.08,3.08,0,0,1-2.63,1.19l-29.22-2.05a2.65,2.65,0,0,0-2.87,2L468.67,324a2.64,2.64,0,0,0,1.29,3.23l25.61,14.88a2.31,2.31,0,0,1,1.53,2.45A92.83,92.83,0,0,0,499,363.56a3,3,0,0,1-.87,2.86l-22.28,19.09a2.85,2.85,0,0,0-.77,3.46l11.6,21.71A2.85,2.85,0,0,0,490,412l28.27-7.9a2.94,2.94,0,0,1,2.86.86,92.34,92.34,0,0,0,14.78,12.16,3.12,3.12,0,0,1,1.19,2.64L535,448.94C534.89,450.32,535.69,451.42,537.31,450.77Zm34.12-70.26A36.52,36.52,0,1,1,617,356.18,36.49,36.49,0,0,1,571.43,380.51Z"/><ellipse class="cls-5" cx="477.59" cy="647.93" rx="67.85" ry="67.87" transform="translate(-170.96 1124.67) rotate(-89.93)"/><path class="cls-6" d="M660.26,1074a733.9,733.9,0,0,0,63-49.6A776,776,0,0,0,865.3,857.67a869.4,869.4,0,0,0,80.62-162.8"/><path class="cls-7" d="M1010,390.92q2.67-35.43,3.53-72.08l-353.3-196.4"/></g></svg>