<svg id="Layer_1" data-name="Layer 1" xmlns="http://www.w3.org/2000/svg" xmlns:xlink="http://www.w3.org/1999/xlink" viewBox="0 0 1200 1200"><defs><style>.cls-1{fill:#c4c5c1;}.cls-1,.cls-2{fill-rule:evenodd;}.cls-2{fill:none;stroke-linecap:round;stroke-linejoin:round;}.cls-2,.cls-4{stroke:#262626;stroke-width:40px;}.cls-3{fill:#262626;}.cls-4{stroke-miterlimit:10;fill:url(#New_Gradient_Swatch);}.cls-5{fill:#858585;}</style><linearGradient id="New_Gradient_Swatch" x1="5872.65" y1="3192.58" x2="6298.07" y2="3192.58" gradientTransform="translate(6850.69 -1920.52) rotate(130.33)" gradientUnits="userSpaceOnUse"><stop offset="0" stop-color="#24ae1d"/><stop offset="1" stop-color="#89df00"/></linearGradient></defs><path class="cls-1" d="M660.26,122.44V1074a733.9,733.9,0,0,0,63-49.6A776,776,0,0,0,865.3,857.67c93.49-147,143.3-328.12,148.26-538.83ZM862.35,524a50.45,50.45,0,1,1-20.52-68.31A50.42,50.42,0,0,1,862.35,524Z"/><path class="cls-2" d="M600,20,125.77,283.64c0,527.27,210.77,790.91,474.23,896.36,210.77-105.45,474.23-369.09,474.23-896.36Z"/><path class="cls-3" d="M728.63,630.36l29.78,16a3.65,3.65,0,0,0,4.73-.87l26.63-30.45a3.17,3.17,0,0,1,3.74-1.4,128.79,128.79,0,0,0,26.31,2.63,4.07,4.07,0,0,1,3.64,2l19.78,35.38a3.93,3.93,0,0,0,4.48,2l32-9.62a3.94,3.94,0,0,0,2.65-4.12l-3-40.42a4.05,4.05,0,0,1,2-3.64,128.58,128.58,0,0,0,20.5-16.7,4.3,4.3,0,0,1,3.89-.89l39,10.75a3.66,3.66,0,0,0,4.43-1.88l16-29.77a3.65,3.65,0,0,0-.87-4.73L933.91,528a3.18,3.18,0,0,1-1.4-3.74,128.09,128.09,0,0,0,2.64-26.3,4.05,4.05,0,0,1,2-3.64l35.39-19.78a3.93,3.93,0,0,0,2-4.48l-9.62-32a4,4,0,0,0-4.13-2.64l-40.42,3a4.09,4.09,0,0,1-3.64-2,128.58,128.58,0,0,0-16.7-20.5,4.31,4.31,0,0,1-.89-3.89l10.75-39a3.66,3.66,0,0,0-1.88-4.43l-29.78-16a3.65,3.65,0,0,0-4.73.87L846.29,384a3.19,3.19,0,0,1-3.74,1.4,128.25,128.25,0,0,0-26.31-2.64,4.05,4.05,0,0,1-3.64-2l-19.78-35.38a3.94,3.94,0,0,0-4.48-2l-32.56,9.78a3.93,3.93,0,0,0-2.65,4.12l3,40.42a4.06,4.06,0,0,1-2,3.64,128,128,0,0,0-20.5,16.7,4.3,4.3,0,0,1-3.89.89l-39-10.75a3.66,3.66,0,0,0-4.43,1.88l-16,29.77a3.65,3.65,0,0,0,.87,4.73l30.61,27.14a3.16,3.16,0,0,1,1.4,3.74,128.76,128.76,0,0,0-2.63,26.3,4.07,4.07,0,0,1-2,3.64l-35.39,19.77a3.94,3.94,0,0,0-2,4.48L671,562.25a3.93,3.93,0,0,0,4.12,2.65l40.43-3a4.06,4.06,0,0,1,3.64,2,128.48,128.48,0,0,0,16.7,20.5,4.3,4.3,0,0,1,.89,3.89l-10.75,39C725.48,629.09,726.27,630.8,728.63,630.36ZM794,544.53A50.44,50.44,0,1,1,862.35,524,50.41,50.41,0,0,1,794,544.53Z"/><path class="cls-4" d="M363.35,829.4l43.59-32.6a5.82,5.82,0,0,1,5.32-.79,172.21,172.21,0,0,0,33.87,10.86,5.48,5.48,0,0,1,4.24,3.6l16.08,52.1a5.31,5.31,0,0,0,5.34,3.87l45.59-3.72A5.31,5.31,0,0,0,522,858l7.42-54a5.46,5.46,0,0,1,3.6-4.24,172.91,172.91,0,0,0,31.66-16.21,4.29,4.29,0,0,1,5.37-.08l49,25a4.91,4.91,0,0,0,6.35-1.24l29.44-34.66a4.92,4.92,0,0,0,.19-6.47l-32.6-43.58a5.79,5.79,0,0,1-.79-5.32,173.46,173.46,0,0,0,10.86-33.86,5.46,5.46,0,0,1,3.6-4.24l52.11-16.08a5.31,5.31,0,0,0,3.87-5.34l-3.73-45.58a5.28,5.28,0,0,0-4.68-4.64l-54-7.42a5.43,5.43,0,0,1-4.23-3.6,172.91,172.91,0,0,0-16.21-31.66,4.28,4.28,0,0,1-.08-5.37l25-49a4.91,4.91,0,0,0-1.24-6.35l-34.67-29.44a4.93,4.93,0,0,0-6.47-.19l-43.59,32.6a5.8,5.8,0,0,1-5.31.79A172.08,172.08,0,0,0,509,497a5.49,5.49,0,0,1-4.24-3.6l-16.08-52.1a5.31,5.31,0,0,0-5.34-3.87l-44.87,3.67a5.28,5.28,0,0,0-4.64,4.68l-7.42,54a5.45,5.45,0,0,1-3.6,4.23,173,173,0,0,0-31.67,16.21,4.29,4.29,0,0,1-5.37.08l-48.3-25.1a4.91,4.91,0,0,0-6.35,1.24l-29.44,34.67a4.9,4.9,0,0,0-.19,6.46l32.6,43.59a5.77,5.77,0,0,1,.79,5.31,172.21,172.21,0,0,0-10.86,33.87,5.49,5.49,0,0,1-3.6,4.24L268.35,640.7a5.31,5.31,0,0,0-3.87,5.33l3.66,44.87a5.3,5.3,0,0,0,4.69,4.64l54,7.42a5.43,5.43,0,0,1,4.23,3.6,172.91,172.91,0,0,0,16.21,31.66,4.28,4.28,0,0,1,.08,5.37l-25.1,48.29a4.91,4.91,0,0,0,1.24,6.35l34.67,29.44C358.81,830.84,361.33,831,363.35,829.4ZM425.85,608a67.86,67.86,0,1,1,7.81,95.64A67.82,67.82,0,0,1,425.85,608Z"/><path class="cls-5" d="M537.31,450.77l23.42,7.11a2.64,2.64,0,0,0,3.23-1.29l14.54-25.42a2.32,2.32,0,0,1,2.46-1.53,93.54,93.54,0,0,0,19-1.89,2.93,2.93,0,0,1,2.86.87L622,450.89a2.85,2.85,0,0,0,3.46.77l21.37-11.42a2.85,2.85,0,0,0,1.29-3.3l-7.91-28.26a2.94,2.94,0,0,1,.87-2.86A93,93,0,0,0,653.21,391a3.14,3.14,0,0,1,2.64-1.19l29.22,2a2.65,2.65,0,0,0,2.87-2l7.11-23.42a2.65,2.65,0,0,0-1.29-3.23l-25.43-14.54a2.3,2.3,0,0,1-1.53-2.45,92.67,92.67,0,0,0-1.89-19,2.94,2.94,0,0,1,.87-2.87l22.28-19.09a2.85,2.85,0,0,0,.77-3.46l-11.42-21.37a2.85,2.85,0,0,0-3.3-1.29l-28.27,7.9a2.94,2.94,0,0,1-2.86-.86,92.87,92.87,0,0,0-14.78-12.16,3.12,3.12,0,0,1-1.19-2.64l2-29.21a2.65,2.65,0,0,0-2-2.87l-23.42-7.11a2.65,2.65,0,0,0-3.24,1.29l-14.88,25.6a2.29,2.29,0,0,1-2.45,1.53,93.47,93.47,0,0,0-19.05,1.89,2.93,2.93,0,0,1-2.86-.86l-19.1-22.28a2.85,2.85,0,0,0-3.46-.77l-21.71,11.6a2.85,2.85,0,0,0-1.29,3.3l7.9,28.26a2.94,2.94,0,0,1-.86,2.86,92.93,92.93,0,0,0-12.17,14.78,3.08,3.08,0,0,1-2.63,1.19l-29.22-2.05a2.65,2.65,0,0,0-2.87,2L468.67,324a2.64,2.64,0,0,0,1.29,3.23l25.61,14.88a2.31,2.31,0,0,1,1.53,2.45A92.83,92.83,0,0,0,499,363.56a3,3,0,0,1-.87,2.86l-22.28,19.09a2.85,2.85,0,0,0-.77,3.46l11.6,21.71A2.85,2.85,0,0,0,490,412l28.27-7.9a2.94,2.94,0,0,1,2.86.86,92.34,92.34,0,0,0,14.78,12.16,3.12,3.12,0,0,1,1.19,2.64L535,448.94C534.89,450.32,535.69,451.42,537.31,450.77Zm34.12-70.26A36.52,36.52,0,1,1,617,356.18,36.49,36.49,0,0,1,571.43,380.51Z"/></svg>