<?xml version="1.0" encoding="utf-8"?>
<!-- Generator: Adobe Illustrator 19.0.0, SVG Export Plug-In . SVG Version: 6.00 Build 0)  -->
<svg version="1.1" id="Layer_1" xmlns="http://www.w3.org/2000/svg" xmlns:xlink="http://www.w3.org/1999/xlink" x="0px" y="0px"
	 viewBox="0 0 96 96" style="enable-background:new 0 0 96 96;" xml:space="preserve">
<style type="text/css">
	.st0{fill:#C4C5C1;}
</style>
<g id="XMLID_1_">
	<path id="XMLID_7_" class="st0" d="M71.2,34.1c0-5.2-4.1-9.3-9.3-9.3s-9.3,4.1-9.3,9.3c0,3.4,1.9,6.4,4.6,8v1.4
		c-0.1,2.4-1.1,4.5-2.9,6.4c-1.9,1.9-4,2.8-6.4,2.9c-3.9,0.1-6.9,0.7-9.3,2.1V32.8c2.7-1.6,4.6-4.5,4.6-8c0-5.2-4.1-9.3-9.3-9.3
		s-9.2,4.1-9.2,9.3c0,3.4,1.9,6.4,4.6,8v30.5c-2.7,1.6-4.6,4.6-4.6,8c0,5.2,4.1,9.3,9.3,9.3s9.3-4.1,9.3-9.3c0-2.5-0.9-4.6-2.5-6.3
		c0.4-0.3,2.2-1.9,2.7-2.2c1.2-0.5,2.6-0.8,4.4-0.8c4.9-0.2,9.1-2.1,12.8-5.8s5.6-9.2,5.8-14h-0.1C69.3,40.4,71.2,37.5,71.2,34.1z
		 M34.1,19.2c3.1,0,5.6,2.6,5.6,5.6s-2.6,5.6-5.6,5.6c-3,0-5.6-2.6-5.6-5.6S31.1,19.2,34.1,19.2z M34.1,76.8c-3.1,0-5.6-2.6-5.6-5.6
		c0-3,2.6-5.6,5.6-5.6c3,0,5.6,2.6,5.6,5.6C39.6,74.3,37.1,76.8,34.1,76.8z M61.9,39.7c-3.1,0-5.6-2.6-5.6-5.6c0-3,2.6-5.6,5.6-5.6
		c3,0,5.6,2.6,5.6,5.6C67.5,37.1,64.9,39.7,61.9,39.7z"/>
</g>
</svg>
