<svg xmlns="http://www.w3.org/2000/svg" xmlns:xlink="http://www.w3.org/1999/xlink" width="100" height="100" viewBox="0 0 100 100"><g><g transform="translate(50 50) scale(0.69 0.69) rotate(0) translate(-50 -50)" style="fill:#1A1A1A"><svg fill="#1A1A1A" xmlns="http://www.w3.org/2000/svg" xmlns:xlink="http://www.w3.org/1999/xlink" version="1.1" x="0px" y="0px" viewBox="0 0 66 66" enable-background="new 0 0 66 66" xml:space="preserve"><g><g><path d="M33.9,34.6c9.1,0,16.4-7.4,16.4-16.4c0-9.1-7.4-16.4-16.4-16.4c-9.1,0-16.4,7.4-16.4,16.4C17.5,27.2,24.9,34.6,33.9,34.6z     M21.8,25.8H27c0.6,2.5,1.5,4.5,2.6,6C26.3,30.8,23.6,28.7,21.8,25.8z M33.9,3.7c1.8,0,3.8,2.6,4.9,6.7H29    C30.2,6.3,32.1,3.7,33.9,3.7z M39.3,12.4c0.3,1.4,0.4,3,0.5,4.7H28.1c0-1.7,0.2-3.3,0.5-4.7H39.3z M48.3,17.1h-6.5    c0-1.6-0.2-3.2-0.5-4.7h5.8C47.8,13.9,48.2,15.5,48.3,17.1z M33.9,32.6c-1.8,0-3.8-2.6-4.9-6.7h9.8C37.7,30,35.8,32.6,33.9,32.6z     M28.6,23.8c-0.3-1.4-0.4-3-0.5-4.7h11.7c0,1.7-0.2,3.3-0.5,4.7H28.6z M41.8,19.1h6.5c-0.1,1.7-0.5,3.2-1.1,4.7h-5.8    C41.6,22.4,41.7,20.8,41.8,19.1z M26.1,17.1h-6.5c0.1-1.7,0.5-3.2,1.1-4.7h5.8C26.3,13.9,26.1,15.5,26.1,17.1z M26.1,19.1    c0,1.6,0.2,3.2,0.5,4.7h-5.8c-0.6-1.5-1-3-1.1-4.7H26.1z M38.3,31.9c1.1-1.5,2-3.6,2.6-6h5.2C44.3,28.7,41.5,30.8,38.3,31.9z     M46.1,10.4h-5.2c-0.6-2.5-1.5-4.5-2.6-6C41.5,5.4,44.3,7.6,46.1,10.4z M29.6,4.4c-1.1,1.5-2,3.6-2.6,6h-5.2    C23.6,7.6,26.3,5.4,29.6,4.4z"></path></g><g><path d="M24.1,58h-0.6V46.6c0-0.6-0.4-1-1-1h-19c-0.6,0-1,0.4-1,1V58H2c-0.6,0-1,0.4-1,1c0,2.9,2.3,5.2,5.2,5.2h13.7    c2.9,0,5.2-2.3,5.2-5.2C25.1,58.5,24.7,58,24.1,58z M4.6,47.6h17V58h-17V47.6z M19.9,62.3H6.2c-1.4,0-2.7-0.9-3.1-2.2    c6.6,0,13.2,0,19.8,0C22.6,61.3,21.3,62.3,19.9,62.3z"></path></g><g><path d="M64,58h-0.6V46.6c0-0.6-0.4-1-1-1h-19c-0.6,0-1,0.4-1,1V58h-0.6c-0.6,0-1,0.4-1,1c0,2.9,2.3,5.2,5.2,5.2h13.7    c2.9,0,5.2-2.3,5.2-5.2C65,58.5,64.6,58,64,58z M44.4,47.6h17V58h-17V47.6z M59.8,62.3H46.1c-1.4,0-2.7-0.9-3.1-2.2    c5.7,0,12.7,0,19.8,0C62.4,61.3,61.2,62.3,59.8,62.3z"></path></g><g><path d="M51.9,43.3c0,0.6,0.4,1,1,1c0.6,0,1-0.4,1-1v-2.7c0-0.6-0.4-1-1-1H35V36c0-0.6-0.4-1-1-1c-0.6,0-1,0.4-1,1v3.6H13.1    c-0.6,0-1,0.4-1,1v2.7c0,0.6,0.4,1,1,1c0.6,0,1-0.4,1-1v-1.7H34h17.9V43.3z"></path></g></g></svg></g></g></svg>