<svg xmlns="http://www.w3.org/2000/svg" xmlns:xlink="http://www.w3.org/1999/xlink" width="100" height="100" viewBox="0 0 100 100"><g><g transform="translate(50 50) scale(0.69 0.69) rotate(0) translate(-50 -50)" style="fill:#000000"><svg fill="#000000" xmlns="http://www.w3.org/2000/svg" xmlns:xlink="http://www.w3.org/1999/xlink" version="1.1" x="0px" y="0px" viewBox="0 0 66 66" enable-background="new 0 0 66 66" xml:space="preserve"><g><g><path d="M64,21.7H33c-0.6,0-1,0.4-1,1v19.7h-9.5c0-7.2,0-25.2,0-32.4h1c0.6,0,1-0.4,1-1V8.7h23v3.6c0,0.6,0.4,1,1,1    c0.9,0,1.7,0.8,1.7,1.7c0,0.9-0.8,1.7-1.7,1.7c-0.9,0-1.7-0.8-1.7-1.7c0-0.6-0.4-1-1-1c-0.6,0-1,0.4-1,1c0,2,1.7,3.7,3.7,3.7    c2,0,3.7-1.7,3.7-3.7c0-1.7-1.1-3.1-2.7-3.5V8.7h6.2c1.8,0,3.3-1.5,3.3-3.3s-1.5-3.3-3.3-3.3H24.5V1.8c0-0.6-0.4-1-1-1h-12    c-0.6,0-1,0.4-1,1v7.2c0,0.6,0.4,1,1,1h1v32.4H2c-0.6,0-1,0.4-1,1v20.7c0,0.6,0.4,1,1,1c7.5,0,54.4,0,62,0c0.6,0,1-0.4,1-1    c0-13.9,0-27.7,0-41.5C65,22.1,64.6,21.7,64,21.7z M34,23.7h29v18.7H34V23.7z M20.5,24.2L15.1,20l5.4-4.2V24.2z M19.9,26.3    l-5.4,4.2v-8.4L19.9,26.3z M20.5,28.3v8.4l-5.4-4.2L20.5,28.3z M55.7,4.2c0.7,0,1.3,0.6,1.3,1.3c0,0.7-0.6,1.3-1.3,1.3H24.5V4.2    H55.7z M12.5,2.8h10c0,2.1,0,3.2,0,5.2c-1.4,0-7.6,0-10,0V2.8z M20.5,10.1v3.2l-6,4.7v-7.9H20.5z M14.5,34.6l6,4.7v3.2h-6V34.6z     M3,44.4c9.4,0,19.7,0,29,0v18.7H3V44.4z M63,63.2H34V44.4h29V63.2z"></path></g><g><path d="M39.5,27.1c-0.6,0-1,0.4-1,1v10c0,0.6,0.4,1,1,1c0.6,0,1-0.4,1-1v-10C40.5,27.5,40.1,27.1,39.5,27.1z"></path></g><g><path d="M45.5,27.1c-0.6,0-1,0.4-1,1v10c0,0.6,0.4,1,1,1c0.6,0,1-0.4,1-1v-10C46.5,27.5,46.1,27.1,45.5,27.1z"></path></g><g><path d="M51.5,27.1c-0.6,0-1,0.4-1,1v10c0,0.6,0.4,1,1,1c0.6,0,1-0.4,1-1v-10C52.5,27.5,52.1,27.1,51.5,27.1z"></path></g><g><path d="M57.5,27.1c-0.6,0-1,0.4-1,1v10c0,0.6,0.4,1,1,1c0.6,0,1-0.4,1-1v-10C58.5,27.5,58.1,27.1,57.5,27.1z"></path></g><g><path d="M39.5,59.8c0.6,0,1-0.4,1-1v-10c0-0.6-0.4-1-1-1c-0.6,0-1,0.4-1,1v10C38.5,59.4,38.9,59.8,39.5,59.8z"></path></g><g><path d="M45.5,59.8c0.6,0,1-0.4,1-1v-10c0-0.6-0.4-1-1-1c-0.6,0-1,0.4-1,1v10C44.5,59.4,44.9,59.8,45.5,59.8z"></path></g><g><path d="M51.5,59.8c0.6,0,1-0.4,1-1v-10c0-0.6-0.4-1-1-1c-0.6,0-1,0.4-1,1v10C50.5,59.4,50.9,59.8,51.5,59.8z"></path></g><g><path d="M57.5,59.8c0.6,0,1-0.4,1-1v-10c0-0.6-0.4-1-1-1c-0.6,0-1,0.4-1,1v10C56.5,59.4,56.9,59.8,57.5,59.8z"></path></g><g><path d="M8.5,47.8c-0.6,0-1,0.4-1,1v10c0,0.6,0.4,1,1,1c0.6,0,1-0.4,1-1v-10C9.5,48.3,9.1,47.8,8.5,47.8z"></path></g><g><path d="M14.5,47.8c-0.6,0-1,0.4-1,1v10c0,0.6,0.4,1,1,1c0.6,0,1-0.4,1-1v-10C15.5,48.3,15.1,47.8,14.5,47.8z"></path></g><g><path d="M20.5,47.8c-0.6,0-1,0.4-1,1v10c0,0.6,0.4,1,1,1c0.6,0,1-0.4,1-1v-10C21.5,48.3,21.1,47.8,20.5,47.8z"></path></g><g><path d="M26.5,47.8c-0.6,0-1,0.4-1,1v10c0,0.6,0.4,1,1,1c0.6,0,1-0.4,1-1v-10C27.5,48.3,27.1,47.8,26.5,47.8z"></path></g></g></svg></g></g></svg>