<svg xmlns="http://www.w3.org/2000/svg" xmlns:xlink="http://www.w3.org/1999/xlink" width="100" height="100" viewBox="0 0 100 100"><g><g transform="translate(50 50) scale(0.69 0.69) rotate(0) translate(-50 -50)" style="fill:#000000"><svg fill="#000000" xmlns:dc="http://purl.org/dc/elements/1.1/" xmlns:cc="http://creativecommons.org/ns#" xmlns:rdf="http://www.w3.org/1999/02/22-rdf-syntax-ns#" xmlns:svg="http://www.w3.org/2000/svg" xmlns="http://www.w3.org/2000/svg" xmlns:sodipodi="http://sodipodi.sourceforge.net/DTD/sodipodi-0.dtd" xmlns:inkscape="http://www.inkscape.org/namespaces/inkscape" version="1.1" viewBox="0 0 100 100" x="0px" y="0px"><path style="color:#000000;font-style:normal;font-variant:normal;font-weight:normal;font-stretch:normal;font-size:medium;line-height:normal;font-family:sans-serif;text-indent:0;text-align:start;text-decoration:none;text-decoration-line:none;text-decoration-style:solid;text-decoration-color:#000000;letter-spacing:normal;word-spacing:normal;text-transform:none;direction:ltr;block-progression:tb;writing-mode:lr-tb;baseline-shift:baseline;text-anchor:start;white-space:normal;clip-rule:nonzero;display:inline;overflow:visible;visibility:visible;opacity:1;isolation:auto;mix-blend-mode:normal;color-interpolation:sRGB;color-interpolation-filters:linearRGB;solid-color:#000000;solid-opacity:1;fill:#000000;fill-opacity:1;fill-rule:nonzero;stroke:none;stroke-width:1;stroke-linecap:round;stroke-linejoin:miter;stroke-miterlimit:4;stroke-dasharray:none;stroke-dashoffset:0;stroke-opacity:1;color-rendering:auto;image-rendering:auto;shape-rendering:auto;text-rendering:auto;enable-background:accumulate" d="m 71.751953,24.631836 4.5,4.5 -68.4999999,0 0,3 68.4999999,0 -4.5,4.5 15.75,-4.5 0.25,0 0,-0.07227 5,-1.427734 -5,-1.427734 0,-0.07227 -0.25,0 -15.75,-4.5 z m -59.439453,21.25 0,0.01367 C 10.056236,45.989983 8.1103804,47.730681 6.7421875,50.338867 5.3499744,52.992843 4.5086902,56.59042 4.5,60.557617 c -0.00869,3.967198 0.817393,7.575428 2.1972656,10.25 1.3322993,2.582363 3.2230764,4.331226 5.4277344,4.515625 l 0,0.0293 75,0 0,-0.01953 c 0.125292,0.01041 0.247777,0.03516 0.375,0.03516 2.327543,0 4.339981,-1.766365 5.746094,-4.435547 C 94.652206,68.263436 95.5,64.634459 95.5,60.631836 95.5,56.629213 94.652206,53.000236 93.246094,50.331055 91.839981,47.661873 89.827543,45.895508 87.5,45.895508 c -0.06361,0 -0.124365,0.01496 -0.1875,0.01758 l 0,-0.03125 -75,0 z m 0.132812,1 72.169922,0 C 83.50921,47.659322 82.535369,48.847627 81.753906,50.331055 80.347794,53.000236 79.5,56.629213 79.5,60.631836 c 0,4.002623 0.847794,7.6316 2.253906,10.300781 0.771415,1.464353 1.73005,2.641616 2.81836,3.419922 l -72.181641,0 C 10.592239,74.295538 8.8714726,72.842307 7.5859375,70.350586 6.3004024,67.858865 5.4916191,64.385584 5.5,60.55957 5.5083809,56.733557 6.3331707,53.273772 7.6289062,50.803711 8.9246419,48.33365 10.646949,46.910441 12.445312,46.881836 Z M 87.5,46.895508 c 1.814592,0 3.552974,1.418734 4.861328,3.902344 1.308354,2.483609 2.138672,5.973712 2.138672,9.833984 0,3.860272 -0.830318,7.350375 -2.138672,9.833984 -1.308354,2.48361 -3.046736,3.902344 -4.861328,3.902344 -1.814592,0 -3.552974,-1.418734 -4.861328,-3.902344 C 81.330318,67.982211 80.5,64.492108 80.5,60.631836 c 0,-3.860272 0.830318,-7.350375 2.138672,-9.833984 1.308354,-2.48361 3.046736,-3.902344 4.861328,-3.902344 z m -15.921875,1.152344 -6.636719,3.832031 0,7.664062 0.25,0.144532 6.386719,3.6875 6.636719,-3.832032 0,-7.664062 -6.636719,-3.832031 z m -32.185547,0.867187 -6.636719,3.832031 0,7.664063 0.25,0.144531 6.386719,3.6875 6.636719,-3.832031 0,-7.664063 -6.636719,-3.832031 z m 32.185547,0.287109 5.136719,2.964844 -5.136719,2.966797 -5.136719,-2.966797 5.136719,-2.964844 z m -32.185547,0.867188 5.136719,2.964844 -5.136719,2.966797 -5.136719,-2.966797 5.136719,-2.964844 z m 26.548828,2.964844 5.136719,2.964844 0,5.93164 -5.136719,-2.964844 0,-5.93164 z m 11.273438,0 0,5.93164 -5.136719,2.964844 0,-5.93164 5.136719,-2.964844 z m -43.458985,0.867187 5.136719,2.964844 0,5.931641 -5.136719,-2.964844 0,-5.931641 z m 11.273438,0 0,5.931641 -5.136719,2.964844 0,-5.931641 5.136719,-2.964844 z m -23.548828,1.232422 -6.636719,3.832031 0,7.664063 0.25,0.144531 6.386719,3.6875 6.636719,-3.832031 0,-7.664063 -6.636719,-3.832031 z m 0,1.154297 5.136719,2.964844 -5.136719,2.966797 -5.136719,-2.966797 5.136719,-2.964844 z m 33.753906,1.195312 -6.636719,3.832032 0,7.664062 0.25,0.144532 6.386719,3.6875 6.636719,-3.832032 0,-7.664062 -6.636719,-3.832032 z m 0,1.154297 5.136719,2.964844 -5.136719,2.966797 -5.136719,-2.966797 5.136719,-2.964844 z m -39.390625,1.482422 5.136719,2.964844 0,5.931641 -5.136719,-2.964844 0,-5.931641 z m 11.273438,0 0,5.931641 -5.136719,2.964844 0,-5.931641 5.136719,-2.964844 z m 22.480468,2.34961 5.136719,2.964843 0,5.931641 -5.136719,-2.964844 0,-5.93164 z m 11.273438,0 0,5.93164 -5.136719,2.964844 0,-5.931641 5.136719,-2.964843 z"></path></svg></g></g></svg>