<svg xmlns="http://www.w3.org/2000/svg" xmlns:xlink="http://www.w3.org/1999/xlink" viewBox="0 0 1200 1200"><defs><style>.cls-1{fill:#858585;}.cls-2{fill:url(#New_Gradient_Swatch);}.cls-3,.cls-4,.cls-5{fill:none;stroke-miterlimit:10;stroke-width:40px;}.cls-3,.cls-5{stroke:#f8f8f8;}.cls-4{stroke:url(#New_Gradient_Swatch-2);}.cls-5{stroke-linecap:round;}.cls-6{fill:url(#New_Gradient_Swatch-3);}</style><linearGradient id="New_Gradient_Swatch" x1="-297.76" y1="-831.21" x2="338.74" y2="-831.21" gradientTransform="translate(450.89 1116.61) rotate(25.51)" gradientUnits="userSpaceOnUse"><stop offset="0" stop-color="#24ae1d"/><stop offset="1" stop-color="#89df00"/></linearGradient><linearGradient id="New_Gradient_Swatch-2" x1="200.47" y1="859.35" x2="584.97" y2="859.35" gradientTransform="matrix(1, 0, 0, 1, 0, 0)" xlink:href="#New_Gradient_Swatch"/><linearGradient id="New_Gradient_Swatch-3" x1="-1392.69" y1="-671.63" x2="-1281.73" y2="-671.63" gradientTransform="translate(1499.81 1761.1)" xlink:href="#New_Gradient_Swatch"/></defs><g id="Layer_3" data-name="Layer 3"><path class="cls-1" d="M531.3,322.58l-59-13.49a6.42,6.42,0,0,1-4.5-3.94,192.06,192.06,0,0,0-15.17-36.53,6.06,6.06,0,0,1,0-6.18l32.59-51.14a5.89,5.89,0,0,0-.56-7.31l-36-36a5.9,5.9,0,0,0-7.3-.56l-51.15,32.6a6.08,6.08,0,0,1-6.18,0,192.46,192.46,0,0,0-36.53-15.18,4.75,4.75,0,0,1-3.93-4.49l-14-59.57a5.47,5.47,0,0,0-5.62-4.5H273.34a5.47,5.47,0,0,0-5.62,4.5l-13.49,59a6.42,6.42,0,0,1-3.94,4.49,192.08,192.08,0,0,0-36.53,15.18,6.1,6.1,0,0,1-6.18,0l-51.14-32.6a5.9,5.9,0,0,0-7.31.56l-36,36a5.9,5.9,0,0,0-.57,7.31l32.6,51.14a6.08,6.08,0,0,1,0,6.18A192.06,192.06,0,0,0,130,304.59a4.78,4.78,0,0,1-4.5,3.94L66,322.58a5.47,5.47,0,0,0-4.5,5.62v50.58A5.48,5.48,0,0,0,66,384.4l59,13.48a6.42,6.42,0,0,1,4.49,3.94,192.73,192.73,0,0,0,15.18,36.53,6.1,6.1,0,0,1,0,6.18L112,495.67a5.91,5.91,0,0,0,.56,7.31L148,538.39a5.91,5.91,0,0,0,7.31.56l51.14-32.6a6.08,6.08,0,0,1,6.18,0,192.46,192.46,0,0,0,36.53,15.18A4.75,4.75,0,0,1,253.1,526l13.49,59a5.47,5.47,0,0,0,5.62,4.5h50.58a5.47,5.47,0,0,0,5.62-4.5l13.49-59a6.4,6.4,0,0,1,3.94-4.49,192.73,192.73,0,0,0,36.53-15.18,6.1,6.1,0,0,1,6.18,0L439.69,539a5.91,5.91,0,0,0,7.31-.56L482.4,503a5.89,5.89,0,0,0,.56-7.31l-32.59-51.14a6,6,0,0,1,0-6.18,192.06,192.06,0,0,0,15.17-36.53,4.77,4.77,0,0,1,4.5-3.94l59-13.48a5.47,5.47,0,0,0,4.49-5.62V328.2C535.79,325.39,534.11,323.14,531.3,322.58ZM298.63,429a75.47,75.47,0,1,1,75.47-75.46A75.42,75.42,0,0,1,298.63,429Z"/><path class="cls-2" d="M1128.15,473.55,1064.32,423a8.61,8.61,0,0,1-3.18-7.38,258.72,258.72,0,0,0,2.74-53.14,8.2,8.2,0,0,1,3.58-7.51l69.21-43.21a7.92,7.92,0,0,0,3.55-9.2L1117.38,238a7.92,7.92,0,0,0-8.54-4.92l-81,9.95c-2.7.39-5.43-.92-7.51-3.58a257.45,257.45,0,0,0-35.56-39.59c-2.4-2-3.47-5-2.17-7.74l17.45-80.47a7.34,7.34,0,0,0-4.22-8.71L934.44,73.67A7.36,7.36,0,0,0,925,75.88l-50.56,63.83a8.67,8.67,0,0,1-7.38,3.18,258.15,258.15,0,0,0-53.15-2.74,8.18,8.18,0,0,1-7.5-3.58L763.21,67.36a7.93,7.93,0,0,0-9.2-3.55L689.5,86.64a7.92,7.92,0,0,0-4.91,8.55l9.94,81c.39,2.7-.91,5.43-3.58,7.5a258.45,258.45,0,0,0-39.58,35.57c-2,2.4-5,3.47-7.74,2.17L563.16,204a7.38,7.38,0,0,0-8.72,4.22l-29.3,61.41a7.37,7.37,0,0,0,2.2,9.43l63.84,50.57a8.62,8.62,0,0,1,3.17,7.38,258.72,258.72,0,0,0-2.74,53.14,8.2,8.2,0,0,1-3.58,7.51l-69.2,43.21a7.92,7.92,0,0,0-3.55,9.2l22.47,63.5a7.92,7.92,0,0,0,8.55,4.91l81-9.95c2.7-.38,5.43.92,7.5,3.59a258.45,258.45,0,0,0,35.57,39.58c2.4,2,3.47,5,2.17,7.74l-17.81,79.46a7.36,7.36,0,0,0,4.21,8.72l61.42,29.3a7.36,7.36,0,0,0,9.43-2.2l50.56-63.83a8.61,8.61,0,0,1,7.38-3.18,258.82,258.82,0,0,0,53.15,2.74,8.18,8.18,0,0,1,7.5,3.58l43.21,69.2a7.92,7.92,0,0,0,9.2,3.55l63.5-22.47a7.92,7.92,0,0,0,4.91-8.55l-9.94-81c-.39-2.7.91-5.42,3.58-7.5a258.51,258.51,0,0,0,39.59-35.57c2-2.4,5-3.47,7.73-2.17l79.47,17.81a7.35,7.35,0,0,0,8.71-4.21l29.3-61.42C1132,479.56,1131.24,475.86,1128.15,473.55ZM784,467.91A101.53,101.53,0,1,1,919.38,420,101.46,101.46,0,0,1,784,467.91Z"/><circle class="cls-3" cx="827.75" cy="376.28" r="101.53"/><path class="cls-1" d="M1022.8,1014.38l-35.72-43.32a6,6,0,0,1-1.07-5.44,178.64,178.64,0,0,0,9.54-35.43,5.62,5.62,0,0,1,3.5-4.54l52.9-19.12a5.47,5.47,0,0,0,3.73-5.69l-6.06-46.79a5.47,5.47,0,0,0-5-4.55l-56-5A5.61,5.61,0,0,1,984,841a178.19,178.19,0,0,0-18.25-31.84,4.42,4.42,0,0,1-.34-5.53l23.41-51.72a5.09,5.09,0,0,0-1.58-6.49l-37.17-28.64a5.08,5.08,0,0,0-6.67.12l-43.33,35.72a6,6,0,0,1-5.43,1.08,178,178,0,0,0-35.43-9.54,5.64,5.64,0,0,1-4.54-3.5l-19.12-52.91a5.46,5.46,0,0,0-5.69-3.72l-46.79,6.05a5.48,5.48,0,0,0-4.55,5l-5,56a5.64,5.64,0,0,1-3.5,4.55,177.53,177.53,0,0,0-31.84,18.24,4.42,4.42,0,0,1-5.53.35l-51.72-23.41a5.08,5.08,0,0,0-6.49,1.58l-28.64,37.16a5.09,5.09,0,0,0,.12,6.68l35.72,43.32a6,6,0,0,1,1.08,5.44,177.78,177.78,0,0,0-9.54,35.43,5.65,5.65,0,0,1-3.5,4.54l-52.91,19.11a5.48,5.48,0,0,0-3.73,5.69l6,46.06a5.45,5.45,0,0,0,5,4.55l56,5a5.64,5.64,0,0,1,4.54,3.51,178.46,178.46,0,0,0,18.25,31.83,4.43,4.43,0,0,1,.34,5.53l-23.5,51a5.07,5.07,0,0,0,1.58,6.49l37.16,28.64a5.07,5.07,0,0,0,6.67-.12l43.33-35.72a6,6,0,0,1,5.44-1.07,177.74,177.74,0,0,0,35.43,9.53,5.64,5.64,0,0,1,4.54,3.51l19.11,52.9a5.47,5.47,0,0,0,5.69,3.73l46.06-6a5.45,5.45,0,0,0,4.55-5l5-56a5.65,5.65,0,0,1,3.51-4.54,178.46,178.46,0,0,0,31.83-18.25,4.43,4.43,0,0,1,5.53-.34l51,23.51a5.09,5.09,0,0,0,6.49-1.59l28.64-37.16C1024.51,1019,1024.55,1016.38,1022.8,1014.38Zm-231.18-53.6a70,70,0,1,1,98.18-12.71A70,70,0,0,1,791.62,960.78Z"/><circle class="cls-4" cx="392.72" cy="859.35" r="172.25"/><path class="cls-5" d="M443.33,808.74a71.66,71.66,0,0,1,15.4,22.84"/><path class="cls-5" d="M320.42,931.65a102.25,102.25,0,0,1,72.3-174.55"/><rect class="cls-6" x="107.12" y="1049.74" width="110.96" height="79.46" rx="20" transform="translate(818 204.12) rotate(45)"/></g></svg>