<svg xmlns="http://www.w3.org/2000/svg" xmlns:xlink="http://www.w3.org/1999/xlink" width="100" height="100" viewBox="0 0 100 100"><g><g transform="translate(50 50) scale(0.69 0.69) rotate(0) translate(-50 -50)" style="fill:#1A1A1A"><svg fill="#1A1A1A" xmlns="http://www.w3.org/2000/svg" xmlns:xlink="http://www.w3.org/1999/xlink" version="1.1" x="0px" y="0px" viewBox="0 0 100 100" enable-background="new 0 0 100 100" xml:space="preserve"><path d="M10.648,66.982V53.014h5.747c1.271,0,2.277,0.075,3.021,0.223c0.743,0.148,1.364,0.387,1.863,0.716  c0.645,0.436,1.125,0.977,1.441,1.622c0.316,0.645,0.474,1.41,0.474,2.295c0,1.562-0.461,2.758-1.384,3.589  c-0.923,0.832-2.254,1.247-3.992,1.247h-2.684v4.277H10.648z M15.134,59.292h1.441c0.936,0,1.562-0.104,1.878-0.313  c0.316-0.208,0.474-0.579,0.474-1.109c0-0.538-0.152-0.911-0.455-1.119c-0.304-0.208-0.936-0.313-1.897-0.313h-1.441V59.292z   M24.996,66.982V53.014h4.485v10.261h6.098v3.708H24.996z M37.05,53.014h4.485v8.61c0,0.797,0.166,1.364,0.498,1.702  c0.332,0.338,0.887,0.507,1.665,0.507c0.758,0,1.3-0.166,1.626-0.498c0.326-0.332,0.489-0.902,0.489-1.712v-8.61h4.485v8.961  c0,1.751-0.564,3.088-1.693,4.011s-2.764,1.384-4.907,1.384c-2.156,0-3.803-0.463-4.94-1.389c-1.138-0.926-1.707-2.262-1.707-4.006  V53.014z M63.326,66.982l-0.218-1.204c-0.506,0.537-1.116,0.937-1.83,1.199c-0.715,0.262-1.546,0.394-2.494,0.394  c-1.998,0-3.572-0.656-4.723-1.968c-1.15-1.312-1.726-3.108-1.726-5.391c0-2.333,0.642-4.143,1.925-5.429  c1.283-1.286,3.082-1.93,5.396-1.93c1.821,0,3.289,0.452,4.405,1.356c1.115,0.904,1.778,2.178,1.986,3.822H61.79  c-0.171-0.556-0.447-0.98-0.829-1.271c-0.383-0.291-0.855-0.437-1.418-0.437c-0.897,0-1.569,0.345-2.016,1.034  c-0.445,0.689-0.668,1.716-0.668,3.082c0,1.265,0.225,2.209,0.673,2.835c0.449,0.625,1.132,0.938,2.049,0.938  c0.657,0,1.215-0.153,1.674-0.46c0.458-0.306,0.741-0.719,0.849-1.237h-2.021v-2.987h6.136v7.653H63.326z M68.855,66.982V53.014  h4.571v13.968H68.855z M76.177,66.982V53.014h4.258l3.916,6.496c0.12,0.184,0.248,0.443,0.384,0.778s0.28,0.74,0.432,1.214  c-0.038-0.247-0.066-0.519-0.085-0.815c-0.02-0.297-0.028-0.658-0.028-1.081v-6.591h4.276v13.968h-4.276l-3.917-6.448  c-0.12-0.189-0.251-0.458-0.394-0.806c-0.142-0.348-0.286-0.746-0.432-1.195c0.045,0.247,0.076,0.504,0.096,0.773  c0.019,0.269,0.028,0.646,0.028,1.133v6.543H76.177z M85.248,2.083h-6.916H21.331H7.532c-2.205,0-4,1.795-4,4v34.854v37.89v15.09  c0,2.205,1.795,4,4,4h84.931c2.205,0,4-1.795,4-4v-15.09v-37.89V14.593L85.248,2.083z M59.998,21.166h4.416  c1.381,0,2.5-1.245,2.5-2.782V5.083h8.418v19.166c0,0.552-0.449,1-1,1H33.46V5.083h24.038v13.301  C57.498,19.921,58.617,21.166,59.998,21.166z M30.46,5.083v20.166h-5.13c-0.553,0-1-0.448-1-1V5.083H30.46z M6.532,43.938h86.931  v31.89H6.532V43.938z M93.463,93.917c0,0.551-0.449,1-1,1H7.532c-0.551,0-1-0.449-1-1v-15.09h86.931V93.917z M6.532,40.938V6.083  c0-0.551,0.449-1,1-1h13.799v19.166c0,2.206,1.793,4,4,4h49.001c2.205,0,4-1.794,4-4V5.083h5.576l9.555,10.657v25.197H6.532z"></path></svg></g></g></svg>