<?xml version="1.0" encoding="utf-8"?>
<!-- Generator: Adobe Illustrator 24.2.0, SVG Export Plug-In . SVG Version: 6.00 Build 0)  -->
<svg version="1.1" id="Layer_1" xmlns="http://www.w3.org/2000/svg" xmlns:xlink="http://www.w3.org/1999/xlink" x="0px" y="0px"
	 viewBox="0 0 1200 1200" style="enable-background:new 0 0 1200 1200;" xml:space="preserve">
<style type="text/css">
	.st0{fill:#858585;}
	.st1{fill:none;stroke:#262626;stroke-width:40;stroke-linecap:round;stroke-linejoin:round;stroke-miterlimit:10;}
	.st2{clip-path:url(#SVGID_2_);fill:url(#SVGID_3_);stroke:#262626;stroke-width:40;stroke-miterlimit:10;}
</style>
<path class="st0" d="M778.6,772.5c-16.5,5.9-34.8,0.3-45.4-13.6L599.3,581l-134,177.8c-10.5,14-28.9,19.5-45.4,13.6l-235-83.6V787
	l414.3,147.4L1013.6,787v-98.1L778.6,772.5z"/>
<path class="st0" d="M599.3,286.3L185,433.7L599.3,581l414.3-147.4L599.3,286.3z M600,555.8c-52,0-94.1-42.1-94.1-94.1
	s42.1-94.1,94.1-94.1c52,0,94.1,42.1,94.1,94.1S652,555.8,600,555.8z"/>
<path class="st1" d="M1113.9,214.1L778.6,94.9c-16.5-5.9-34.8-0.3-45.4,13.6l-134,177.8l414.3,147.4l118.9-157.8
	C1148.7,254.3,1139.3,223.2,1113.9,214.1z"/>
<path class="st1" d="M84.6,214.1L419.9,94.9c16.5-5.9,34.8-0.3,45.4,13.6l134,177.8L185,433.7L66.1,275.9
	C49.8,254.3,59.2,223.2,84.6,214.1z"/>
<path class="st1" d="M1013.6,688.9v266.5c0,16.9-10.7,32-26.6,37.7l-374.3,133.1c-8.7,3.1-18.1,3.1-26.8,0L211.6,993.1
	c-15.9-5.7-26.6-20.8-26.6-37.7V688.9"/>
<line class="st1" x1="599.3" y1="581" x2="599.3" y2="1126.9"/>
<g>
	<defs>
		<path id="SVGID_1_" d="M185,433.7L349.5,223C476.4,60.5,722.1,60.5,849,223l164.6,210.7L599.3,581L185,433.7z"/>
	</defs>
	<clipPath id="SVGID_2_">
		<use xlink:href="#SVGID_1_"  style="overflow:visible;"/>
	</clipPath>
	<linearGradient id="SVGID_3_" gradientUnits="userSpaceOnUse" x1="304.1996" y1="460.9333" x2="894.3093" y2="460.9333">
		<stop  offset="0" style="stop-color:#24AE1D"/>
		<stop  offset="1" style="stop-color:#89DF00"/>
	</linearGradient>
	<path class="st2" d="M890.2,423.1l-73.6-16.8c-2.8-0.7-4.9-2.8-5.6-4.9c-4.9-16.1-11.2-31.5-18.9-45.6c-1.4-2.1-1.4-5.6,0-7.7
		l40.7-63.8c2.1-2.8,1.4-7-0.7-9.1l-44.9-44.9c-2.1-2.1-6.3-2.8-9.1-0.7l-63.8,40.7c-2.1,1.4-4.9,1.4-7.7,0
		c-14-7.7-29.4-14-45.6-18.9c-2.8-0.7-4.9-2.8-4.9-5.6l-17.5-74.3c-0.7-3.5-3.5-5.6-7-5.6h-63.1c-3.5,0-6.3,2.1-7,5.6L544.6,245
		c-0.7,2.8-2.8,4.9-4.9,5.6c-16.1,4.9-31.5,11.2-45.6,18.9c-2.1,1.4-5.6,1.4-7.7,0l-63.8-40.7c-2.8-2.1-7-1.4-9.1,0.7l-44.9,44.9
		c-2.1,2.1-2.8,6.3-0.7,9.1l40.7,63.8c1.4,2.1,1.4,4.9,0,7.7c-7.7,14-14,29.4-18.9,45.6c-0.7,2.8-2.8,4.9-5.6,4.9l-74.3,17.5
		c-3.5,0.7-5.6,3.5-5.6,7v63.1c0,3.5,2.1,6.3,5.6,7l73.6,16.8c2.8,0.7,4.9,2.8,5.6,4.9c4.9,16.1,11.2,31.5,18.9,45.6
		c1.4,2.1,1.4,5.6,0,7.7L367.3,639c-2.1,2.8-1.4,7,0.7,9.1l44.2,44.2c2.1,2.1,6.3,2.8,9.1,0.7l63.8-40.7c2.1-1.4,4.9-1.4,7.7,0
		c14,7.7,29.4,14,45.6,18.9c2.8,0.7,4.9,2.8,4.9,5.6l16.8,73.6c0.7,3.5,3.5,5.6,7,5.6h63.1c3.5,0,6.3-2.1,7-5.6l16.8-73.6
		c0.7-2.8,2.8-4.9,4.9-5.6c16.1-4.9,31.5-11.2,45.6-18.9c2.1-1.4,5.6-1.4,7.7,0l63.8,40.7c2.8,2.1,7,1.4,9.1-0.7l44.2-44.2
		c2.1-2.1,2.8-6.3,0.7-9.1l-40.7-63.8c-1.4-2.1-1.4-4.9,0-7.7c7.7-14,14-29.4,18.9-45.6c0.7-2.8,2.8-4.9,5.6-4.9l73.6-16.8
		c3.5-0.7,5.6-3.5,5.6-7v-63.1C895.8,426.6,893.7,423.8,890.2,423.1z M600,555.8c-52,0-94.1-42.1-94.1-94.1s42.1-94.1,94.1-94.1
		s94.1,42.1,94.1,94.1S652,555.8,600,555.8z"/>
</g>
<path class="st1" d="M1113.9,653.2L778.6,772.5c-16.5,5.9-34.8,0.3-45.4-13.6L599.3,581l414.3-147.4l118.9,157.8
	C1148.7,613,1139.3,644.1,1113.9,653.2z"/>
<path class="st1" d="M84.6,653.2l335.3,119.3c16.5,5.9,34.8,0.3,45.4-13.6l134-177.8L185,433.7L66.1,591.4
	C49.8,613,59.2,644.1,84.6,653.2z"/>
</svg>
