<svg xmlns="http://www.w3.org/2000/svg" xmlns:xlink="http://www.w3.org/1999/xlink" width="100" height="100" viewBox="0 0 100 100"><g><g transform="translate(50 50) scale(0.69 0.69) rotate(0) translate(-50 -50)" style="fill:#C4C5C1"><svg fill="#C4C5C1" xmlns="http://www.w3.org/2000/svg" xmlns:xlink="http://www.w3.org/1999/xlink" version="1.1" x="0px" y="0px" viewBox="0 0 100 100" enable-background="new 0 0 100 100" xml:space="preserve"><g><path d="M32.668,66.428c-0.315-0.09-0.626-0.211-0.938-0.331c-0.702-0.271-1.498-0.579-2.37-0.579   c-0.768,0-1.464,0.264-2.079,0.495c-0.52,0.196-1.011,0.382-1.457,0.382c-0.348,0-0.752-0.177-1.181-0.364   c-0.548-0.241-1.17-0.513-1.885-0.513c-0.953,0-1.813,0.287-2.644,0.564c-0.367,0.122-0.733,0.245-1.104,0.338   c-0.472,0.117-0.759,0.595-0.643,1.066s0.595,0.758,1.066,0.643c0.415-0.103,0.826-0.239,1.237-0.376   c0.73-0.244,1.42-0.475,2.086-0.475c0.347,0,0.751,0.177,1.18,0.364c0.549,0.24,1.17,0.513,1.886,0.513   c0.768,0,1.464-0.264,2.078-0.495c0.52-0.196,1.01-0.382,1.457-0.382c0.544,0,1.124,0.224,1.736,0.461   c0.36,0.139,0.722,0.276,1.087,0.381c0.081,0.023,0.163,0.035,0.243,0.035c0.383,0,0.735-0.253,0.846-0.639   C33.406,67.05,33.135,66.562,32.668,66.428z"></path><path d="M61.934,76.824c-0.316-0.09-0.627-0.212-0.938-0.332c-0.702-0.271-1.498-0.577-2.371-0.577   c-0.768,0-1.464,0.263-2.078,0.494c-0.52,0.196-1.01,0.381-1.457,0.381c-0.347,0-0.752-0.177-1.18-0.364   c-0.549-0.239-1.17-0.511-1.886-0.511c-0.953,0-1.813,0.286-2.644,0.563c-0.367,0.123-0.733,0.246-1.103,0.338   c-0.473,0.117-0.76,0.594-0.643,1.066c0.117,0.471,0.595,0.757,1.065,0.643c0.416-0.104,0.827-0.24,1.238-0.377   c0.73-0.243,1.42-0.474,2.086-0.474c0.347,0,0.752,0.177,1.18,0.364c0.549,0.239,1.171,0.512,1.886,0.512   c0.768,0,1.465-0.263,2.078-0.494c0.52-0.197,1.012-0.382,1.457-0.382c0.544,0,1.124,0.224,1.736,0.46   c0.361,0.14,0.723,0.277,1.088,0.383c0.08,0.022,0.163,0.034,0.242,0.034c0.383,0,0.735-0.253,0.846-0.64   C62.671,77.445,62.401,76.958,61.934,76.824z"></path><path d="M83.855,85.572c-0.315-0.091-0.626-0.212-0.938-0.332c-0.701-0.271-1.497-0.578-2.37-0.578   c-0.768,0-1.463,0.263-2.079,0.495c-0.519,0.195-1.01,0.381-1.456,0.381c-0.347,0-0.752-0.178-1.181-0.364   c-0.548-0.239-1.169-0.512-1.885-0.512c-0.952,0-1.813,0.287-2.644,0.564c-0.367,0.122-0.733,0.246-1.104,0.337   c-0.472,0.117-0.759,0.595-0.642,1.066c0.117,0.473,0.595,0.76,1.065,0.643c0.415-0.104,0.827-0.239,1.238-0.377   c0.729-0.243,1.42-0.474,2.086-0.474c0.347,0,0.752,0.178,1.18,0.365c0.549,0.239,1.17,0.511,1.886,0.511   c0.768,0,1.464-0.263,2.079-0.494c0.519-0.196,1.011-0.382,1.456-0.382c0.545,0,1.124,0.224,1.735,0.46   c0.361,0.14,0.723,0.278,1.089,0.383c0.08,0.023,0.162,0.034,0.242,0.034c0.383,0,0.735-0.252,0.846-0.639   C84.594,86.192,84.323,85.706,83.855,85.572z"></path><path d="M33.906,57.184c0.415-0.103,0.827-0.238,1.237-0.376c0.73-0.244,1.42-0.475,2.086-0.475c0.347,0,0.752,0.177,1.18,0.364   c0.548,0.241,1.17,0.513,1.886,0.513c0.767,0,1.464-0.264,2.079-0.495c0.519-0.196,1.01-0.382,1.456-0.382   c0.545,0,1.125,0.224,1.736,0.461c0.361,0.139,0.722,0.277,1.088,0.381c0.081,0.024,0.162,0.035,0.242,0.035   c0.383,0,0.736-0.252,0.846-0.638c0.134-0.468-0.137-0.955-0.604-1.089c-0.315-0.091-0.626-0.211-0.938-0.331   c-0.701-0.272-1.497-0.58-2.371-0.58c-0.767,0-1.463,0.264-2.078,0.495c-0.519,0.196-1.01,0.382-1.457,0.382   c-0.347,0-0.752-0.177-1.18-0.364c-0.548-0.24-1.17-0.513-1.886-0.513c-0.952,0-1.812,0.287-2.644,0.566   c-0.367,0.122-0.733,0.244-1.104,0.337c-0.472,0.116-0.759,0.595-0.643,1.065C32.957,57.014,33.435,57.299,33.906,57.184z"></path><path d="M47.994,73.326c0.383,0,0.736-0.253,0.846-0.64c0.134-0.467-0.136-0.954-0.604-1.089c-0.315-0.089-0.626-0.211-0.938-0.331   c-0.701-0.271-1.497-0.578-2.37-0.578c-0.768,0-1.463,0.264-2.079,0.494c-0.519,0.197-1.01,0.382-1.456,0.382   c-0.347,0-0.752-0.177-1.18-0.364c-0.549-0.24-1.17-0.512-1.886-0.512c-0.953,0-1.813,0.287-2.644,0.564   c-0.367,0.122-0.733,0.245-1.104,0.337c-0.472,0.117-0.759,0.595-0.642,1.067c0.117,0.471,0.593,0.758,1.066,0.642   c0.415-0.103,0.826-0.239,1.237-0.376c0.73-0.243,1.42-0.474,2.087-0.474c0.347,0,0.752,0.177,1.18,0.364   c0.549,0.239,1.17,0.512,1.886,0.512c0.767,0,1.464-0.264,2.079-0.494c0.519-0.197,1.011-0.382,1.457-0.382   c0.544,0,1.124,0.224,1.735,0.46c0.361,0.139,0.722,0.277,1.088,0.382C47.833,73.313,47.915,73.326,47.994,73.326z"></path><path d="M93.774,33.561L74.411,15.958c-0.337-0.306-0.852-0.306-1.187,0.002L57.853,30.051l-5.935-3.344   c-0.025-0.014-0.054-0.014-0.079-0.026c-0.23-0.167-0.534-0.218-0.811-0.12l-4.309,1.515l-9.979-17.73   c-0.146-0.259-0.413-0.427-0.71-0.446c-0.294-0.019-0.583,0.113-0.762,0.351l-17.36,23.183l-3.721-0.954   c-0.292-0.075-0.601,0.004-0.821,0.211l-7.151,6.711c-0.354,0.333-0.373,0.89-0.04,1.244C6.509,41,7.065,41.018,7.42,40.685   l5.907-5.544l2.621,2.369l-2.887,2.199c-0.244,0.186-0.374,0.486-0.342,0.792s0.221,0.573,0.499,0.704l10.167,4.806   c0.122,0.057,0.25,0.084,0.375,0.084c0.33,0,0.646-0.187,0.796-0.504c0.208-0.439,0.02-0.964-0.42-1.172l-8.857-4.187l2.579-1.963   c0.208-0.159,0.335-0.401,0.346-0.663c0.011-0.262-0.095-0.515-0.289-0.69l-2.568-2.321l2.694,0.691   c0.346,0.088,0.71-0.04,0.923-0.325l16.182-21.609l0.863,4.001l-4.797,5.467c-0.319,0.364-0.285,0.917,0.076,1.238l8.94,7.952   c0.167,0.149,0.376,0.223,0.584,0.223c0.243,0,0.484-0.1,0.658-0.295c0.323-0.363,0.291-0.92-0.072-1.243l-8.287-7.371l4.513-5.143   c0.184-0.21,0.258-0.494,0.199-0.767l-0.543-2.519l8.269,14.688c0.209,0.372,0.657,0.541,1.059,0.398l4.382-1.542l4.099,5.717   l-1.648,6.152c-0.115,0.43,0.119,0.858,0.518,1.026c0.579,0.368,1.819,0.681,4.286,1.3c1.392,0.35,3.426,0.86,4.746,1.294   c-4.72,1.455-11.389,2.54-18.414,3.682c-17.082,2.778-34.744,5.65-33.681,14.866c1.307,11.322,16.326,20.271,30.846,27.53   c0.126,0.063,0.262,0.093,0.393,0.093c0.323,0,0.633-0.178,0.788-0.486c0.217-0.435,0.042-0.964-0.394-1.181   C29.253,81.797,13.86,72.826,12.644,62.275C11.773,54.73,29.35,51.872,44.857,49.35c7.775-1.264,15.118-2.458,20.013-4.186   c0.871-0.308,0.978-0.875,0.963-1.185c-0.052-1.124-1.451-1.612-6.896-2.984c12.961-0.684,28.347-0.127,29.818,1.613   c-0.702,1.335-8.874,3.435-14.868,4.977C61.491,50.77,48.673,54.063,49.179,59.38c0.891,9.361,24.471,13.473,42.131,15.753   c0.476,0.064,0.923-0.279,0.985-0.761c0.063-0.482-0.278-0.925-0.76-0.986c-26.372-3.402-40.032-8.171-40.604-14.173   c-0.364-3.818,13.933-7.492,23.394-9.924c10.952-2.814,16.217-4.275,16.217-6.715c0-0.318-0.102-0.791-0.585-1.238   c-3.321-3.076-26.022-2.478-34.464-1.888l1.402-5.237c0.068-0.255,0.02-0.526-0.135-0.74l-2.42-3.377l3.203,1.805   c0.332,0.187,0.747,0.139,1.027-0.118L72.54,18.976l-0.904,4.502c-0.075,0.379,0.105,0.764,0.445,0.948l4.468,2.405l-10.718,7.542   c-0.397,0.28-0.493,0.829-0.214,1.227c0.172,0.243,0.444,0.374,0.722,0.374c0.174,0,0.352-0.052,0.506-0.16l11.882-8.362   c0.25-0.176,0.391-0.468,0.372-0.772c-0.019-0.305-0.193-0.578-0.461-0.723l-5.146-2.771l0.965-4.807L92.59,34.863   c0.17,0.153,0.381,0.229,0.593,0.229c0.238,0,0.478-0.097,0.651-0.288C94.16,34.445,94.135,33.888,93.774,33.561z"></path></g></svg></g></g></svg>
