<svg id="Layer_1" data-name="Layer 1" xmlns="http://www.w3.org/2000/svg" viewBox="0 0 633.07 250"><defs><style>.cls-1{fill:#40be46;}.cls-2{fill:#1d1d1b;}</style></defs><title>Artboard 1</title><path class="cls-1" d="M93.86,54.71h0a42.77,42.77,0,1,0,42.76,42.77A42.81,42.81,0,0,0,93.86,54.71m0,95.63a52.86,52.86,0,1,1,52.86-52.86A52.92,52.92,0,0,1,93.86,150.34Zm62.07,35.17H32.26V176H155.93Z"/><path class="cls-2" d="M207.78,117.47h14.56l11.13,68.37H222.73l-2-13.57v.19H208.56l-1.95,13.38h-10Zm11.72,45.71-4.78-33.79h-.2l-4.69,33.79Z"/><path class="cls-2" d="M238.65,117.47h15.92q8.3,0,12.11,3.86t3.81,11.87v4.2q0,10.64-7,13.48v.19a8.41,8.41,0,0,1,5.52,4.79,24.17,24.17,0,0,1,1.61,9.67v12a46.15,46.15,0,0,0,.19,4.74,11.83,11.83,0,0,0,1,3.56H260.82a15.47,15.47,0,0,1-.78-3.12,46.89,46.89,0,0,1-.2-5.28v-12.5c0-3.12-.5-5.31-1.51-6.54s-2.75-1.86-5.23-1.86h-3.71v29.3H238.65Zm14.65,29.3a6.42,6.42,0,0,0,4.83-1.66c1.08-1.1,1.61-3,1.61-5.57v-5.27c0-2.47-.43-4.26-1.31-5.37a5,5,0,0,0-4.16-1.66h-4.88v19.53Z"/><path class="cls-2" d="M286.22,127.24H275v-9.77h33.21v9.77H297v58.6H286.22Z"/><path class="cls-2" d="M313.37,117.47h10.75v68.37H313.37Z"/><path class="cls-2" d="M332.12,117.47h28.43v9.77H342.87v19h13.87v9.77H342.87v29.79H332.12Z"/><path class="cls-2" d="M370.9,117.47h14.56l11.13,68.37H385.85l-2-13.57v.19H371.68l-1.95,13.38h-10Zm11.72,45.71-4.78-33.79h-.2L373,163.18Z"/><path class="cls-2" d="M404.94,182.43q-4.05-4.4-4.05-12.41V133.29q0-8,4.05-12.4t11.77-4.4q7.73,0,11.77,4.4t4.06,12.4v7.23H422.38v-7.91q0-6.35-5.37-6.35c-3.58,0-5.38,2.12-5.38,6.35V170.8c0,4.17,1.8,6.25,5.38,6.25s5.37-2.08,5.37-6.25V160.35h10.16V170q0,8-4.06,12.41t-11.77,4.39Q409,186.82,404.94,182.43Z"/><path class="cls-2" d="M447.38,127.24H436.15v-9.77h33.21v9.77H458.13v58.6H447.38Z"/><path class="cls-2" d="M477.57,182.33q-4.2-4.5-4.2-12.7V133.68q0-8.2,4.2-12.69t12.11-4.5q7.9,0,12.11,4.5t4.2,12.69v35.95q0,8.2-4.2,12.7t-12.11,4.49Q481.78,186.82,477.57,182.33Zm17.68-12V133q0-6.74-5.57-6.74T484.11,133v37.31q0,6.75,5.57,6.74T495.25,170.31Z"/><path class="cls-2" d="M513.22,117.47h15.92q8.31,0,12.11,3.86t3.81,11.87v4.2q0,10.64-7,13.48v.19a8.39,8.39,0,0,1,5.52,4.79,24.17,24.17,0,0,1,1.61,9.67v12a45.71,45.71,0,0,0,.2,4.74,11.8,11.8,0,0,0,1,3.56H535.39a15.47,15.47,0,0,1-.78-3.12,47.62,47.62,0,0,1-.19-5.28v-12.5c0-3.12-.51-5.31-1.52-6.54s-2.75-1.86-5.22-1.86H524v29.3H513.22Zm14.65,29.3a6.46,6.46,0,0,0,4.84-1.66q1.6-1.65,1.61-5.57v-5.27q0-3.71-1.32-5.37a5,5,0,0,0-4.15-1.66H524v19.53Z"/><path class="cls-2" d="M560.89,156.74l-13-39.27h11.43l7.32,25.1h.2l7.32-25.1h10.45l-13,39.27v29.1H560.89Z"/><path class="cls-1" d="M227.16,92.11H220V57.58h19.79v6H227.16v8.9h11.72v6H227.16Zm33.51-26.9a11.84,11.84,0,0,1,2.44.21l-.55,6.76a8.09,8.09,0,0,0-2.12-.24,7.63,7.63,0,0,0-5.37,1.77,6.38,6.38,0,0,0-1.93,5V92.11h-7.2V65.7h5.45l1.07,4.44h.35a9.9,9.9,0,0,1,3.32-3.57A8.14,8.14,0,0,1,260.67,65.21Zm13,13.65h0a11.08,11.08,0,0,0,1.29,5.93,4.61,4.61,0,0,0,4.19,2,4.55,4.55,0,0,0,4.15-2,11.27,11.27,0,0,0,1.26-5.94A10.89,10.89,0,0,0,283.25,73a5.41,5.41,0,0,0-8.33,0A10.89,10.89,0,0,0,273.64,78.86Zm18.26,0q0,6.45-3.4,10.08T279,92.58a13.16,13.16,0,0,1-6.71-1.67,11,11,0,0,1-4.46-4.78,16,16,0,0,1-1.56-7.27q0-6.47,3.37-10.06t9.5-3.59a13.31,13.31,0,0,1,6.7,1.65,11,11,0,0,1,4.47,4.75A15.9,15.9,0,0,1,291.9,78.86Zm11.17-4.51h0a5.41,5.41,0,0,0,1,3.4A3.57,3.57,0,0,0,307,79a3.49,3.49,0,0,0,3-1.25,5.53,5.53,0,0,0,.95-3.4q0-4.77-3.92-4.77T303.07,74.35Zm-2.62,21.49h0a2.61,2.61,0,0,0,1.43,2.34,7.8,7.8,0,0,0,4,.85A14.17,14.17,0,0,0,312,98a3.22,3.22,0,0,0,2.19-2.9A2.07,2.07,0,0,0,312.85,93a10.87,10.87,0,0,0-4-.56H305.1a5.68,5.68,0,0,0-3.32.93A2.88,2.88,0,0,0,300.45,95.84ZM320.83,65.7v3.67l-4.14,1.06a7.17,7.17,0,0,1,1.14,4,8,8,0,0,1-3,6.62c-2,1.58-4.72,2.37-8.23,2.37l-1.3-.07-1.06-.12a2.4,2.4,0,0,0-1.11,1.89c0,1,1.32,1.56,4,1.56h4.49q4.33,0,6.62,1.87A6.66,6.66,0,0,1,320.52,94a8.14,8.14,0,0,1-3.86,7.18q-3.86,2.55-11.09,2.55c-3.68,0-6.5-.65-8.44-1.93a6.09,6.09,0,0,1-2.92-5.39,5.7,5.7,0,0,1,1.49-4,8.48,8.48,0,0,1,4.37-2.29,4.82,4.82,0,0,1-1.94-1.54,3.83,3.83,0,0,1,.05-4.8,10,10,0,0,1,2.53-2,7.09,7.09,0,0,1-3.3-2.88,8.77,8.77,0,0,1-1.22-4.68A8.22,8.22,0,0,1,299,67.57c1.87-1.58,4.55-2.36,8-2.36a21.27,21.27,0,0,1,2.63.2c1,.13,1.66.23,1.95.29Zm-120.5,36.56a15.88,15.88,0,0,1-4.32-.52V95.65a14.57,14.57,0,0,0,3.45.47,3.89,3.89,0,0,0,3.45-1.5,8.37,8.37,0,0,0,1-4.69V57.58h7.32V89.89q0,6-2.76,9.21C206.66,101.21,203.94,102.26,200.33,102.26Z"/></svg>