<svg id="LOGOS" xmlns="http://www.w3.org/2000/svg" viewBox="0 0 183 258"><defs><style>.cls-1{fill:#00acff;fill-rule:evenodd;}.cls-2{fill:#0086d0;}</style></defs><path d="M32.46,186V181.2H28V186H25.79v-11.6H28v4.86h4.42v-4.86h2.25V186ZM43,186H41.19l-.16-.57a4.91,4.91,0,0,1-2.6.74c-1.59,0-2.27-1-2.27-2.49,0-1.7.77-2.36,2.54-2.36h2.1v-.87c0-.93-.27-1.26-1.67-1.26a13.07,13.07,0,0,0-2.41.26l-.27-1.6a11.81,11.81,0,0,1,3-.39c2.73,0,3.54.93,3.54,3Zm-2.18-3.16H39.19c-.72,0-.92.18-.92.82s.2.84.88.84a3.52,3.52,0,0,0,1.65-.43Zm6.75,3.33a10.9,10.9,0,0,1-3-.48l.31-1.6a9.94,9.94,0,0,0,2.59.36c1,0,1.11-.21,1.11-.84s-.11-.77-1.52-1.1c-2.13-.5-2.38-1-2.38-2.63s.77-2.42,3.26-2.42a11.86,11.86,0,0,1,2.61.29l-.22,1.67a15.87,15.87,0,0,0-2.39-.24c-.95,0-1.11.2-1.11.72s.05.72,1.23,1c2.44.62,2.67.93,2.67,2.65S50.18,186.2,47.55,186.2Zm10-.17v-5.84c0-.45-.2-.67-.7-.67a6.33,6.33,0,0,0-2.27.7V186H52.39V174.27l2.18.32v3.71a8,8,0,0,1,3.19-.81c1.44,0,2,1,2,2.47V186Zm4-9.55v-2h2.18v2Zm0,9.55v-8.37h2.18V186Zm3.92-8.3c0-2.1,1.27-3.32,4.24-3.32a14,14,0,0,1,3.24.38l-.25,1.87a18.48,18.48,0,0,0-2.92-.29c-1.55,0-2.05.52-2.05,1.74v4.39c0,1.22.5,1.74,2.05,1.74a18.48,18.48,0,0,0,2.92-.29l.25,1.87a14,14,0,0,1-3.24.38c-3,0-4.24-1.22-4.24-3.32Zm12.3,8.47c-3,0-3.79-1.58-3.79-3.3v-2.11c0-1.72.8-3.3,3.79-3.3s3.79,1.58,3.79,3.3v2.11C81.57,184.62,80.77,186.2,77.78,186.2Zm0-6.92c-1.16,0-1.61.49-1.61,1.44V183c0,.94.45,1.44,1.61,1.44s1.61-.5,1.61-1.44v-2.25C79.39,179.77,78.94,179.28,77.78,179.28Zm9.94.13a17.6,17.6,0,0,0-2.31,1.22V186H83.23v-8.37h1.84l.14.93a10.39,10.39,0,0,1,2.29-1.1Zm8.72,3.83c0,1.86-.86,3-2.88,3a13.1,13.1,0,0,1-2.32-.24v3.42l-2.18.32v-12h1.73l.22.71a4.63,4.63,0,0,1,2.75-.88c1.75,0,2.68,1,2.68,2.9Zm-5.2.95a10,10,0,0,0,1.93.22c.79,0,1.09-.36,1.09-1.12v-2.95c0-.69-.27-1.06-1.07-1.06a3.14,3.14,0,0,0-2,.75Z"/><path d="M25.79,194.47H39.21c7.95,0,10.89,3.25,10.89,9.29v4.7c0,6-3.2,9.24-11.2,9.24H32.29v11.15h-6.5Zm13.06,5.73H32.29V212h6.56c3.66,0,4.75-1.34,4.75-4.18v-3.51C43.6,201.44,42.41,200.2,38.85,200.2Z"/><path d="M72.09,228.85H66.93l-.46-1.7A13.84,13.84,0,0,1,59,229.37c-4.59,0-6.56-3.15-6.56-7.49,0-5.11,2.22-7.07,7.33-7.07h6v-2.64c0-2.78-.77-3.76-4.8-3.76a35.51,35.51,0,0,0-7,.77l-.77-4.8a32.87,32.87,0,0,1,8.62-1.19c7.9,0,10.22,2.79,10.22,9.09Zm-6.3-9.5H61.15c-2.07,0-2.64.57-2.64,2.48,0,1.75.57,2.53,2.53,2.53a9.89,9.89,0,0,0,4.75-1.29Z"/><path d="M75.86,219.71v-6.86c0-6.77,2.94-9.66,10.84-9.66a21.54,21.54,0,0,1,6.14.93l-.77,5.16a23.15,23.15,0,0,0-5.21-.67c-3.62,0-4.7,1.09-4.7,4.18v7c0,3.1,1.08,4.18,4.7,4.18a21,21,0,0,0,5.21-.67l.77,5.17a20.93,20.93,0,0,1-6.14.93C78.8,229.37,75.86,226.47,75.86,219.71Z"/><path d="M96.82,228.85V193.44l6.3-.88v36.29Zm21.37-25.14-7.38,12.44,7.69,12.7h-6.92L104,216.15l7.18-12.44Z"/><path d="M131.3,224.2A26.47,26.47,0,0,0,139,223l1,4.75a27.06,27.06,0,0,1-9.24,1.6c-7.9,0-10.63-3.67-10.63-9.71V213c0-5.32,2.37-9.81,10.43-9.81s9.86,4.7,9.86,10.12v5.37h-14V220C126.4,223,127.48,224.2,131.3,224.2Zm-4.9-10.58h8v-1.24c0-2.37-.73-4-3.82-4s-4.18,1.66-4.18,4Z"/><path d="M157.21,209a49.79,49.79,0,0,0-6.66,3.67v16.21h-6.29V203.71h5.31l.42,2.79a28,28,0,0,1,6.6-3.31Z"/><polygon class="cls-1" points="46.91 33.06 94.19 60.37 94.19 161.1 46.91 133.78 46.91 33.06"/><path class="cls-2" d="M117.59,44.83,66.2,15.23V35.78l35,20.18v61.67l16.44,9.44c10.18,5.88,18.5,2.36,18.5-7.82V74C136.09,63.83,127.77,50.7,117.59,44.83Z"/></svg>