<svg xmlns="http://www.w3.org/2000/svg" xmlns:xlink="http://www.w3.org/1999/xlink" width="100" height="100" viewBox="0 0 100 100"><g><g transform="translate(50 50) scale(0.69 0.69) rotate(0) translate(-50 -50)" style="fill:#C4C5C1"><svg fill="#C4C5C1" xmlns="http://www.w3.org/2000/svg" xmlns:xlink="http://www.w3.org/1999/xlink" version="1.1" x="0px" y="0px" viewBox="0 0 100 100" style="enable-background:new 0 0 100 100;" xml:space="preserve"><g><path d="M37.4,15.4H26.2v9.9c3.5,0.1,7.3,0.3,11.2,0.4V15.4z"></path><path d="M51.5,26.2V15.4H40.3v10.4c3.5,0.2,7.1,0.3,10.8,0.5H51.5z"></path><rect x="54.3" y="15.4" width="11.2" height="10.9"></rect><rect x="26.2" y="2" width="11.2" height="10.9"></rect><rect x="40.4" y="2" width="11.2" height="10.9"></rect><path d="M91.6,61c-2.5-1.8-5.3-2.6-7.7-2c-0.9-1.6-2.4-3.4-4.4-4.7c6.7-5.5,11.2-12.4,12.3-19.7c1.3-8.2-2.4-16.5-3.6-18.9   c3.4-2.1,5.2-3.9,5.8-6.3c0.7-2.9-1.1-6.3-2.6-7.4c-0.1,1.7-0.8,2.8-2.4,4c-1.3,1-4.5,1.9-4.8,5c-2.2-0.6-4.3,1.1-5.7,1.7   c-1.5,0.6-3.8,0.9-5,0.8c0.8,2.4,1.7,4.2,4.3,5.1c2.2,0.8,5-0.5,8.1-1.7c0.6,0.9,1.4,5.6,0.6,8.2c-1.3,4-11,4.4-29.1,3.8   c-27.1-0.8-52.8-3.6-53.5,2.6c-0.4,3.1-0.6,9.5,3.6,17.3c5.4,10,17.7,17.5,33.3,17.8c4.8,0.1,9.5-0.3,13.9-1.2   c3.3,1.7,6.3,3.1,9.5,3.9c5.3,1.4,10,1,12,0.1c2-0.9,0-1.6-1.9-1.9c-1.8-0.3-6.3-3.6-11-4.4c5.4-1.9,10.3-4.5,14.4-7.6   c2.3,1.4,4,3.3,4.6,5l0.4,1.1l1.1-0.4c1.9-0.7,4.4-0.2,6.6,1.4c2.5,1.8,3.9,4.5,3.7,7.1c-0.2,2.7-1.3,5-3.2,6.5   c-2.4,1.8-5.9,2.5-9.9,1.7l-1.3-0.2l-0.1,1.3c0,0.8-0.7,1.6-1.7,2.2c-1.5,0.9-3.3,1.1-4.5,0.5l-0.8-0.4L72,82.2   c-2,2.7-5.5,4.2-9.6,4.1c-2.3-0.1-4.5-0.7-6.3-1.7c-0.2-2.2-1.3-4.2-3.1-5.5c-1.6-1.2-3.5-1.8-5.6-1.6c-1.1-2.5-3.5-4.2-6.3-4.2   c-0.6,0-1.1,0-1.6,0.2c-1.6-2.2-4.1-3.7-6.9-4.1c-3.6-0.5-6.9,0.8-9.1,3.3c-1.4-0.7-2.7-1.8-3.5-3.2c-0.6-1.1-1.4-3.3,0-5.8l-2-1.2   c-1.5,2.5-1.5,5.4,0,8c1,1.7,2.4,3.1,4.2,4c-0.5,0.9-0.8,1.9-1,3c0,0.2,0,0.3-0.1,0.5c-3.2,0.8-5.4,3.5-5.7,6.8   c-0.3,4.2,2.6,7.1,5.4,8.3c1.4,0.6,3.2,0.7,4.6,0.4c1.8,2.4,4.8,4,8.4,4.4c0.6,0.1,1.2,0.1,1.9,0.1c1.9,0,3.9-0.4,5.7-1   c2.1-0.8,4-1.9,5.3-3.3c3.1-0.2,5.8-1.4,7.6-3.4c0.9-1,1.5-2.1,1.8-3.2c1.9,0.9,4.1,1.4,6.4,1.5c0.2,0,0.4,0,0.6,0   c4.2,0,7.9-1.6,10.4-4.3c1.8,0.5,4,0.2,5.8-0.9c1.2-0.7,2.1-1.7,2.5-2.8c4.2,0.5,7.9-0.3,10.6-2.3c2.4-1.9,3.8-4.7,4.1-8.1   C96.5,66.7,94.7,63.2,91.6,61z M34.9,47.8c1.3,0,2.3,1,2.3,2.3c0,1.3-1,2.3-2.3,2.3c-1.3,0-2.3-1-2.3-2.3   C32.5,48.9,33.6,47.8,34.9,47.8z M26.9,62.8c-4.1-1.8-9.5-4.6-14.1-9.8c1.4,0.2,2.9,0.4,4.4,0.4c4.2,4.3,10.4,8.4,17.3,9.7   c-5.5-2.1-10-4.4-14.3-9.7c1,0,1.9-0.1,2.9-0.2c5.1,4.9,12.5,9.2,17.7,10.3c-4.8-2.2-11-6.1-15-10.6c1.2-0.2,2.3-0.4,3.5-0.7   c3.6,4.8,12.6,11.8,22.7,12.3C40.1,66.2,30.4,64.3,26.9,62.8z M52.2,88.4c-1.4,1.5-3.6,2.5-6.2,2.5l-0.6,0L45,91.4   c-1.9,2.3-6.4,4.3-10.8,3.7c-3.2-0.4-5.7-1.9-6.9-4l-0.6-1l-1.1,0.4c-0.6,0.2-2.5,0.4-3.5-0.1c-1-0.4-4-2.1-3.8-5.6   c0.2-2.5,2-4.3,4.4-4.5l1.3-0.1L24,78.9c0-0.4,0-0.8,0.1-1.2c0.5-3.8,4.2-6.4,8.2-5.8c2.3,0.3,4.4,1.7,5.5,3.7l0.6,1.1l1.1-0.5   c0.5-0.2,1.1-0.3,1.7-0.3c2,0,3.7,1.4,4.1,3.3l0.3,1.3l1.3-0.3c1.7-0.3,3.3,0,4.6,1c1.2,0.9,1.9,2.2,2,3.6   C53.6,86.1,53.1,87.4,52.2,88.4z"></path></g></svg></g></g></svg>
