<svg xmlns="http://www.w3.org/2000/svg" xmlns:xlink="http://www.w3.org/1999/xlink" width="100" height="100" viewBox="0 0 100 100"><g><g transform="translate(50 50) scale(0.69 0.69) rotate(0) translate(-50 -50)" style="fill:#1A1A1A"><svg fill="#1A1A1A" xmlns="http://www.w3.org/2000/svg" viewBox="0 0 91.87 81.46" x="0px" y="0px"><title>Livello 15</title><g data-name="Livello 2"><g data-name="Livello 15"><g data-name="Livello 2"><g data-name="Livello 8"><path d="M88.72,54.19H85.83c-.16-.44-.34-.87-.53-1.29l2-2a3.14,3.14,0,0,0,0-4.45h0l-2.76-2.75V16.43a2.75,2.75,0,0,0-2.74-2.75h-52V2.75A2.75,2.75,0,0,0,27.13,0H2.75A2.75,2.75,0,0,0,0,2.75V68.16A2.75,2.75,0,0,0,2.75,70.9H52.31v.21a3.15,3.15,0,0,0,.92,2.23l3.59,3.6a3.16,3.16,0,0,0,4.45,0l2-2q.63.3,1.29.54v2.88a3.15,3.15,0,0,0,3.15,3.15h5.08A3.15,3.15,0,0,0,76,78.31V75.45c.43-.16.87-.34,1.29-.54l2,2a3.15,3.15,0,0,0,4.44,0l3.6-3.6a3.13,3.13,0,0,0,0-4.43h0l-2-2c.19-.43.37-.86.53-1.29h2.89a3.15,3.15,0,0,0,3.14-3.14V57.33A3.13,3.13,0,0,0,88.72,54.19ZM2.75,2.5H27.11a.25.25,0,0,1,.25.25V13.68H2.5V2.75A.25.25,0,0,1,2.75,2.5Zm51,65.91h-51a.25.25,0,0,1-.25-.25v-52H81.84a.26.26,0,0,1,.25.25V42a3.13,3.13,0,0,0-2.79.86l-2,2.05q-.65-.3-1.29-.54v-2.9a3.15,3.15,0,0,0-3.15-3.15H67.74a3.15,3.15,0,0,0-3.15,3.15v2.88a13.27,13.27,0,0,0-1.28.54l-2.05-2a3.16,3.16,0,0,0-4.45,0l-3.59,3.6a3.14,3.14,0,0,0,0,4.45l2,2c-.2.42-.37.85-.53,1.29H51.84a3.13,3.13,0,0,0-3.14,3.14v5.09a3.13,3.13,0,0,0,3.14,3.14h2.89c.16.44.33.87.53,1.29Zm34.16-6.84h-5l-.39,1.5a12.82,12.82,0,0,1-1.32,3.15l-.78,1.33,3.57,3.57-2.39,2.39L77.94,70l-1.33.78A12.49,12.49,0,0,1,73.45,72l-1.5.39v5H68.58v-5L67.08,72a12.49,12.49,0,0,1-3.16-1.31L62.61,70,59,73.52l-2.39-2.39,3.57-3.57-.76-1.34a12.89,12.89,0,0,1-1.32-3.16l-.39-1.5H52.69V58.18h5l.39-1.5a12.52,12.52,0,0,1,1.32-3.16l.78-1.33-3.57-3.57L59,46.23l3.57,3.57L64,49a12.49,12.49,0,0,1,3.16-1.31l1.5-.39v-5H72v5l1.5.39A12.49,12.49,0,0,1,76.61,49l1.33.78,3.57-3.56,2.39,2.39L80.33,52.2l.78,1.33a12.67,12.67,0,0,1,1.32,3.16l.39,1.5h5Z"></path><path d="M70.28,52.37a7.5,7.5,0,1,0,7.49,7.5h0A7.49,7.49,0,0,0,70.28,52.37Zm0,11a3.5,3.5,0,1,1,3.5-3.5h0a3.5,3.5,0,0,1-3.48,3.51h0Z"></path></g></g></g></g></svg></g></g></svg>