<svg id="Layer_1" data-name="Layer 1" xmlns="http://www.w3.org/2000/svg" xmlns:xlink="http://www.w3.org/1999/xlink" viewBox="0 0 1200 1200"><defs><style>.cls-1{fill:#858585;}.cls-2,.cls-3{fill:none;stroke:#262626;stroke-linecap:round;stroke-linejoin:round;}.cls-2{stroke-width:40px;}.cls-3{stroke-width:20px;}.cls-4{fill:url(#New_Gradient_Swatch);}.cls-5{fill:url(#New_Gradient_Swatch-2);}.cls-6{fill:url(#New_Gradient_Swatch-3);}</style><linearGradient id="New_Gradient_Swatch" x1="484.57" y1="902.23" x2="832.28" y2="902.23" gradientUnits="userSpaceOnUse"><stop offset="0" stop-color="#24ae1d"/><stop offset="1" stop-color="#89df00"/></linearGradient><linearGradient id="New_Gradient_Swatch-2" x1="3032.28" y1="902.23" x2="2684.57" y2="902.23" gradientTransform="matrix(-1, 0, 0, 1, 3864.57, 0)" xlink:href="#New_Gradient_Swatch"/><linearGradient id="New_Gradient_Swatch-3" x1="524.48" y1="616.17" x2="1140.09" y2="616.17" xlink:href="#New_Gradient_Swatch"/></defs><path class="cls-1" d="M867.06,241.64,602,147.87c-16-5.66-16-28.27,0-33.94L867.06,20l265,93.85c16,5.66,16,28.27,0,33.94Z"/><path class="cls-2" d="M1173.81,133,867.06,241.64V425.26"/><path class="cls-2" d="M1145.26,539.75l34.74-12.3V156.26a36,36,0,0,0-24-33.93L867.06,20l-289,102.33a36,36,0,0,0-24,33.93v99.1"/><polyline class="cls-2" points="867.06 435.13 867.06 241.64 562.11 133.65"/><line class="cls-3" x1="710.58" y1="299.94" x2="710.58" y2="326.92"/><line class="cls-3" x1="653.27" y1="280.06" x2="653.27" y2="303.03"/><line class="cls-3" x1="767.9" y1="373.8" x2="767.9" y2="320.65"/><line class="cls-3" x1="1023.53" y1="299.94" x2="1023.53" y2="490.57"/><line class="cls-3" x1="1080.84" y1="280.06" x2="1080.84" y2="490.28"/><path class="cls-3" d="M966.21,477.22V320.65"/><line class="cls-3" x1="947.8" y1="102.22" x2="785.79" y2="159.6"/><line class="cls-3" x1="995.22" y1="118.65" x2="832.69" y2="176.2"/><line class="cls-3" x1="901.42" y1="85.44" x2="738.9" y2="142.99"/><line class="cls-3" x1="612.9" y1="223.92" x2="813.2" y2="294.85"/><line class="cls-3" x1="1121.22" y1="223.92" x2="920.91" y2="294.85"/><path class="cls-1" d="M367.72,948.71,46.65,835A40,40,0,0,1,20,797.31V413.18a20,20,0,0,1,26.68-18.86L367.72,508Z"/><path class="cls-1" d="M367.72,508,73.24,403.82c-17.76-6.29-17.77-31.41,0-37.71L367.72,261.74,662.19,366c17.77,6.3,17.77,31.42,0,37.71Z"/><polyline class="cls-2" points="700.58 390.13 367.71 508.01 28.88 388.02"/><path class="cls-2" d="M715.43,459.16v-46a40,40,0,0,0-26.65-37.71L367.72,261.74,46.65,375.44A40,40,0,0,0,20,413.15V797.31A40,40,0,0,0,46.65,835l321.07,113.7V508"/><line class="cls-3" x1="193.86" y1="572.79" x2="193.86" y2="806.83"/><line class="cls-3" x1="130.17" y1="550.7" x2="130.17" y2="784.28"/><line class="cls-3" x1="257.54" y1="829.38" x2="257.54" y2="595.8"/><line class="cls-3" x1="457.44" y1="353.11" x2="277.42" y2="416.85"/><line class="cls-3" x1="510.12" y1="371.36" x2="329.53" y2="435.3"/><line class="cls-3" x1="405.9" y1="334.45" x2="225.32" y2="398.4"/><line class="cls-3" x1="85.32" y1="488.32" x2="307.88" y2="567.14"/><line class="cls-3" x1="650.12" y1="488.32" x2="427.55" y2="567.14"/><path class="cls-4" d="M832.28,1180,511.22,1066.3a40,40,0,0,1-26.65-37.7V644.47a20,20,0,0,1,26.68-18.86l321,113.69Z"/><path class="cls-5" d="M832.28,1180l321.07-113.7a40,40,0,0,0,26.65-37.7V644.47a20,20,0,0,0-26.68-18.86l-321,113.69Z"/><path class="cls-6" d="M832.28,739.3,537.81,635.11c-17.76-6.29-17.77-31.41,0-37.71L832.28,493l294.48,104.28c17.77,6.29,17.77,31.41,0,37.7Z"/><path class="cls-2" d="M1173.12,618.61,832.28,739.3V1180L1180,1056.87V644.44a40,40,0,0,0-26.65-37.71L832.28,493,511.22,606.73a40,40,0,0,0-26.65,37.71V1028.6a40,40,0,0,0,26.65,37.7L832.28,1180V739.3l-338.83-120"/><line class="cls-3" x1="658.43" y1="804.08" x2="658.43" y2="1038.12"/><line class="cls-3" x1="594.74" y1="781.99" x2="594.74" y2="1015.57"/><line class="cls-3" x1="722.11" y1="1060.67" x2="722.11" y2="827.09"/><line class="cls-3" x1="1006.14" y1="804.08" x2="1006.14" y2="1038.12"/><line class="cls-3" x1="1069.83" y1="781.99" x2="1069.83" y2="1015.57"/><line class="cls-3" x1="942.46" y1="1060.67" x2="942.46" y2="827.09"/><line class="cls-3" x1="922" y1="584.4" x2="741.99" y2="648.14"/><line class="cls-3" x1="974.68" y1="602.65" x2="794.1" y2="666.59"/><line class="cls-3" x1="870.47" y1="565.74" x2="689.88" y2="629.69"/><line class="cls-3" x1="549.88" y1="719.61" x2="772.45" y2="798.43"/><line class="cls-3" x1="1114.68" y1="719.61" x2="892.12" y2="798.43"/></svg>