<svg id="Layer_1" data-name="Layer 1" xmlns="http://www.w3.org/2000/svg" xmlns:xlink="http://www.w3.org/1999/xlink" viewBox="0 0 1200 1200"><defs><style>.cls-1{fill:#858585;}.cls-2,.cls-3,.cls-7{fill:none;}.cls-2,.cls-3,.cls-5,.cls-7,.cls-8{stroke:#262626;}.cls-2,.cls-3,.cls-5{stroke-linecap:round;stroke-linejoin:round;}.cls-2,.cls-5,.cls-7{stroke-width:20px;}.cls-3{stroke-width:40px;}.cls-4{fill:url(#New_Gradient_Swatch);}.cls-5{fill:#f8f8f8;}.cls-6{fill:url(#New_Gradient_Swatch-2);}.cls-7,.cls-8{stroke-miterlimit:10;}.cls-8{fill:#262626;stroke-width:3px;}</style><linearGradient id="New_Gradient_Swatch" x1="297.5" y1="850.25" x2="469.3" y2="850.25" gradientUnits="userSpaceOnUse"><stop offset="0" stop-color="#24ae1d"/><stop offset="1" stop-color="#89df00"/></linearGradient><linearGradient id="New_Gradient_Swatch-2" x1="785.63" y1="747.97" x2="977.54" y2="747.97" xlink:href="#New_Gradient_Swatch"/></defs><path class="cls-1" d="M466,422.32c11,23,12.81,70.47,13.11,86.24l13-1c12.08-8.07,4.43-36.41,12.45-46.29,8.95-11,37.45-8.41,43.45-19.77,6.82-12.92-10.33-37.94-4.26-48.56,6.91-12.11,36.59-12.29,41.94-24.12,5.9-13.05-14.35-33.18-12.47-45.82,2-13.56,26-29.81,20.76-42.8-5-12.37-34.32-8.06-45.15-17.45-9.79-8.49-5.77-36.95-17.7-44.55-11.38-7.25-37.59,7.19-48.72-.56-10.65-7.42-5.28-37-16-46-10.33-8.68-36.41,3.41-47.69-4s-13-37.07-26.26-40.54-28.93,21.66-42.65,22.72c-13.3,1-30.17-22.27-43.58-19.75S283,161,269.86,162.3c-13.52,1.37-29.8-23.83-43.57-22.73-14,1.12-23.76,28.26-36.82,31.4-13.63,3.26-37-15-48.29-7s-2,36.25-9.62,47.88c-7.47,11.38-36.31,11.38-42.08,24-5.85,12.82,12.1,37,6.06,48.88-6.15,12.1-36.25,12.32-42.73,24.61-6.6,12.52,11.27,35.11,7.27,47.9-4.22,13.47-31.43,25.14-29.37,39,2,13.67,31.35,16.48,39.71,28.09C78,434.92,68.29,462,78.91,471.92c9.78,9.12,37.86-1.09,48.41,8.24,9.53,8.42,1.24,37.64,11.65,48,6.77,6.71,22.51,3.18,35.18,3.7l8.68-.66c10.41-24.71,34.68-24.71,54.53-24.71l6.23-21.2c30-11.17,4.93-60.28-15.05-81.8,22.93,20.4,62.08,5.67,70.86-11.44,9.22,11.44,26.64,31.67,35,32s28.94-12.47,36.75-9.21,33.54,26.53,46.37,27.72c7.79.73,8.44-18.81,12.55-29.45,2.22-5.76,14.27,2.79,25.12,8.11C459.42,423.25,463,423.46,466,422.32Z"/><path class="cls-2" d="M480.83,529.62c15.18,0,27.49,3.27,27.49,22.47s-13.81,47.07-29,47.07"/><path class="cls-3" d="M490,407.38l-10.71-19.64c-.12,18.31-6.53,42.09-24.15,33.43-10.84-5.32-22.89-13.87-25.11-8.11-4.11,10.64-4.77,30.18-12.55,29.45-12.83-1.19-38.61-24.49-46.37-27.72S342.79,424.3,334.4,424s-25.79-20.53-35-32c-8.78,17.11-47.93,31.84-70.86,11.44,20,21.52,45.08,70.63,15.05,81.8l-6.23,21.2c-21.16,0-47.35,0-56.42,29.95-7.42,24.5,4.6,63.58,50.22,63.58,18.59,51.86,55.59,95,82.78,104.16,38,12.82,87.05,9.63,111.14-2.6C445.13,691.38,480,586,479.19,513.78c0,0,.14-66.51-14.11-93.3"/><path class="cls-4" d="M469.3,878.9c-7.3-27.49-26.65-56.44-34.23-64.57,1.25,53-55,63.49-137.57,0,9.44,10.13,31.15,34.13,52.1,61.51C417,888.92,455.17,889.19,469.3,878.9Z"/><path class="cls-2" d="M469.3,878.9c-7.3-27.49-26.65-56.44-34.23-64.57,1.25,53-55,63.49-137.57,0,9.44,10.13,31.15,34.13,52.1,61.51"/><path class="cls-3" d="M75.42,1031.28s-22.26-77.42-22.26-116c0-75.95,97.2-114.39,148-133.71"/><path class="cls-3" d="M219.89,745,167.28,865.42c18.24,17.75,56.81,11.19,84.19-6.2"/><line class="cls-3" x1="455.18" y1="745.04" x2="488.23" y2="781.57"/><path class="cls-3" d="M445.08,951.39s-26-26.08-34.89-31.18c-35.69-4.52-81.92-4.28-117.2,6.45L210.1,1030.39"/><line class="cls-5" x1="316.55" y1="966.16" x2="349.89" y2="993.27"/><path class="cls-3" d="M303.62,1030.39h702.5a32.08,32.08,0,0,0,30.26-21.43l137-389.33a16,16,0,0,0-15.12-21.36H643.71a32.08,32.08,0,0,0-30.26,21.43L469.38,1030.39"/><path class="cls-6" d="M976.54,736.26l-21.87-5.2a1.75,1.75,0,0,1-1.36-1.52,58.21,58.21,0,0,0-2.11-14.08,2.51,2.51,0,0,1,.66-2.39l18.45-19.72a2.27,2.27,0,0,0,.56-2.82l-10.53-13.87a2.29,2.29,0,0,0-2.87-.21L933.58,689a2.53,2.53,0,0,1-2.47,0,58.5,58.5,0,0,0-13-5.86,1.35,1.35,0,0,1-1.11-1.73l.46-23a1.6,1.6,0,0,0-1.81-1.74H895.27a3,3,0,0,0-2.71,1.74l-11.3,22.75a3.62,3.62,0,0,1-2,1.74,100.52,100.52,0,0,0-16.1,5.85,2.52,2.52,0,0,1-2.47,0l-17.3-12.57a2.55,2.55,0,0,0-3,.22l-17.81,13.87a2.49,2.49,0,0,0-.91,2.81l8.12,19.73a2.46,2.46,0,0,1-.59,2.38,98.15,98.15,0,0,0-9.5,14.09,2.56,2.56,0,0,1-2.15,1.51l-24.87,5.42a2.91,2.91,0,0,0-2.3,2.17l-4.68,19.5a1.62,1.62,0,0,0,1.24,2.17l21.91,5.2a1.8,1.8,0,0,1,1.39,1.52,61.25,61.25,0,0,0,2.46,14.09,2.5,2.5,0,0,1-.59,2.38L794.55,803a2.3,2.3,0,0,0-.47,2.82l10.37,13.65a2.17,2.17,0,0,0,2.78.22l23-12.57a2.39,2.39,0,0,1,2.4,0A56.13,56.13,0,0,0,845.32,813a1.37,1.37,0,0,1,1.08,1.74l-.66,22.75a1.55,1.55,0,0,0,1.72,1.74H867a2.94,2.94,0,0,0,2.63-1.74l11.25-22.75a3.64,3.64,0,0,1,2-1.74,97.07,97.07,0,0,0,15.75-5.85,2.4,2.4,0,0,1,2.41,0L917.4,819.7a2.41,2.41,0,0,0,2.89-.22l17.53-13.65a2.6,2.6,0,0,0,1-2.82l-7.23-19.72a2.51,2.51,0,0,1,.66-2.38,106.07,106.07,0,0,0,9.84-14.09,2.64,2.64,0,0,1,2.18-1.52l24.63-5.2a3,3,0,0,0,2.38-2.17l5.53-19.5C978,737.35,977.59,736.48,976.54,736.26Zm-102.68,41c-16.32,0-26.21-13-22.11-29.11s20.81-29.1,37.36-29.1,26.44,13,22.11,29.1S890.19,777.29,873.86,777.29Z"/><path class="cls-7" d="M976.54,736.26l-21.87-5.2a1.75,1.75,0,0,1-1.36-1.52,58.21,58.21,0,0,0-2.11-14.08,2.51,2.51,0,0,1,.66-2.39l18.45-19.72a2.27,2.27,0,0,0,.56-2.82l-10.53-13.87a2.29,2.29,0,0,0-2.87-.21L933.58,689a2.53,2.53,0,0,1-2.47,0,58.5,58.5,0,0,0-13-5.86,1.35,1.35,0,0,1-1.11-1.73l.46-23a1.6,1.6,0,0,0-1.81-1.74H895.27a3,3,0,0,0-2.71,1.74l-11.3,22.75a3.62,3.62,0,0,1-2,1.74,100.52,100.52,0,0,0-16.1,5.85,2.52,2.52,0,0,1-2.47,0l-17.3-12.57a2.55,2.55,0,0,0-3,.22l-17.81,13.87a2.49,2.49,0,0,0-.91,2.81l8.12,19.73a2.46,2.46,0,0,1-.59,2.38,98.15,98.15,0,0,0-9.5,14.09,2.56,2.56,0,0,1-2.15,1.51l-24.87,5.42a2.91,2.91,0,0,0-2.3,2.17l-4.68,19.5a1.62,1.62,0,0,0,1.24,2.17l21.91,5.2a1.8,1.8,0,0,1,1.39,1.52,61.25,61.25,0,0,0,2.46,14.09,2.5,2.5,0,0,1-.59,2.38L794.55,803a2.3,2.3,0,0,0-.47,2.82l10.37,13.65a2.17,2.17,0,0,0,2.78.22l23-12.57a2.39,2.39,0,0,1,2.4,0A56.13,56.13,0,0,0,845.32,813a1.37,1.37,0,0,1,1.08,1.74l-.66,22.75a1.55,1.55,0,0,0,1.72,1.74H867a2.94,2.94,0,0,0,2.63-1.74l11.25-22.75a3.64,3.64,0,0,1,2-1.74,97.07,97.07,0,0,0,15.75-5.85,2.4,2.4,0,0,1,2.41,0L917.4,819.7a2.41,2.41,0,0,0,2.89-.22l17.53-13.65a2.6,2.6,0,0,0,1-2.82l-7.23-19.72a2.51,2.51,0,0,1,.66-2.38,106.07,106.07,0,0,0,9.84-14.09,2.64,2.64,0,0,1,2.18-1.52l24.63-5.2a3,3,0,0,0,2.38-2.17l5.53-19.5C978,737.35,977.59,736.48,976.54,736.26Zm-102.68,41c-16.32,0-26.21-13-22.11-29.11s20.81-29.1,37.36-29.1,26.44,13,22.11,29.1S890.19,777.29,873.86,777.29Z"/><path class="cls-8" d="M762.64,960.87l-58.33-34.15,3.47-10,80.3-30.65L782.22,903,730,921.86l38.76,21.33Z"/><path class="cls-8" d="M789.27,971.27l-15.14-8.51,80.48-87.48,14,9.86Z"/><path class="cls-8" d="M855.25,960.87l5.91-17,53.68-22L875.5,903l5.87-16.88,59.41,30.65-3.47,10Z"/><path class="cls-3" d="M174.15,531.84c-12.67-.52-28.41,3-35.18-3.7-10.41-10.34-2.12-39.56-11.65-48-10.56-9.33-38.63.88-48.41-8.24-10.62-9.9-.87-37-8.49-47.59-8.36-11.61-37.68-14.42-39.71-28.09-2.06-13.83,25.15-25.5,29.37-39,4-12.79-13.87-35.38-7.27-47.9,6.47-12.29,36.58-12.51,42.73-24.61,6-11.86-11.91-36.06-6.06-48.88,5.77-12.61,34.61-12.61,42.08-24,7.63-11.63-1.76-39.79,9.62-47.88s34.66,10.22,48.28,7c13.07-3.14,22.84-30.28,36.83-31.4,13.77-1.1,30,24.1,43.57,22.73,13.15-1.34,22.89-29.66,36.4-32.2s30.28,20.77,43.58,19.75c13.72-1.06,29.55-26.14,42.65-22.72s14.89,33.06,26.26,40.54,37.36-4.67,47.69,4c10.69,9,5.32,38.55,16,46,11.13,7.75,37.34-6.69,48.72.56,11.93,7.6,7.91,36.06,17.7,44.55,10.83,9.39,40.16,5.08,45.15,17.45,5.25,13-18.73,29.24-20.76,42.8-1.88,12.64,18.37,32.77,12.47,45.82-5.35,11.83-35,12-42,24.12-6.06,10.62,11.09,35.64,4.27,48.56-6,11.36-34.51,8.77-43.45,19.77-8,9.88-.37,38.22-12.46,46.29"/></svg>