<svg xmlns="http://www.w3.org/2000/svg" xmlns:xlink="http://www.w3.org/1999/xlink" width="100" height="100" viewBox="0 0 100 100"><g><g transform="translate(50 50) scale(0.69 0.69) rotate(0) translate(-50 -50)" style="fill:#1A1A1A"><svg fill="#1A1A1A" xmlns="http://www.w3.org/2000/svg" xmlns:xlink="http://www.w3.org/1999/xlink" version="1.1" x="0px" y="0px" viewBox="0 0 64 64" style="enable-background:new 0 0 64 64;" xml:space="preserve"><g><g><g><circle cx="25.7" cy="48.5" r="5.9"></circle></g><g><path d="M29.9,54.4c-1.2,0.8-2.6,1.3-4.2,1.3c-1.6,0-3-0.5-4.2-1.3c-1.8,0.1-3.3,1.6-3.3,3.5v3.3c0,1.2,0.9,2.1,2.1,2.1h10.5     c1.2,0,2.1-0.9,2.1-2.1v-3.3C32.9,56.1,31.6,54.7,29.9,54.4z"></path></g><g><circle cx="55.6" cy="48.5" r="5.9"></circle></g><g><path d="M59.8,54.4c-1.2,0.8-2.6,1.3-4.2,1.3c-1.6,0-3-0.5-4.2-1.3c-1.8,0.1-3.3,1.6-3.3,3.5v3.3c0,1.2,0.9,2.1,2.1,2.1h10.5     c1.2,0,2.1-0.9,2.1-2.1v-3.3C62.9,56.1,61.5,54.7,59.8,54.4z"></path></g><g><circle cx="40.7" cy="46.6" r="4.9"></circle></g><g><path d="M44.1,51.5c-1,0.7-2.2,1.1-3.5,1.1c-1.3,0-2.5-0.4-3.5-1.1c-1.5,0.1-2.7,1.4-2.7,2.9v2.4c0,1.2,0.9,2.1,2.1,2.1h8     c1.2,0,2.1-0.9,2.1-2.1v-2.4C46.7,52.9,45.6,51.7,44.1,51.5z"></path></g><g><path d="M24.2,31.5l7.5-9.2c0.6-0.8,0.7-1.8,0.2-2.6c0,0,0.1,0,0.1-0.1l6.9-7.9c0.3-0.3,0.2-0.8-0.1-1.1     c-0.3-0.3-0.8-0.2-1.1,0.1l-6.9,7.9c0,0-0.1,0.1-0.1,0.1c-0.9-0.3-1.9-0.1-2.6,0.7l-6.5,7.9c-0.3,0.4-1,0.4-1.3,0l-2.6-3     c-0.8-0.9-1.9-1.4-3-1.4l-4.1,0l-8.1,0c-1.3,0-2.3,1-2.3,2.3v14.2c0,1.3,1,2.3,2.3,2.3h0.8v20c0,1.2,1,2.2,2.3,2.2     c1.2,0,2.3-1,2.3-2.2v-14c0-1.3,1.1-2.2,2.5-2c1,0.2,1.7,1.1,1.7,2.1v13.9c0,1.2,1,2.2,2.3,2.2c1.3,0,2.3-1,2.3-2.2V39.6v-9.8     l1.6,1.8C19.8,33.5,22.7,33.4,24.2,31.5z"></path></g><g><ellipse cx="9.3" cy="14.4" rx="5.6" ry="5.6"></ellipse></g><g><path d="M62.6,0H9C8.3,0,7.7,0.6,7.7,1.3V7c0.5-0.1,1-0.2,1.6-0.2c0.3,0,0.6,0,1,0.1V2.5h51.1v35H18.5V40h44     c0.7,0,1.3-0.6,1.3-1.3V1.3C63.8,0.6,63.2,0,62.6,0z"></path></g><g><path d="M56.6,7h-32c-0.4,0-0.8,0.3-0.8,0.8c0,0.4,0.3,0.8,0.8,0.8h32c0.4,0,0.8-0.3,0.8-0.8C57.3,7.3,57,7,56.6,7z"></path></g><g><path d="M56.6,13.1H39.4c-0.4,0-0.8,0.3-0.8,0.8c0,0.4,0.3,0.8,0.8,0.8h17.2c0.4,0,0.8-0.3,0.8-0.8C57.3,13.4,57,13.1,56.6,13.1z     "></path></g><g><path d="M56.6,19.2H35.1c-0.4,0-0.8,0.3-0.8,0.8s0.3,0.8,0.8,0.8h21.5c0.4,0,0.8-0.3,0.8-0.8S57,19.2,56.6,19.2z"></path></g><g><path d="M56.6,25.4h-25c-0.4,0-0.8,0.3-0.8,0.8c0,0.4,0.3,0.8,0.8,0.8h25c0.4,0,0.8-0.3,0.8-0.8C57.3,25.7,57,25.4,56.6,25.4z"></path></g><g><path d="M56.6,31.5H27.9c-0.4,0-0.8,0.3-0.8,0.8c0,0.4,0.3,0.8,0.8,0.8h28.7c0.4,0,0.8-0.3,0.8-0.8C57.3,31.9,57,31.5,56.6,31.5z     "></path></g></g></g></svg></g></g></svg>