<svg width="159" height="32" viewBox="0 0 159 32" fill="none" xmlns="http://www.w3.org/2000/svg">
<g id="logo-gradient-white-bitbucket">
<g clip-path="url(#clip0)">
<path d="M0 0H159V32H0V0Z" fill="white" fill-opacity="0.01"/>
<g id="Bitbucket">
<path d="M33.7705 5.59874H42.4095C46.6219 5.59874 48.6567 7.61453 48.6567 10.8468C48.6567 13.2796 47.5143 14.7741 45.1939 15.2954C48.2283 15.782 49.7633 17.4155 49.7633 20.2654C49.7633 23.4629 47.55 25.6872 42.9093 25.6872H33.7705V5.59874ZM36.5907 14.1833H42.0168C44.6942 14.1833 45.8008 13.0016 45.8008 11.0553C45.8008 9.109 44.6228 8.17062 42.0168 8.17062H36.5907V14.1833ZM36.5907 16.6509V22.9068H43.0163C45.7294 22.9068 46.9432 21.9684 46.9432 19.9526C46.9432 17.7978 45.7651 16.6509 42.945 16.6509H36.5907Z" fill="white"/>
<path d="M54.3685 4.52133C55.4751 4.52133 56.2605 5.18167 56.2605 6.36335C56.2605 7.51027 55.4751 8.20537 54.3685 8.20537C53.2618 8.20537 52.4764 7.54502 52.4764 6.36335C52.4764 5.18167 53.2618 4.52133 54.3685 4.52133ZM52.9762 10.3949H55.6893V25.6872H52.9762V10.3949Z" fill="white"/>
<path d="M66.0061 23.2196C66.6486 23.2196 67.2198 23.0806 67.7196 23.0111V25.5482C67.2555 25.6872 66.72 25.7915 65.899 25.7915C62.5434 25.7915 60.9012 23.8799 60.9012 21.03V12.8278H58.3667V10.3949H60.9012V7.16272H63.5429V10.3949H67.7196V12.8278H63.5429V20.9258C63.5072 22.2812 64.3283 23.2196 66.0061 23.2196Z" fill="white"/>
<path d="M73.8597 22.9763V25.6524H71.1466V4H73.8597V13.1406C74.8592 11.1248 76.7512 10.0821 79.1787 10.0821C83.3554 10.0821 85.4616 13.5229 85.4616 18.0411C85.4616 22.3507 83.2483 26 78.8574 26C76.537 26 74.7878 24.9921 73.8597 22.9763ZM78.4291 12.5498C76.0016 12.5498 73.8597 14.0442 73.8597 17.4502V18.6667C73.8597 22.0727 75.8231 23.5671 78.1435 23.5671C81.1778 23.5671 82.7485 21.6209 82.7485 18.0758C82.7485 14.357 81.2492 12.5498 78.4291 12.5498Z" fill="white"/>
<path d="M88.2818 10.3949H90.9948V19.6398C90.9948 22.3855 92.1372 23.6019 94.7074 23.6019C97.2063 23.6019 98.9555 21.9684 98.9555 18.8752V10.3949H101.669V25.6872H98.9555V23.1848C97.956 24.9921 96.0997 26 93.9935 26C90.388 26 88.3175 23.5671 88.3175 19.3618V10.3949H88.2818Z" fill="white"/>
<path d="M116.805 25.2701C115.877 25.7567 114.413 25.9652 112.985 25.9652C107.38 25.9652 104.774 22.6635 104.774 17.9716C104.774 13.3491 107.38 10.0474 112.985 10.0474C114.413 10.0474 115.484 10.2212 116.733 10.7772V13.2101C115.734 12.7583 114.663 12.4803 113.199 12.4803C109.13 12.4803 107.452 14.9826 107.452 17.9716C107.452 20.9605 109.165 23.4629 113.271 23.4629C114.877 23.4629 115.877 23.2543 116.84 22.9068V25.2701H116.805Z" fill="white"/>
<path d="M119.875 25.6872V4H122.588V17.5545L129.335 10.3949H132.869L125.479 17.9021L133.154 25.6872H129.478L122.552 18.5276V25.6872H119.875Z" fill="white"/>
<path d="M142.115 26C136.224 26 133.654 22.6983 133.654 18.0063C133.654 13.3839 136.296 10.0821 141.079 10.0821C145.934 10.0821 147.862 13.3491 147.862 18.0063V19.188H136.403C136.796 21.7946 138.509 23.4629 142.222 23.4629C144.042 23.4629 145.577 23.1153 147.005 22.6288V25.0616C145.684 25.7567 143.721 26 142.115 26ZM136.367 16.9289H145.149C145.006 14.079 143.685 12.4803 140.972 12.4803C138.081 12.4803 136.653 14.2875 136.367 16.9289Z" fill="white"/>
<path d="M157.286 23.2196C157.929 23.2196 158.5 23.0806 159 23.0111V25.5482C158.536 25.6872 158 25.7915 157.179 25.7915C153.824 25.7915 152.182 23.8799 152.182 21.03V12.8278H149.647V10.3949H152.182V7.16272H154.823V10.3949H159V12.8278H154.823V20.9258C154.788 22.2812 155.609 23.2196 157.286 23.2196Z" fill="white"/>
</g>
<g id="Icon">
<path id="Vector" d="M21.3119 12.7235H14.6007L13.494 19.1185H8.85324L3.35571 25.4439C3.35571 25.4439 3.6056 25.6872 3.99828 25.6872H18.5275C18.8844 25.6872 19.17 25.4439 19.2414 25.0963L21.3119 12.7235Z" fill="url(#paint0_linear)"/>
<path id="Vector_2" d="M0.713708 6.18958C0.285329 6.18958 -0.0716532 6.57188 -0.000256691 6.98894L3.03409 24.8878C3.06979 25.0964 3.17689 25.3049 3.35538 25.4439C3.35538 25.4439 3.60527 25.6872 3.99795 25.6872L9.63827 19.1185H8.85291L7.60347 12.7235H14.636H21.3473L22.3111 6.98894C22.3825 6.57188 22.0613 6.18958 21.5972 6.18958H0.713708Z" fill="white"/>
</g>
</g>
</g>
<defs>
<linearGradient id="paint0_linear" x1="22.191" y1="15.5688" x2="11.8892" y2="22.7312" gradientUnits="userSpaceOnUse">
<stop offset="0.0718327" stop-color="white" stop-opacity="0.4"/>
<stop offset="1" stop-color="white"/>
</linearGradient>
<clipPath id="clip0">
<path d="M0 0H159V32H0V0Z" fill="white"/>
</clipPath>
</defs>
</svg>
