<svg id="Layer_1" data-name="Layer 1" xmlns="http://www.w3.org/2000/svg" xmlns:xlink="http://www.w3.org/1999/xlink" viewBox="0 0 1200 1200"><defs><style>.cls-1{fill:url(#New_Gradient_Swatch);}.cls-2{fill:#858585;}.cls-3{fill:#262626;}</style><linearGradient id="New_Gradient_Swatch" x1="68.54" y1="204.78" x2="1131.45" y2="204.78" gradientUnits="userSpaceOnUse"><stop offset="0" stop-color="#24ae1d"/><stop offset="1" stop-color="#89df00"/></linearGradient></defs><path class="cls-1" d="M600,30C286.81,30,68.54,122.12,68.54,204.78S286.81,379.55,600,379.55s531.45-92.1,531.45-174.77S913.19,30,600,30Z"/><path class="cls-2" d="M194,831.07a1386,1386,0,0,1-24.91-225.9c86.75,36.59,195.28,56.43,300.1,65.11,16.41,82.51,51.52,159,101.14,225.54C413.7,892.87,282.8,866.79,194,831.07ZM182.94,361.5a1406.92,1406.92,0,0,0-14.4,192.43c73.74,34.54,179,57.06,293.2,67.14a546.44,546.44,0,0,1,15.64-199C368.17,413.54,264.77,393.34,182.94,361.5ZM600,1150c110.84,0,209.79-11.54,291.38-30.11-110.5-34.4-207.41-96-281.34-176.25-145.32,1-291.5-18-404-57.32,19.56,81.29,46.3,157.78,79.14,227.92C371,1136.09,478.32,1150,600,1150Z"/><path class="cls-3" d="M108.56,371.55q18.81,10,40,19.1c39.11,16.79,84.29,31.17,134.28,42.76,94.41,21.89,204.06,33.46,317.08,33.46s222.83-11.58,317.35-33.49c50-11.6,95.2-26,134.31-42.77q21.09-9,39.88-19.06v81.51c0,.24-.06.55-.09.79l-.09.85a21,21,0,0,1-2.87,7.61c-25.39,36.1-87.63,68.26-175.52,90.65C826.24,575,716,587.17,602.57,587.17c-110.93,0-220.06-11.6-307.29-32.66-88.68-21.42-152.38-51.92-179.36-85.89l0-.05,0-.06c-4.37-5.45-7-10.93-7.27-15.13V371.55m0,249.07c52.25,28.1,117.37,50.38,194.63,66.52,113.24,23.65,225.36,28.62,299.48,28.62,25.7,0,51.11-.61,75.51-1.79h.12c106.39-5.5,286.15-25.12,413.17-93.19V721.32c0,5.44-6.27,16.8-24,30.94-22.12,17.67-55.92,34.88-97.73,49.76-98,34.87-229.27,54.07-369.76,54.07S328.19,836.89,230.24,802c-41.82-14.88-75.61-32.09-97.73-49.76-17.69-14.14-24-25.5-24-30.94V620.62m0,267.13q19.39,10.34,41.17,19.66C189,924.23,234.19,938.63,284,950.23c94.09,21.89,203.14,33.46,315.38,33.46,110.38,0,218.07-11.2,311.42-32.38,49.2-11.16,94-25,133.06-41.17q25.33-10.47,47.58-22.27v87.36c0,5.43-6.28,16.79-24,30.93-22.12,17.67-55.91,34.88-97.73,49.77C871.82,1090.8,740.5,1110,600,1110s-271.81-19.2-369.76-54.07c-41.81-14.89-75.61-32.1-97.73-49.77-17.69-14.14-24-25.5-24-30.93V887.75M1131.42,297.1c-101.55,86.47-316.54,129.77-531.54,129.77-214.78,0-429.57-43.21-531.32-129.77V453.81h0c.34,14.66,7,28.36,16.06,39.7,70,88.13,294.11,133.66,518,133.66,226.94,0,453.63-46.76,519.56-143.35a62,62,0,0,0,8.85-24.59,49.16,49.16,0,0,0,.44-5.38V297.1Zm0,248.85C1029.26,633.63,830.88,666,676.22,674c-23.14,1.13-47.84,1.75-73.57,1.75-182,0-416.78-30.79-534.11-129.81V721.32C68.54,804,286.81,896.09,600,896.09s531.45-92.1,531.45-174.77V546Zm0,267.69c-1.92,1.63-3.83,3.26-5.77,4.87-105.39,83.21-315.77,125.18-526.29,125.18-213.25,0-426.64-43.1-530.85-130.05V975.23C68.56,1057.89,286.82,1150,600,1150s531.46-92.11,531.46-174.77V813.64Z"/><path class="cls-3" d="M600,70c140.49,0,271.81,19.2,369.76,54.08,41.81,14.88,75.61,32.09,97.73,49.77,17.69,14.13,24,25.5,24,30.93s-6.27,16.8-24,30.93c-22.12,17.68-55.92,34.89-97.73,49.77-98,34.87-229.27,54.07-369.76,54.07s-271.81-19.2-369.76-54.07c-41.82-14.88-75.61-32.09-97.73-49.77-17.69-14.13-24-25.49-24-30.93s6.28-16.8,24-30.93c22.12-17.68,55.91-34.89,97.73-49.77C328.19,89.2,459.51,70,600,70m0-40C286.81,30,68.54,122.12,68.54,204.78S286.81,379.55,600,379.55s531.45-92.1,531.45-174.77S913.19,30,600,30Z"/></svg>