<svg xmlns="http://www.w3.org/2000/svg" xmlns:xlink="http://www.w3.org/1999/xlink" width="100" height="100" viewBox="0 0 100 100"><g><g transform="translate(50 50) scale(0.69 0.69) rotate(0) translate(-50 -50)" style="fill:#1A1A1A"><svg fill="#1A1A1A" xmlns:dc="http://purl.org/dc/elements/1.1/" xmlns:cc="http://creativecommons.org/ns#" xmlns:rdf="http://www.w3.org/1999/02/22-rdf-syntax-ns#" xmlns:svg="http://www.w3.org/2000/svg" xmlns="http://www.w3.org/2000/svg" version="1.1" viewBox="0 0 6.6145832 6.6145835" x="0px" y="0px"><g transform="translate(0,-290.3854)"><g transform="matrix(0.08170421,0,0,0.08170421,0.47751522,289.7821)"><path d="m 8.2853553,32.853762 c -0.2733315,-0.356704 3.9209427,-4.469445 12.4281967,-6.844916 4.194431,-1.177718 9.026952,-1.885293 14.415059,-1.854034 0.332585,0.0019 0.663731,0.0067 0.993338,0.01408 5.671426,0.122917 10.648998,1.029089 14.873257,2.393371 7.571709,2.425002 11.195187,6.140061 10.877691,6.517745 -0.272458,0.324107 -4.270271,-2.674942 -11.448022,-4.565834 -4.135374,-1.077833 -8.874194,-1.790804 -14.353504,-1.898361 -0.317443,-0.006 -0.636245,-0.0098 -0.956319,-0.01151 -5.195982,-0.02733 -9.798337,0.525225 -13.87958,1.454354 -8.01973,1.83844 -12.6758716,5.153005 -12.9501167,4.795109 z" style="" fill="#1A1A1A" stroke="none"></path><path d="m 56.200582,79.632433 c 0.220082,0.278348 -3.035947,3.623792 -9.782112,5.567285 -3.306294,0.957669 -7.123582,1.534576 -11.377204,1.50902 -0.261834,-0.0016 -0.522538,-0.0054 -0.782033,-0.01144 -4.476768,-0.09999 -8.408225,-0.839075 -11.735989,-1.947872 -6.004152,-1.984014 -8.814804,-5.005915 -8.558857,-5.300985 0.22644,-0.261054 3.364285,2.170947 9.03764,3.712954 3.251981,0.874581 6.986277,1.454988 11.299724,1.542464 0.249271,0.0048 0.499607,0.008 0.750936,0.0093 4.090818,0.0222 7.717161,-0.427344 10.927532,-1.181549 6.336984,-1.498775 9.992212,-4.187751 10.220363,-3.899197 z" style="" fill="#1A1A1A" stroke="none"></path><path d="m 61.748489,33.392372 c 0.253085,0.40433 -4.223444,3.783619 -12.435861,5.682932 -4.178425,0.972569 -8.945637,1.549102 -14.275044,1.524266 -0.333895,-0.0016 -0.666326,-0.0055 -0.997199,-0.0116 C 28.42722,40.487091 23.514598,39.750464 19.294167,38.620768 11.98716,36.682527 8.1073206,33.629471 8.3964804,33.208376 c 0.2186694,-0.318442 4.3042476,2.114334 11.3298966,3.601551 4.16271,0.870525 8.870894,1.436712 14.352082,1.523134 0.321698,0.0049 0.644799,0.0081 0.96922,0.0094 5.193795,0.02223 9.769997,-0.417758 13.8699,-1.166578 7.860833,-1.447872 12.612165,-4.13302 12.83091,-3.783551 z" style="" fill="#1A1A1A" stroke="none"></path><path d="m 9.2773691,29.163701 c -0.1918452,-0.06941 0.079408,-2.094352 1.6016449,-5.293487 1.467309,-3.0837 4.333989,-7.598803 9.343057,-10.938373 4.047579,-2.6715 9.283363,-4.3937751 15.065471,-4.3313965 0.535861,0.00578 1.068657,0.026995 1.597511,0.06319 6.359551,0.4326675 11.8395,2.8709645 15.865756,5.9427375 8.888634,6.776866 8.892275,14.182375 8.975024,14.15643 -0.230947,0.07241 -0.850142,-1.492357 -2.357102,-3.902485 -1.503725,-2.404954 -3.992843,-5.658073 -7.963628,-8.40567 -3.836611,-2.653318 -8.913048,-4.752162 -14.696796,-5.124374 -0.479555,-0.03064 -0.962726,-0.0486 -1.448717,-0.05349 -5.238402,-0.05272 -10.007032,1.400243 -13.745935,3.684468 -4.636062,2.79968 -7.629228,6.851423 -9.371909,9.603714 -1.804669,2.85019 -2.6159414,4.688624 -2.8643769,4.598737 z" style="" fill="#1A1A1A" stroke="none"></path><path d="m 56.219487,79.63238 c -0.566792,-0.06737 0.183473,-10.30352 1.674699,-22.84854 1.491225,-12.54502 3.161501,-22.671808 3.728292,-22.604434 0.566792,0.06737 -0.183473,10.303525 -1.674699,22.848544 -1.491225,12.54502 -3.1615,22.671804 -3.728292,22.60443 z" style="" fill="#1A1A1A" stroke="none"></path><path d="M 13.926817,79.322918 C 13.360025,79.390293 11.68975,69.263507 10.198524,56.718484 8.7072982,44.173462 7.957033,33.937315 8.5238248,33.86994 c 0.5667918,-0.06737 2.2370672,10.059411 3.7282932,22.604434 1.491226,12.545022 2.241491,22.781169 1.674699,22.848544 z" style="" fill="#1A1A1A" stroke="none"></path><path d="m 21.546322,76.471094 c -0.40808,0.04851 -1.610649,-7.242601 -2.684307,-16.274801 -1.073656,-9.032198 -1.613834,-16.402044 -1.205754,-16.450552 0.40808,-0.04851 1.610649,7.242599 2.684306,16.274797 1.073657,9.032199 1.613835,16.402048 1.205755,16.450556 z" style="" fill="#1A1A1A" stroke="none"></path></g></g></svg></g></g></svg>