<svg id="Logos" xmlns="http://www.w3.org/2000/svg" xmlns:xlink="http://www.w3.org/1999/xlink" width="369.79" height="150" viewBox="0 0 369.79 150"><defs><style>.cls-1{fill:#253858;}.cls-2{fill:#2684ff;}.cls-3{fill:url(#linear-gradient);}</style><linearGradient id="linear-gradient" x1="54.08" y1="61.51" x2="59.81" y2="99.8" gradientUnits="userSpaceOnUse"><stop offset="0" stop-color="#2684ff"/><stop offset="1" stop-color="#0052cc"/></linearGradient></defs><title>crowd-logo-gradient-blue</title><path class="cls-1" d="M140.41,97.9c-3.61,2.38-9.33,3.43-15.31,3.43-19,0-29.75-11.44-29.75-29.65,0-17.6,10.74-29.92,29.57-29.92,5.63,0,11.26,1.05,15.4,4.05v7.65c-4.14-2.64-8.71-4.05-15.4-4.05-13.55,0-21.65,9-21.65,22.27s8.36,22.09,22.09,22.09a32.53,32.53,0,0,0,15-3.52Z"/><path class="cls-1" d="M156.87,100.45h-7.4v-44h7.4V64.2c2.55-5.19,6.95-8.89,15.57-8.36v7.39c-9.68-1-15.57,1.94-15.57,11.26Z"/><path class="cls-1" d="M175.43,78.37c0-13.2,7.75-22.8,20.95-22.8s20.76,9.6,20.76,22.8-7.65,23-20.76,23S175.43,91.57,175.43,78.37Zm7.4,0c0,8.36,4.13,15.92,13.55,15.92s13.37-7.56,13.37-15.92-4.05-15.76-13.37-15.76S182.83,70,182.83,78.37Z"/><path class="cls-1" d="M268.36,100.45l-7.57-21.29-4-13.55L252.7,79.16l-7.57,21.29h-9.68l-16.19-44h8.36l12.67,37.32,12.85-37.32h7.21L273.2,93.77l12.67-37.32h8.36l-16.19,44Z"/><path class="cls-1" d="M328.82,92.53c-2.82,5.81-8.1,8.8-14.87,8.8-11.71,0-17.6-9.94-17.6-22.88,0-12.4,6.16-22.88,18.48-22.88,6.42,0,11.35,2.91,14,8.63V38.06h7.57v62.39h-7.57ZM316,94.29c6.78,0,12.85-4.31,12.85-14.08V76.69c0-9.76-5.55-14.08-12-14.08-8.54,0-12.94,5.64-12.94,15.84C303.91,89,308.14,94.29,316,94.29Z"/><path class="cls-2" d="M69.05,50.59,37.31,38.91,5.58,50.59a2.11,2.11,0,0,0-1.38,2l.67,18c.48,14.89,8,26,19.69,33.19a2.11,2.11,0,0,0,3.05-1l6.84-16.14a1.05,1.05,0,0,0-.66-1.41,12.23,12.23,0,1,1,7.05,0,1,1,0,0,0-.66,1.41L47,102.88a2.1,2.1,0,0,0,3,1c11.73-7.23,19.2-18.3,19.69-33.19l.66-18A2.1,2.1,0,0,0,69.05,50.59Z"/><path class="cls-3" d="M37.31,61.4a12.22,12.22,0,0,1,3.53,23.93,1,1,0,0,0-.66,1.41L47,102.88a2.1,2.1,0,0,0,3,1c11.73-7.23,19.2-18.3,19.69-33.19l.66-18a2.1,2.1,0,0,0-1.37-2L37.31,38.91Z"/></svg>