<svg xmlns="http://www.w3.org/2000/svg" xmlns:xlink="http://www.w3.org/1999/xlink" width="100" height="100" viewBox="0 0 100 100"><g><g transform="translate(50 50) scale(0.69 0.69) rotate(0) translate(-50 -50)" style="fill:#1A1A1A"><svg fill="#1A1A1A" xmlns="http://www.w3.org/2000/svg" data-name="Layer 1" viewBox="0 0 128 128" x="0px" y="0px"><title>Miscellaneous 58 expandlines</title><path d="M127.1499,104.13347,107.224,90.12114c7.8498-9.50357,12.775-23.07159,12.775-38.119,0-28.67148-17.86274-51.99751-39.81955-51.99751A30.81408,30.81408,0,0,0,73.77478.6864a1.97971,1.97971,0,0,0-.5178-.15c-22.41388-2.9564-32.7477,7.15-35.04671,9.81691C28.508,12.823,25.48093,20.50033,25.13136,25.03722c-.44162.12243-.80963.22954-1.07943.31047C11.55,29.608,17.14788,49.41343,17.7631,51.45716A20.66406,20.66406,0,0,0,14.99066,62.0017c0,9.37357,5.729,16.99919,12.77151,16.99919.23342,0,.46519-.0166.69689-.033a51.95332,51.95332,0,0,0,5.41254,12.00077L1.40854,111.3133a3.057,3.057,0,0,0-1.01082,4.094l6.89507,11.61224a2.00006,2.00006,0,1,0,3.43972-2.04189L4.3326,114.20134l9.70206-6.08L27.353,127.14555a2.00027,2.00027,0,0,0,3.2776-2.29384L17.42891,105.99416l8.57227-5.37206a41.2191,41.2191,0,0,0,34.65325,18.53311q.564,0,1.13876-.01367a1.96328,1.96328,0,0,0,.21492-.027l-.01373,4.91883a3.917,3.917,0,0,0,1.87222,3.35677,4.01416,4.01416,0,0,0,3.931.18163l10.53355-5.25195A7.49564,7.49564,0,0,0,82.8925,124.195c.14454.00781.28713.01172.4307.01172a7.473,7.473,0,0,0,4.96133-1.86954c.16835-.14819.32638-.30467.479-.465l11.43108,5.69913a4.01231,4.01231,0,0,0,3.931-.18114,3.917,3.917,0,0,0,1.87222-3.35677l-.01715-6.147a22.45846,22.45846,0,0,0,13.41146-14.31859l4.18618,2.944-7.12752,18.77742a2.0003,2.0003,0,1,0,3.74053,1.41888l7.67834-20.2295A1.99874,1.99874,0,0,0,127.1499,104.13347ZM39.767,14.09384a2.02371,2.02371,0,0,0,1.17685-.76656c.31545-.42356,7.03742-9.16405,23.93792-9.32646C57.124,8.23242,50.60388,15.57887,46.24136,24.839c-4.0818-2.76177-11.63062-1.9075-16.90838-.81576C29.94277,21.09893,32.104,15.79365,39.767,14.09384ZM61.69552,115.14271q-.52006.01318-1.03133.01269a37.21587,37.21587,0,0,1-31.27413-16.657l6.72917-4.217c5.16447,6.96054,13.28614,13.6639,25.70717,14.71121.05665.00439.11427.00684.16994.00684.01361,0,.02643-.00354.04-.00384l-.01721,6.16566A1.79362,1.79362,0,0,0,61.69552,115.14271Zm2.23943-10.5493a4.00447,4.00447,0,0,0-.87208.72592,1.98025,1.98025,0,0,0-.90052-.31285c-21.1747-1.785-28.30289-21.652-29.86515-27.095a11.85574,11.85574,0,0,0,2.45771-1.65361,2.00008,2.00008,0,1,0-2.61935-3.02329,6.68683,6.68683,0,0,1-4.37339,1.76652c-4.75428,0-8.7712-5.95284-8.7712-12.99938s4.01692-12.99938,8.7712-12.99938a7.365,7.365,0,0,1,5.66256,3.12241,2,2,0,0,0,3.135-2.48426,11.26126,11.26126,0,0,0-8.79757-4.638,10.52722,10.52722,0,0,0-6.81725,2.64917c-1.10842-5.19836-2.54524-16.15218,4.32584-18.49509,6.478-1.93545,16.724-3.39632,19.22906-.58591.03376.038.07386.06616.10981.10095a64.85662,64.85662,0,0,0-4.24979,23.33055,66.56231,66.56231,0,0,0,2.10563,16.7492h-4.473a1.9999,1.9999,0,1,0,0,3.99981h6.96637A2.0009,2.0009,0,0,0,46.959,70.71466l-.00977-.53025a2.03192,2.03192,0,0,0-.082-.53074,62.15992,62.15992,0,0,1-2.507-17.6515c0-26.466,16.06865-47.9977,35.81923-47.9977,12.22161,0,23.02818,8.25,29.49512,20.80686a12.8765,12.8765,0,0,0-10.72021.81173,2,2,0,0,0,2.0861,3.41292c.23348-.14349,5.76156-3.41066,11.46563,2.30879a61.51364,61.51364,0,0,1,3.49259,20.6574c0,26.466-16.06865,47.9977-35.81923,47.9977a29.42517,29.42517,0,0,1-19.09916-7.40931,2.00029,2.00029,0,0,0-2.58809,3.05064,33.3738,33.3738,0,0,0,21.68726,8.35849c9.16259,0,17.60558-4.07256,24.3417-10.88986l4.59832,3.23379c-.01734.04907-.04126.09411-.05494.1452a17.45,17.45,0,0,1-5.327,7.93578,3.99937,3.99937,0,0,0-3.61613.0155L87.63244,110.79a7.51672,7.51672,0,0,0-8.04415-.39219l-11.71748-5.95772A4.01039,4.01039,0,0,0,63.935,104.59341Zm2.05973,19.45073.06348-16.03878,10.61052,5.39543a7.20378,7.20378,0,0,0-.51512,5.55088Zm20.78582-7.03873a3.32789,3.32789,0,0,1-1.13974,2.32948,3.50039,3.50039,0,0,1-2.52559.86617,3.39359,3.39359,0,0,1,.17677-6.78483c.06641,0,.13282.002.20021.00586a3.49934,3.49934,0,0,1,2.41425,1.14155,3.32488,3.32488,0,0,1,.87409,2.44129Zm3.84082,1.32361a7.4056,7.4056,0,0,0,.15364-1.10194,7.28341,7.28341,0,0,0-.57561-3.26638l11.75325-6.0071.02735,16.03829Zm15.34728-4.77779-.01569-5.60984c-.00018-.04419-.00726-.08691-.00885-.13085a22.17885,22.17885,0,0,0,6.57895-9.07342l3.41079,2.39869A18.496,18.496,0,0,1,105.9686,113.55123Z"></path><path d="M79.99579,69.21864a6.2749,6.2749,0,0,0,2.68967,5.35326,10.04367,10.04367,0,0,0,5.66549,1.4223,31.6117,31.6117,0,0,0,9.656-1.87c4.81386-1.52581,7.48106-3.77326,7.92738-6.67937.67779-4.42069-4.2015-7.983-4.76014-8.37509a2.079,2.079,0,0,0-.20412-.12548c-7.402-3.96368-9.93535-17.17252-9.95977-17.30581a2.00026,2.00026,0,0,0-3.9339.727c.11329.61667,2.87913,15.10426,11.88766,20.041,1.10263.80367,3.25026,2.9066,3.01586,4.43143-.18751,1.22309-2.07634,2.48914-5.266,3.50227-3.3069,1.2099-9.43141,2.53406-11.77144.92915a2.30937,2.30937,0,0,1-.94636-2.12685,2.00052,2.00052,0,0,0-4.00032.07617Z"></path><path d="M61.19646,32.10128c1.88394-1.22162,4.32456-1.42181,7.25643-.59567A2,2,0,0,0,69.537,27.6552c-4.08724-1.14985-7.6256-.78365-10.51645,1.08979-4.96035,3.21469-5.96531,9.69241-6.00536,9.96681a2,2,0,1,0,3.95734.582C56.9803,39.24449,57.79189,34.30722,61.19646,32.10128Z"></path><path d="M69.995,46.14845a2.00032,2.00032,0,0,0-2.60372,1.10346l-1.2501,3.08774a1.99946,1.99946,0,0,0,1.32335,2.67858,24.5949,24.5949,0,0,0,6.49856.977A12.12276,12.12276,0,0,0,79.58658,52.798a4.3536,4.3536,0,0,0,2.25408-2.59509,3.76475,3.76475,0,0,0-.3555-2.95933l-4.69373-8.23154a2,2,0,0,0-3.47488,1.98135l4.63122,8.12168a.99173.99173,0,0,1-.1963.12841c-.98738.50974-3.12427,1.15375-7.025.42967l.3721-.92037A1.99913,1.99913,0,0,0,69.995,46.14845Z"></path><path d="M99.30493,51.65454a19.34758,19.34758,0,0,0,6.67338,1.34466,10.006,10.006,0,0,0,5.83151-1.66984,5.10013,5.10013,0,0,0,1.78139-6.16426,2.00894,2.00894,0,0,0-.16115-.3037l-5.77975-8.94391a2,2,0,0,0-3.35964,2.17079l5.66256,8.76228a1.0707,1.0707,0,0,1-.42,1.19037c-1.15732.80221-3.26979,1.456-6.9527.46775l.29885-.82857a2.00029,2.00029,0,0,0-3.764-1.3554l-1.00008,2.77623A2.00006,2.00006,0,0,0,99.30493,51.65454Z"></path><path d="M88.66835,78.79923c-8.38347,1.392-13.92-4.8318-14.1603-5.10669a2.00026,2.00026,0,0,0-3.02954,2.61267c.26076.30223,5.87546,6.69841,14.74237,6.69841a18.86852,18.86852,0,0,0,3.10376-.25926,1.99967,1.99967,0,1,0-.6563-3.94512Z"></path><path d="M105.48511,74.692c-1.21885,1.40862-4.50914,2.65466-8.8005,3.33334a2.00022,2.00022,0,0,0,.30959,3.97588,2.02928,2.02928,0,0,0,.31545-.0249c3.78545-.59909,8.80148-1.89444,11.20108-4.66628a2.00053,2.00053,0,0,0-3.02563-2.618Z"></path><path d="M88.68788,88.59613C73.72967,90.93,68.97246,82.45433,68.76541,82.07056a2,2,0,0,0-3.54715,1.84854c.21388.415,4.87148,9.086,18.45263,9.086a36.56493,36.56493,0,0,0,5.63423-.457,1.99994,1.99994,0,1,0-.61724-3.952Z"></path><path d="M23.9025,56.31838a1.99995,1.99995,0,0,0,1.16122,3.82745,3.45041,3.45041,0,0,1,4.52575,2.47449,2.00054,2.00054,0,0,0,3.805-1.23725A7.46386,7.46386,0,0,0,23.9025,56.31838Z"></path></svg></g></g></svg>