<svg xmlns="http://www.w3.org/2000/svg" xmlns:xlink="http://www.w3.org/1999/xlink" width="100" height="100" viewBox="0 0 100 100"><g><g transform="translate(50 50) scale(0.69 0.69) rotate(0) translate(-50 -50)" style="fill:#1A1A1A"><svg fill="#1A1A1A" xmlns="http://www.w3.org/2000/svg" data-name="Layer 1" viewBox="0 0 64 64" x="0px" y="0px"><title>repository-storage-store-database-data-file</title><path d="M18,52c7.056,0,14.155-1.99,15.826-4.436A1,1,0,0,0,34,47V18.5c0-4.222-8.243-6.5-16-6.5S2,14.278,2,18.5V47a1,1,0,0,0,.174.564C3.931,50.134,10.586,52,18,52Zm0-38c8.674,0,14,2.621,14,4.5S26.674,23,18,23,4,20.379,4,18.5,9.326,14,18,14ZM4,21.773c.03.022.065.042.095.063.058.041.12.08.18.12q.294.2.62.381c.068.038.134.077.2.115q.414.223.869.428c.051.023.106.044.158.067q.4.171.824.33l.275.1c.334.118.676.232,1.031.338l.018.006c.363.107.74.206,1.123.3.1.026.206.05.31.074.323.076.65.147.983.213.074.015.147.031.221.045.4.076.8.145,1.214.207.1.016.2.03.3.044.335.049.674.093,1.015.132.1.012.206.025.309.036q.635.069,1.276.117l.227.014q.544.038,1.092.06l.352.013c.433.014.867.024,1.3.024s.866-.01,1.3-.024l.352-.013q.547-.023,1.092-.06l.227-.014q.642-.048,1.276-.117c.1-.011.206-.024.309-.036.341-.039.68-.083,1.015-.132.1-.014.2-.028.3-.044.41-.062.816-.131,1.214-.207.074-.014.147-.03.221-.045.333-.066.66-.137.983-.213.1-.024.207-.048.31-.074.383-.094.76-.193,1.123-.3l.018-.006c.355-.106.7-.22,1.031-.338l.275-.1q.424-.159.824-.33c.052-.023.107-.044.158-.067q.456-.2.869-.428c.07-.038.136-.077.2-.115q.325-.185.62-.381c.06-.04.122-.079.18-.12.03-.021.065-.041.095-.063V27.5c0,1.516-3.472,3.514-9.37,4.23-.165.019-.333.036-.5.053-.227.024-.457.047-.69.067s-.479.039-.721.055c-.222.015-.448.027-.675.039s-.427.022-.644.03c-.458.015-.922.026-1.4.026s-.942-.011-1.4-.026c-.217-.008-.43-.019-.644-.03s-.453-.024-.675-.039c-.242-.016-.483-.035-.721-.055s-.463-.043-.69-.067c-.167-.017-.335-.034-.5-.053C7.472,31.014,4,29.016,4,27.5Zm0,9.363c2.543,1.515,6.962,2.576,11.931,2.81l.088,0c.276.013.552.025.831.032.384.011.768.018,1.15.018s.766-.007,1.15-.018c.279-.007.555-.019.831-.032l.088,0c4.969-.234,9.388-1.295,11.931-2.81V36.5c0,1.516-3.472,3.514-9.37,4.23-.165.019-.333.036-.5.053-.227.024-.457.047-.69.067s-.479.039-.721.055c-.222.015-.448.027-.675.039s-.427.022-.644.03c-.458.015-.922.026-1.4.026s-.942-.011-1.4-.026c-.217-.008-.43-.019-.644-.03s-.453-.024-.675-.039c-.242-.016-.483-.035-.721-.055s-.463-.043-.69-.067c-.167-.017-.335-.034-.5-.053C7.472,40.014,4,38.016,4,36.5Zm0,9c2.543,1.515,6.962,2.576,11.931,2.81l.088,0c.276.013.552.025.831.032.384.011.768.018,1.15.018s.766-.007,1.15-.018c.279-.007.555-.019.831-.032l.088,0c4.969-.234,9.388-1.295,11.931-2.81v6.512C30.6,48.114,24.934,50,18,50c-6.726,0-12.492-1.69-14-3.346Z"></path><path d="M61.828,5.439A1,1,0,0,0,61,5H55.72l-.772-2.316A1,1,0,0,0,54,2H40a1,1,0,0,0-.988,1.152l2,13c0,.017.012.031.015.048a.987.987,0,0,0,.072.217.806.806,0,0,0,.042.083c.011.019.018.041.031.061a.975.975,0,0,0,.1.118c.015.017.027.035.044.051a.975.975,0,0,0,.235.162c.021.011.043.016.064.025a.932.932,0,0,0,.221.063c.016,0,.03.012.047.014A1.051,1.051,0,0,0,42,17H57a1,1,0,0,0,.929-.628l4-10A1,1,0,0,0,61.828,5.439ZM41.166,4H53.279l.333,1H46a1,1,0,0,0-.929.628l-2.639,6.6ZM56.323,15H43.477l3.2-8H59.523Z"></path><path d="M61,27H55.72l-.772-2.316A1,1,0,0,0,54,24H40a1,1,0,0,0-.988,1.152l2,13c0,.017.012.031.015.048a.987.987,0,0,0,.072.217.806.806,0,0,0,.042.083c.011.019.018.041.031.061a.975.975,0,0,0,.1.118c.015.017.027.035.044.051a.975.975,0,0,0,.235.162c.021.011.043.016.064.025a.932.932,0,0,0,.221.063c.016,0,.03.012.047.014A1.051,1.051,0,0,0,42,39H57a1,1,0,0,0,.929-.628l4-10A1,1,0,0,0,61,27ZM41.166,26H53.279l.333,1H46a1,1,0,0,0-.929.628l-2.639,6.6ZM56.323,37H43.477l3.2-8H59.523Z"></path><path d="M57.929,61.372l4-10A1,1,0,0,0,61,50H55.72l-.772-2.316A1,1,0,0,0,54,47H40a1,1,0,0,0-.988,1.152l2,13c0,.017.012.031.015.048a.987.987,0,0,0,.072.217.806.806,0,0,0,.042.083c.011.019.018.041.031.061a.975.975,0,0,0,.1.118c.015.017.027.035.044.051a.975.975,0,0,0,.235.162c.021.011.043.016.064.025a.932.932,0,0,0,.221.063c.016,0,.03.012.047.014A1.051,1.051,0,0,0,42,62H57A1,1,0,0,0,57.929,61.372ZM41.166,49H53.279l.333,1H46a1,1,0,0,0-.929.628l-2.639,6.6Zm2.311,11,3.2-8H59.523l-3.2,8Z"></path><rect x="17" y="8" width="2" height="2"></rect><rect x="17" y="4" width="2" height="2"></rect><rect x="21" y="4" width="2" height="2"></rect><rect x="25" y="4" width="2" height="2"></rect><rect x="29" y="4" width="2" height="2"></rect><rect x="33" y="4" width="2" height="2"></rect><rect x="17" y="54" width="2" height="2"></rect><rect x="17" y="58" width="2" height="2"></rect><rect x="21" y="58" width="2" height="2"></rect><rect x="25" y="58" width="2" height="2"></rect><rect x="29" y="58" width="2" height="2"></rect><rect x="33" y="58" width="2" height="2"></rect></svg></g></g></svg>