<svg xmlns="http://www.w3.org/2000/svg" xmlns:xlink="http://www.w3.org/1999/xlink" viewBox="0 0 1200 1200"><defs><style>.cls-1,.cls-11,.cls-12,.cls-13,.cls-14,.cls-2,.cls-3,.cls-4,.cls-5,.cls-6,.cls-7,.cls-9{fill:none;stroke-linecap:round;stroke-linejoin:round;}.cls-1,.cls-11,.cls-12,.cls-13,.cls-14,.cls-2,.cls-3,.cls-5,.cls-6,.cls-7{stroke-width:40px;}.cls-1{stroke:url(#New_Gradient_Swatch);}.cls-2{stroke:#858585;}.cls-3{stroke:url(#New_Gradient_Swatch-2);}.cls-4{stroke:#f8f8f8;}.cls-4,.cls-9{stroke-width:20px;}.cls-5{stroke:url(#New_Gradient_Swatch-3);}.cls-6{stroke:url(#New_Gradient_Swatch-4);}.cls-7{stroke:url(#New_Gradient_Swatch-5);}.cls-8{fill:url(#New_Gradient_Swatch-6);}.cls-9{stroke:url(#New_Gradient_Swatch-7);}.cls-10{fill:#858585;}.cls-11{stroke:url(#New_Gradient_Swatch-8);}.cls-12{stroke:url(#New_Gradient_Swatch-9);}.cls-13{stroke:url(#New_Gradient_Swatch-10);}.cls-14{stroke:url(#New_Gradient_Swatch-11);}</style><linearGradient id="New_Gradient_Swatch" x1="750.59" y1="410.03" x2="1036.51" y2="410.03" gradientUnits="userSpaceOnUse"><stop offset="0" stop-color="#24ae1d"/><stop offset="1" stop-color="#89df00"/></linearGradient><linearGradient id="New_Gradient_Swatch-2" x1="784.28" y1="671.78" x2="1103.05" y2="671.78" xlink:href="#New_Gradient_Swatch"/><linearGradient id="New_Gradient_Swatch-3" x1="99.31" y1="316.1" x2="418.38" y2="316.1" xlink:href="#New_Gradient_Swatch"/><linearGradient id="New_Gradient_Swatch-4" x1="32.43" y1="564" x2="187.96" y2="564" xlink:href="#New_Gradient_Swatch"/><linearGradient id="New_Gradient_Swatch-5" x1="329.73" y1="462.87" x2="452.09" y2="462.87" xlink:href="#New_Gradient_Swatch"/><linearGradient id="New_Gradient_Swatch-6" x1="189.87" y1="-3.01" x2="327.82" y2="-3.01" gradientTransform="matrix(1, 0, 0, -1, 0, 572.37)" xlink:href="#New_Gradient_Swatch"/><linearGradient id="New_Gradient_Swatch-7" x1="179.87" y1="575.37" x2="337.82" y2="575.37" xlink:href="#New_Gradient_Swatch"/><linearGradient id="New_Gradient_Swatch-8" x1="671.11" y1="1059.74" x2="796.43" y2="1059.74" xlink:href="#New_Gradient_Swatch"/><linearGradient id="New_Gradient_Swatch-9" x1="407.09" y1="1059.74" x2="532.41" y2="1059.74" xlink:href="#New_Gradient_Swatch"/><linearGradient id="New_Gradient_Swatch-10" x1="377.57" y1="709.67" x2="833.07" y2="709.67" xlink:href="#New_Gradient_Swatch"/><linearGradient id="New_Gradient_Swatch-11" x1="441.19" y1="777.37" x2="766.76" y2="777.37" xlink:href="#New_Gradient_Swatch"/></defs><g id="Layer_3" data-name="Layer 3"><path class="cls-1" d="M1016.51,336.88c-20.41,68.11-57.75,146.29-123,146.29s-102.47-78-122.93-146.06"/><path class="cls-2" d="M1061.77,393.44c13.28-3.85,20.47-28.29,33.86-32.76,13.09-4.38,33.6,11.07,46.74,5.87,12.82-5.09,12.69-26.52,25.55-32.4-2.13-10.4,15-17.25,12.54-27.21-2.57-10.32-26.12-14.68-29.06-24.48-3.07-10.21,14.13-26.89,10.66-36.49-3.64-10.06-27.51-11.77-31.59-21.1-4.3-9.82,10.54-28.62,5.75-37.58-5.06-9.47-28.88-7.37-34.51-15.81-6-8.94,4.93-30.28-1.67-38-7-8.15-29.55-.42-37.24-7.08-8-7-3.94-30.53-12.77-35.76-9-5.35-27.49,9.71-37.36,6.32s-15-26.62-25.57-28c-10-1.27-21.15,19.86-31.93,20.52-10,.62-23.32-19.19-34-16.83-9.74,2.17-18.22,26.36-28.5,30.06-9.21-5.17-15.44-30.14-25.3-32.53S844.91,88,834.51,88.3c-10.07.26-23.22-19.5-33.45-16.89-9.69,2.47-12.22,26.2-21.85,30.64-9.08,4.19-28.53-9.57-37.39-3.74-8.37,5.51-3.66,28.92-11.69,35.8-7.63,6.53-30-1.89-37.17,5.8-6.89,7.36,2.87,29.16-3.52,37.49-6.15,8-29.72,4.19-35.3,13-5.4,8.57,8.18,28.21,3.39,37.5-4.65,9-28.53,9.31-32.53,19-3.88,9.38,12.78,26.48,9.58,36.42-3.12,9.67-26.64,13.81-29,24-2.34,9.9,15.06,16.39,13.47,26.7,12.77,6,12.62,27.69,25.43,32.88,13.07,5.29,33.66-10.05,46.77-5.61,13.33,4.51,20.88,27.77,33.79,32.83,21,8.23,45.85-60.77,39.5-64.91-8.51-5.54,29.6-2.76,34.4-12.35,4.6-9.2-10.28-27.13-6.68-37.28s25.46-12,30.36-21.25-3.89-30.28,4.74-37.07c7.45-5.85,25.21,7.12,37,4.3,8.93-2.13,17.11-23,29.29-22.82,12,.14,19.78,21.14,28.72,23.37,11.63,2.91,29.3-10.32,36.89-4.69,8.84,6.56.84,27.79,6.13,36.69s27.29,10,31.1,19.92-11,27.78-6.54,37.11c4.57,9.67,42.94,5.41,33.6,14.66C1016.43,336.81,1031.62,402.16,1061.77,393.44Z"/><path class="cls-3" d="M1050.1,830.66l32.53-223.76a40,40,0,0,0-16.6-38.5L987,512.9,895.61,642.29,804.28,512.9"/><path class="cls-4" d="M1062.33,434.93c-4.52,15-14.21,25.38-25.42,25.38-9.73,0-18.31-7.81-23.37-19.68"/><path class="cls-4" d="M728.9,434.93c4.52,15,14.2,25.38,25.42,25.38,9.73,0,18.31-7.81,23.36-19.68"/><path class="cls-5" d="M398.38,232.15v55.16A112.75,112.75,0,0,1,285.64,400.05H232.06A112.75,112.75,0,0,1,119.31,287.31V269.82"/><path class="cls-6" d="M52.43,699.68V536.84a40,40,0,0,1,33.18-39.41L168,483.17l-34.85-54.86"/><polyline class="cls-7" points="432.09 497.43 349.73 483.17 384.58 428.31"/><path class="cls-2" d="M408.32,167.78c-34.43,15-78.65-2-118.28-12C239.81,178,154.65,216.39,99.25,213.73,63.74,107.84,227.59,38.85,321.94,79.14,372.71,67.5,410.14,119.07,408.32,167.78Z"/><path class="cls-8" d="M258.85,620l-69-89.25q69,20.5,138,0Z"/><polyline class="cls-9" points="327.82 530.75 258.85 620 189.87 530.75"/><path class="cls-10" d="M740.51,1051.66l-82.85-65.41-55.9,45.69-56-45.82L464.8,1053l111.28,85.41a42.21,42.21,0,0,0,51.37,0Z"/><path class="cls-11" d="M776.43,1160.57V1045a42.2,42.2,0,0,0-16.57-33.52l-68.75-52.52"/><path class="cls-12" d="M427.09,1160.57V1045a42.18,42.18,0,0,1,16.58-33.52l68.74-52.52"/><path class="cls-13" d="M446.38,887c-18.32-4.43-29.41-8.31-29.41-8.31,3.8-44.38,4.21-79.77-13.58-140.44C359.51,588.59,575.64,482,658.85,553.54,746.76,524,831.87,646.81,809.43,724,782,818.31,799.15,877.6,799.15,877.6s-15.25,5.48-38,11"/><path class="cls-14" d="M746.76,767.63c0,80-64.89,155.48-144.93,155.48S461.19,818.25,461.19,738.21C526.5,718,589.87,680.31,652,631.63Z"/><path class="cls-4" d="M581.9,769.26a31.35,31.35,0,0,1-62.69,0C519.21,752,581.9,752,581.9,769.26Z"/><path class="cls-4" d="M689,769.26a31.34,31.34,0,0,1-62.68,0C626.32,752,689,752,689,769.26Z"/><line class="cls-4" x1="581.9" y1="769.26" x2="626.32" y2="769.26"/><line class="cls-4" x1="601.76" y1="1031.94" x2="681.4" y2="1097.04"/><line class="cls-4" x1="519.21" y1="1015.44" x2="598.85" y2="1080.54"/></g></svg>