<svg xmlns="http://www.w3.org/2000/svg" xmlns:xlink="http://www.w3.org/1999/xlink" width="100" height="100" viewBox="0 0 100 100"><g><g transform="translate(50 50) scale(0.69 0.69) rotate(0) translate(-50 -50)" style="fill:#1A1A1A"><svg fill="#1A1A1A" xmlns="http://www.w3.org/2000/svg" xmlns:xlink="http://www.w3.org/1999/xlink" version="1.1" x="0px" y="0px" viewBox="0 0 100 100" enable-background="new 0 0 100 100" xml:space="preserve"><g><path d="M50.003,56.1c7.252,0,12.178-5.88,12.178-13.133c0-7.251-4.926-13.131-12.178-13.131c-7.253,0-12.182,5.879-12.182,13.131   C37.821,50.219,42.75,56.1,50.003,56.1z"></path><path d="M67.487,82.664c1.862-2.146,3.003-5.9,3.163-9.25c0-7.697-4.209-14.378-10.434-17.953   c-2.685,2.451-6.226,3.902-10.216,3.902c-3.988,0-7.53-1.451-10.216-3.902c-6.226,3.575-10.434,10.256-10.434,17.953   c0.158,3.35,1.302,7.104,3.162,9.25C34.297,84.833,66.813,84.674,67.487,82.664z"></path><path d="M74.353,42.034c7.251,0,12.18-5.881,12.18-13.133c0-7.251-4.929-13.132-12.18-13.132c-7.254,0-12.183,5.88-12.183,13.132   C62.17,36.153,67.099,42.034,74.353,42.034z"></path><path d="M25.651,42.034c7.252,0,12.181-5.881,12.181-13.133c0-7.251-4.929-13.132-12.181-13.132   c-7.253,0-12.182,5.88-12.182,13.132C13.47,36.153,18.398,42.034,25.651,42.034z"></path><path d="M84.566,41.394c-2.684,2.452-6.224,3.903-10.214,3.903c-3.492,0-6.643-1.112-9.174-3.035   c0.008,0.234,0.016,0.468,0.016,0.704c0,3.88-1.165,7.356-3.156,10.082c6.231,3.713,10.404,10.057,11.394,17.115   c8.873,0.038,18.052-0.507,18.406-1.565c1.862-2.146,3.004-5.9,3.162-9.25C95,51.651,90.792,44.97,84.566,41.394z"></path><path d="M26.568,70.162c0.99-7.059,5.162-13.402,11.396-17.115c-1.991-2.725-3.156-6.2-3.156-10.081   c0-0.236,0.007-0.47,0.016-0.704c-2.531,1.922-5.681,3.035-9.172,3.035c-3.989,0-7.531-1.451-10.216-3.903   C9.21,44.97,5,51.65,5,59.348c0.16,3.35,1.302,7.104,3.164,9.25C9.073,69.704,17.974,70.204,26.568,70.162z"></path></g></svg></g></g></svg>