<svg xmlns="http://www.w3.org/2000/svg" xmlns:xlink="http://www.w3.org/1999/xlink" viewBox="0 0 1200 1200"><defs><style>.cls-1{fill:#858585;}.cls-2{fill:none;stroke:#858585;stroke-linecap:round;stroke-linejoin:round;stroke-width:20px;}.cls-3{fill:url(#New_Gradient_Swatch);}.cls-4{fill:url(#New_Gradient_Swatch-2);}.cls-5{fill:url(#New_Gradient_Swatch-3);}</style><linearGradient id="New_Gradient_Swatch" x1="870.3" y1="928.27" x2="1200" y2="928.27" gradientUnits="userSpaceOnUse"><stop offset="0" stop-color="#24ae1d"/><stop offset="1" stop-color="#89df00"/></linearGradient><linearGradient id="New_Gradient_Swatch-2" x1="540.52" y1="626.22" x2="1157.23" y2="626.22" xlink:href="#New_Gradient_Swatch"/><linearGradient id="New_Gradient_Swatch-3" x1="497.75" y1="928.27" x2="827.45" y2="928.27" xlink:href="#New_Gradient_Swatch"/></defs><g id="Layer_3" data-name="Layer 3"><path class="cls-1" d="M615,96l271.1,96,271.1-96L886.13,0Zm418.52-16.61A10.71,10.71,0,0,1,1027,93.06L852.89,154.73a10.71,10.71,0,1,1-7.15-20.2l174.13-61.67A10.73,10.73,0,0,1,1033.55,79.39Zm-50.8-17.6a10.73,10.73,0,0,1-6.53,13.68L802.64,136.93a10.71,10.71,0,1,1-7.15-20.2L969.07,55.27A10.71,10.71,0,0,1,982.75,61.79Zm-49.7-18a10.73,10.73,0,0,1-6.52,13.68L752.39,119.14a10.71,10.71,0,0,1-7.15-20.2L919.37,37.28A10.71,10.71,0,0,1,933.05,43.8Z"/><line class="cls-2" x1="718.48" y1="277.2" x2="718.48" y2="306.11"/><line class="cls-2" x1="657.07" y1="255.9" x2="657.07" y2="280.51"/><line class="cls-2" x1="779.89" y1="356.34" x2="779.89" y2="299.39"/><line class="cls-2" x1="1053.78" y1="277.2" x2="1053.78" y2="481.45"/><line class="cls-2" x1="1115.19" y1="255.9" x2="1115.19" y2="481.14"/><path class="cls-2" d="M992.37,467.14V299.39"/><line class="cls-2" x1="613.82" y1="195.75" x2="828.43" y2="271.75"/><line class="cls-2" x1="1158.45" y1="195.75" x2="943.83" y2="271.75"/><path class="cls-1" d="M659.48,373.31,351.12,264.11,42.77,373.31,351.12,482.5Zm-460.93,25.2A10.72,10.72,0,0,1,195,377.69l193.48-68.51a10.71,10.71,0,0,1,7.15,20.2L202.13,397.89A10.67,10.67,0,0,1,198.55,398.51Zm55.83,19.77a10.72,10.72,0,0,1-3.57-20.82l192.87-68.29a10.71,10.71,0,0,1,7.15,20.19L258,417.66A10.67,10.67,0,0,1,254.38,418.28Zm55.83,19.77a10.72,10.72,0,0,1-3.57-20.82l193.48-68.51a10.71,10.71,0,1,1,7.15,20.2L313.79,437.43A10.67,10.67,0,0,1,310.21,438.05Z"/><path class="cls-1" d="M0,815.2a21.46,21.46,0,0,0,14.27,20.19L329.7,947.09V520.38L0,403.63Zm107.33-14a10.72,10.72,0,1,1-21.43,0V551a10.72,10.72,0,0,1,21.43,0Zm68.23,24.16a10.72,10.72,0,1,1-21.43,0V574.64a10.72,10.72,0,1,1,21.43,0Zm68.23,24.17a10.71,10.71,0,1,1-21.42,0V599.3a10.71,10.71,0,1,1,21.42,0Zm-205.34-369A10.71,10.71,0,0,1,52.13,474l238.46,84.44a10.71,10.71,0,1,1-7.15,20.2L45,494.24A10.73,10.73,0,0,1,38.45,480.56Z"/><line class="cls-2" x1="653.7" y1="484.14" x2="415.23" y2="568.58"/><path class="cls-3" d="M1200,656.54,870.3,773.29V1200L1200,1083.25ZM977.63,1102.47a10.71,10.71,0,0,1-21.42,0V852.21a10.71,10.71,0,1,1,21.42,0Zm68.24-24.17a10.72,10.72,0,1,1-21.43,0V827.55a10.72,10.72,0,1,1,21.43,0Zm68.23-24.16a10.72,10.72,0,1,1-21.43,0V803.88a10.72,10.72,0,0,1,21.43,0Zm40.92-307L916.56,831.59a10.71,10.71,0,1,1-7.15-20.2L1147.87,727a10.71,10.71,0,1,1,7.15,20.2Z"/><path class="cls-4" d="M1157.23,626.22,848.88,517,540.52,626.22,848.88,735.41ZM696.3,651.42a10.72,10.72,0,0,1-3.57-20.82l193.48-68.51a10.71,10.71,0,1,1,7.15,20.2L699.88,650.8A10.67,10.67,0,0,1,696.3,651.42Zm55.84,19.77a10.72,10.72,0,0,1-3.58-20.82l192.87-68.29a10.71,10.71,0,1,1,7.15,20.19l-192.87,68.3A10.65,10.65,0,0,1,752.14,671.19ZM808,691a10.72,10.72,0,0,1-3.58-20.82l193.48-68.51a10.71,10.71,0,1,1,7.15,20.2L811.54,690.34A10.65,10.65,0,0,1,808,691Z"/><path class="cls-5" d="M497.75,1068.11A21.46,21.46,0,0,0,512,1088.3L827.45,1200V773.29L497.75,656.54Zm107.33-14a10.72,10.72,0,1,1-21.43,0V803.88a10.72,10.72,0,0,1,21.43,0Zm68.23,24.16a10.71,10.71,0,1,1-21.42,0V827.55a10.71,10.71,0,1,1,21.42,0Zm68.24,24.17a10.72,10.72,0,0,1-21.43,0V852.21a10.72,10.72,0,1,1,21.43,0Zm-205.35-369A10.72,10.72,0,0,1,549.88,727l238.46,84.44a10.71,10.71,0,1,1-7.15,20.2L542.73,747.15A10.73,10.73,0,0,1,536.2,733.47Z"/></g></svg>