<svg xmlns="http://www.w3.org/2000/svg" xmlns:xlink="http://www.w3.org/1999/xlink" width="100" height="100" viewBox="0 0 100 100"><g><g transform="translate(50 50) scale(0.69 0.69) rotate(0) translate(-50 -50)" style="fill:#C4C5C1"><svg fill="#C4C5C1" xmlns="http://www.w3.org/2000/svg" xmlns:xlink="http://www.w3.org/1999/xlink" xmlns:a="http://ns.adobe.com/AdobeSVGViewerExtensions/3.0/" version="1.1" x="0px" y="0px" viewBox="0 -8.077 100 100" enable-background="new 0 -8.077 100 100" xml:space="preserve"><path d="M20.251,67.353v-7.284h-6.892v7.284H20.251z M16.804,61.491c1.176,0,2.129,0.994,2.129,2.221  c0,1.226-0.953,2.221-2.129,2.221c-1.174,0-2.127-0.995-2.127-2.221C14.677,62.485,15.63,61.491,16.804,61.491z"></path><ellipse cx="16.806" cy="51.588" rx="3.13" ry="3.216"></ellipse><rect x="13.074" y="56.078" width="7.584" height="1.337"></rect><rect x="13.013" y="68.568" width="7.585" height="1.334"></rect><rect x="13.074" y="43.873" width="7.585" height="1.335"></rect><polygon points="13.68,41.066 16.689,42.954 19.816,41.269 19.932,37.697 16.922,35.809 13.796,37.494 "></polygon><rect x="13.074" y="32.729" width="7.585" height="1.335"></rect><rect x="13.074" y="20.522" width="7.585" height="1.337"></rect><polygon points="18.607,27.987 19.708,26.223 17.724,26.746 17.059,24.771 16.22,26.678 14.291,25.977 15.229,27.833 13.488,28.937   15.497,29.343 15.255,31.419 16.822,30.07 18.262,31.555 18.206,29.466 20.244,29.244 "></polygon><path d="M16.843,19.605l3.05-1.819l-0.037-3.574l-3.088-1.754l-3.051,1.819l0.037,3.573L16.843,19.605z M16.789,13.639l2.071,1.167  l0.016,2.393l-2.054,1.225l-2.071-1.167l-0.017-2.393L16.789,13.639z"></path><path d="M0,0v2.71h0v76.232v2.67v0.979h100v-2.922v-0.727V3.649V0.768V0H0z M98.244,78.942H1.755V3.649h96.489V78.942z"></path><polygon points="29.968,19.724 29.199,20.535 28.438,19.732 28.021,20.174 28.781,20.978 28.013,21.79 28.425,22.227 29.194,21.416   29.955,22.217 30.373,21.776 29.613,20.973 30.381,20.162 "></polygon><path d="M24.914,64.897h68.079V23.406h-0.001v-5.102H24.913v5.343h0.001V64.897z M73.797,24.694v1.252h-9.709v-1.252H73.797z   M60.42,24.694v1.252h-9.709v-1.252H60.42z M47.428,24.694v1.252H41.39v-1.252H47.428z M37.722,24.694v1.252h-9.709v-1.252H37.722z   M92.118,60.438h-66.33V27.841h66.33V60.438z M25.787,18.875h66.33v4.197h-66.33V18.875z"></path><rect x="89.554" y="29.337" width="1.563" height="5.856"></rect><rect x="31.449" y="20.726" width="2.354" height="0.719"></rect><path d="M34.929,22.227h2.375v-2.283h-2.375V22.227z M35.304,20.293h1.625v1.584h-1.625V20.293z"></path><path d="M2.399,78.451h5.343V44.619V28.445v-0.69V11.58H2.399v16.175H2.398v16.864h0.001V78.451z M7.171,77.591H2.974V44.619h4.197  V77.591z M7.171,43.552H3.127V28.521h4.044V43.552z M3.127,12.438h4.044v14.939H3.127V12.438z"></path><path d="M7.742,4.14H2.399v6.43h5.343V4.14z M7.324,10.162H3.127v-5.73h4.197V10.162z"></path><polygon points="3.829,15.508 4.271,15.883 5.073,15.203 5.885,15.89 6.322,15.521 5.512,14.833 6.314,14.153 5.872,13.779   5.068,14.459 4.257,13.771 3.819,14.141 4.631,14.829 "></polygon><rect x="3.385" y="18.832" width="3.371" height="1.119"></rect><polygon points="3.829,31.684 4.271,32.058 5.072,31.378 5.885,32.065 6.322,31.695 5.51,31.008 6.314,30.328 5.871,29.954   5.068,30.633 4.256,29.947 3.818,30.316 4.631,31.004 "></polygon><rect x="3.385" y="21.767" width="3.371" height="1.119"></rect><rect x="3.384" y="35.282" width="3.371" height="1.12"></rect></svg></g></g></svg>
