<svg xmlns="http://www.w3.org/2000/svg" xmlns:xlink="http://www.w3.org/1999/xlink" width="100" height="100" viewBox="0 0 100 100"><g><g transform="translate(50 50) scale(0.69 0.69) rotate(0) translate(-50 -50)" style="fill:#1A1A1A"><svg fill="#1A1A1A" xmlns="http://www.w3.org/2000/svg" xmlns:xlink="http://www.w3.org/1999/xlink" version="1.1" baseProfile="tiny" x="0px" y="0px" viewBox="-7.5 16.5 24 24" xml:space="preserve"><g><circle cx="4.5" cy="34.5" r="2"></circle><path d="M6.5,37.5h-3c-1.1,0-2,0.9-2,2v1h7v-1C8.5,38.4,7.6,37.5,6.5,37.5z"></path><circle cx="12.5" cy="34.5" r="2"></circle><path d="M16.5,39.5c0-1.1-0.9-2-2-2h-3c-1.1,0-2,0.9-2,2v1h7V39.5z"></path><circle cx="-3.5" cy="34.5" r="2"></circle><path d="M-1.5,37.5h-3c-1.1,0-2,0.9-2,2v1h7v-1C0.5,38.4-0.4,37.5-1.5,37.5z"></path></g><g><circle cx="-3.5" cy="20.5" r="2"></circle><path d="M-4.5,23.5c-1.1,0-2,0.9-2,2v6h6v-6h3v-2H-4.5z"></path><path d="M14.5,18.5c-0.1,0-10.9,0-11,0c-0.6,0-1,0.4-1,1c0,0.1,0,2,0,4h2h0c0.1,0,0.3,0,0.4,0.1l3.3-2.5c0.2-0.2,0.5-0.1,0.7,0.1   c0.2,0.2,0.1,0.5-0.1,0.7l-3.3,2.5c0,0,0,0.1,0,0.1c0,0.6-0.4,1-1,1h0h-2c0,1.1,0,2,0,2c0,0.6,0.4,1,1,1c0.1,0,0.8,0,1,0   c0-0.6,0.4-1,1-1h2c0.6,0,1,0.4,1,1c0,0,5.9,0,6,0c0.6,0,1-0.4,1-1c0-0.1,0-7.9,0-8C15.5,18.9,15.1,18.5,14.5,18.5z"></path></g></svg></g></g></svg>