<?xml version="1.0" encoding="utf-8"?>
<!-- Generator: Adobe Illustrator 19.0.0, SVG Export Plug-In . SVG Version: 6.00 Build 0)  -->
<svg version="1.1" id="Layer_1" xmlns="http://www.w3.org/2000/svg" xmlns:xlink="http://www.w3.org/1999/xlink" x="0px" y="0px"
	 viewBox="0 0 96 96" style="enable-background:new 0 0 96 96;" xml:space="preserve">
<style type="text/css">
	.st0{fill:#333333;}
</style>
<g id="XMLID_1_">
	<path id="XMLID_8_" class="st0" d="M69.7,64.4V37.2c-0.1-3.4-1.5-6.4-4.1-8.9c-2.6-2.6-5.5-3.9-8.9-4.1h-4.3v-8.7l-13,13l13,13
		v-8.7h4.3c1.2,0.1,2.1,0.5,3,1.3c0.9,0.9,1.3,1.8,1.3,3v27.2c-2.6,1.5-4.3,4.2-4.3,7.5c0,4.8,3.9,8.7,8.7,8.7
		c4.8,0,8.7-3.9,8.7-8.7C74,68.7,72.2,65.9,69.7,64.4z M65.3,77c-2.9,0-5.2-2.4-5.2-5.2c0-2.8,2.4-5.2,5.2-5.2
		c2.8,0,5.2,2.4,5.2,5.2C70.5,74.6,68.1,77,65.3,77z M39.3,28.5c0-4.8-3.9-8.7-8.7-8.7S22,23.7,22,28.5c0,3.2,1.8,6,4.3,7.5v28.4
		c-2.6,1.5-4.3,4.2-4.3,7.5c0,4.8,3.9,8.7,8.7,8.7s8.7-3.9,8.7-8.7c0-3.2-1.8-6-4.3-7.5V36C37.6,34.5,39.3,31.7,39.3,28.5z
		 M35.9,71.8c0,2.9-2.4,5.2-5.2,5.2s-5.2-2.4-5.2-5.2c0-2.8,2.4-5.2,5.2-5.2S35.9,69,35.9,71.8z M30.7,33.7c-2.9,0-5.2-2.4-5.2-5.2
		s2.4-5.2,5.2-5.2s5.2,2.4,5.2,5.2S33.5,33.7,30.7,33.7z"/>
</g>
</svg>
