<svg xmlns="http://www.w3.org/2000/svg" xmlns:xlink="http://www.w3.org/1999/xlink" width="100" height="100" viewBox="0 0 100 100"><g><g transform="translate(50 50) scale(0.69 0.69) rotate(0) translate(-50 -50)" style="fill:#000000"><svg fill="#000000" xmlns="http://www.w3.org/2000/svg" xmlns:xlink="http://www.w3.org/1999/xlink" version="1.1" x="0px" y="0px" viewBox="0 0 100 100" enable-background="new 0 0 100 100" xml:space="preserve"><path d="M23.509,62.867h4.977c0.137,0.577,0.386,0.992,0.746,1.244c0.36,0.253,0.898,0.379,1.612,0.379  c0.599,0,1.069-0.104,1.412-0.309c0.342-0.206,0.514-0.488,0.514-0.85c0-0.576-0.718-1.046-2.153-1.406  c-0.288-0.072-0.509-0.126-0.66-0.162c-1.176-0.303-2.111-0.579-2.808-0.828c-0.695-0.248-1.202-0.481-1.52-0.697  c-0.613-0.44-1.073-0.967-1.38-1.58c-0.307-0.612-0.459-1.313-0.459-2.099c0-1.579,0.595-2.82,1.785-3.722  c1.189-0.901,2.827-1.352,4.911-1.352c2.049,0,3.66,0.43,4.836,1.292s1.84,2.098,1.991,3.706h-4.858  c-0.079-0.469-0.286-0.819-0.622-1.05c-0.335-0.23-0.813-0.347-1.433-0.347c-0.549,0-0.956,0.091-1.223,0.271  c-0.268,0.181-0.4,0.455-0.4,0.822c0,0.527,0.699,0.967,2.099,1.32c0.123,0.036,0.217,0.062,0.281,0.076  c0.202,0.05,0.509,0.126,0.92,0.227c1.854,0.469,3.065,0.895,3.635,1.276c0.707,0.47,1.223,1.003,1.547,1.602  c0.325,0.599,0.487,1.306,0.487,2.12c0,1.761-0.615,3.112-1.845,4.058s-2.991,1.417-5.285,1.417c-2.113,0-3.788-0.472-5.025-1.417  S23.661,64.584,23.509,62.867z M41.955,62.867h4.977c0.137,0.577,0.386,0.992,0.746,1.244c0.36,0.253,0.898,0.379,1.612,0.379  c0.599,0,1.069-0.104,1.412-0.309c0.342-0.206,0.514-0.488,0.514-0.85c0-0.576-0.718-1.046-2.153-1.406  c-0.288-0.072-0.509-0.126-0.66-0.162c-1.176-0.303-2.111-0.579-2.808-0.828c-0.695-0.248-1.202-0.481-1.52-0.697  c-0.613-0.44-1.073-0.967-1.38-1.58c-0.307-0.612-0.459-1.313-0.459-2.099c0-1.579,0.595-2.82,1.785-3.722  c1.189-0.901,2.827-1.352,4.911-1.352c2.049,0,3.66,0.43,4.836,1.292s1.84,2.098,1.991,3.706h-4.858  c-0.079-0.469-0.286-0.819-0.622-1.05c-0.335-0.23-0.813-0.347-1.433-0.347c-0.549,0-0.956,0.091-1.223,0.271  c-0.268,0.181-0.4,0.455-0.4,0.822c0,0.527,0.699,0.967,2.099,1.32c0.123,0.036,0.217,0.062,0.281,0.076  c0.202,0.05,0.509,0.126,0.92,0.227c1.854,0.469,3.065,0.895,3.635,1.276c0.707,0.47,1.223,1.003,1.547,1.602  c0.325,0.599,0.487,1.306,0.487,2.12c0,1.761-0.615,3.112-1.845,4.058s-2.991,1.417-5.285,1.417c-2.113,0-3.788-0.472-5.025-1.417  S42.106,64.584,41.955,62.867z M60.734,67.833V51.896h5.117v5.41h4.771v-5.41h5.117v15.937h-5.117v-6.178h-4.771v6.178H60.734z   M85.249,2.083h-6.916H21.332H7.533c-2.205,0-4,1.795-4,4v34.854v37.89v15.09c0,2.205,1.795,4,4,4h84.931c2.205,0,4-1.795,4-4  v-15.09v-37.89V14.593L85.249,2.083z M59.999,21.166h4.416c1.381,0,2.5-1.245,2.5-2.782V5.083h8.418v19.166c0,0.552-0.449,1-1,1  H33.461V5.083h24.037v13.301C57.499,19.921,58.618,21.166,59.999,21.166z M30.461,5.083v20.166h-5.13c-0.553,0-1-0.448-1-1V5.083  H30.461z M6.533,43.938h86.931v31.89H6.533V43.938z M93.463,93.917c0,0.551-0.449,1-1,1H7.533c-0.551,0-1-0.449-1-1v-15.09h86.931  V93.917z M6.533,40.938V6.083c0-0.551,0.449-1,1-1h13.799v19.166c0,2.206,1.793,4,4,4h49.001c2.205,0,4-1.794,4-4V5.083h5.576  l9.555,10.657v25.197H6.533z"></path></svg></g></g></svg>