<svg xmlns="http://www.w3.org/2000/svg" xmlns:xlink="http://www.w3.org/1999/xlink" width="100" height="100" viewBox="0 0 100 100"><g><g transform="translate(50 50) scale(0.69 0.69) rotate(0) translate(-50 -50)" style="fill:#000000"><svg fill="#000000" xmlns="http://www.w3.org/2000/svg" xmlns:xlink="http://www.w3.org/1999/xlink" version="1.1" x="0px" y="0px" viewBox="0 0 100 100" enable-background="new 0 0 100 100" xml:space="preserve"><g><path d="M94.754,44.221l0-2.207v0l0,0l0,0c0-0.146-0.01-0.289-0.028-0.43c-0.114-0.879-0.574-1.649-1.238-2.17   c-0.021-0.016-0.041-0.033-0.062-0.049c-0.02-0.015-0.041-0.028-0.062-0.043c-0.33-0.236-0.705-0.414-1.11-0.516   c-0.258-0.065-0.528-0.099-0.807-0.099l-11.24,0.001l-11.24-0.001c-0.093,0-0.185,0.004-0.275,0.011   c-0.636,0.052-1.221,0.285-1.703,0.646c-0.756,0.565-1.262,1.446-1.322,2.447c-0.004,0.067-0.006,0.134-0.006,0.202l0,2.207   c0,0,0,0,0,0l0.001,7.346l-0.001,9.504c0.001,0,0.001,0,0.002-0.001l0.002,15.379c0,0.214,0.021,0.422,0.06,0.624   c0,0.001,0,0.002,0.001,0.004c0.06,0.312,0.164,0.608,0.305,0.882c0.002,0.003,0.003,0.006,0.005,0.009   c0.044,0.084,0.091,0.166,0.142,0.245c0.008,0.012,0.015,0.024,0.023,0.036c0.048,0.074,0.099,0.146,0.153,0.215   c0.012,0.015,0.024,0.031,0.036,0.046c0.053,0.066,0.108,0.131,0.167,0.193c0.014,0.015,0.029,0.03,0.043,0.045   c0.053,0.055,0.108,0.108,0.165,0.16c0.009,0.008,0.017,0.017,0.026,0.025c0,0-0.001,0-0.003,0   c0.224,0.196,0.476,0.363,0.747,0.493c0.003,0.001,0.005,0.002,0.008,0.004c0.042,0.02,0.085,0.04,0.129,0.058   c0.007,0.003,0.014,0.006,0.021,0.008c0.007,0.003,0.014,0.006,0.021,0.008c0.016,0.007,0.033,0.013,0.049,0.019   c0.016,0.006,0.032,0.013,0.049,0.019c0.021,0.008,0.041,0.015,0.062,0.022c0.026,0.009,0.052,0.018,0.079,0.027   c0.026,0.008,0.052,0.017,0.079,0.024c0.021,0.006,0.041,0.012,0.062,0.018c0.032,0.009,0.063,0.017,0.096,0.025   c0.015,0.004,0.029,0.007,0.044,0.01c0.038,0.009,0.076,0.017,0.115,0.024c0.006,0.001,0.013,0.002,0.019,0.003   c0.196,0.036,0.397,0.056,0.603,0.056l11.238-0.001h0.012l11.226,0.001c0.206,0,0.407-0.02,0.603-0.056   c0.006-0.001,0.013-0.002,0.019-0.003c0.039-0.007,0.077-0.016,0.115-0.024c0.015-0.003,0.029-0.007,0.044-0.01   c0.032-0.008,0.064-0.016,0.096-0.025c0.021-0.006,0.042-0.012,0.062-0.018c0.026-0.008,0.053-0.016,0.079-0.024   c0.026-0.008,0.052-0.017,0.079-0.027c0.021-0.007,0.041-0.015,0.062-0.022c0.022-0.008,0.043-0.017,0.064-0.025   c0.011-0.005,0.022-0.009,0.033-0.013c0.005-0.002,0.009-0.004,0.014-0.006c0.009-0.004,0.018-0.007,0.027-0.011   c0.043-0.018,0.086-0.038,0.129-0.058c0.003-0.001,0.005-0.002,0.008-0.004c0.071-0.034,0.141-0.071,0.21-0.111   c0.192-0.11,0.372-0.238,0.538-0.383c-0.001,0-0.003,0-0.003,0c0.009-0.008,0.017-0.017,0.026-0.025   c0.057-0.051,0.112-0.105,0.166-0.16c0.014-0.015,0.029-0.029,0.043-0.044c0.058-0.062,0.113-0.127,0.167-0.194   c0.012-0.015,0.024-0.03,0.036-0.046c0.054-0.07,0.105-0.142,0.153-0.216c0.008-0.012,0.015-0.024,0.023-0.036   c0.05-0.08,0.098-0.161,0.142-0.245c0.002-0.003,0.003-0.006,0.005-0.009c0.141-0.274,0.245-0.571,0.305-0.883   c0-0.001,0-0.002,0.001-0.004c0.039-0.202,0.06-0.41,0.06-0.624l0.002-15.379c0.001,0,0.002,0,0.002,0.001l-0.001-9.504   L94.754,44.221C94.754,44.221,94.754,44.221,94.754,44.221z M91.808,72.651c0,0.748-0.564,1.363-1.289,1.446   c-0.055,0.006-0.11,0.01-0.166,0.01h-20.29c0,0,0,0,0,0c-0.056,0-0.111-0.004-0.166-0.01c-0.726-0.083-1.289-0.698-1.289-1.446   V43.808c0-0.804,0.652-1.456,1.456-1.456h20.29c0.804,0,1.456,0.652,1.456,1.456V72.651z M80.207,78.574   c-0.566,0-1.058-0.316-1.311-0.781c-0.115-0.211-0.18-0.453-0.18-0.711c0-0.257,0.065-0.499,0.18-0.711   c0.252-0.465,0.745-0.781,1.311-0.781c0.535,0,1.002,0.283,1.266,0.706c0.142,0.228,0.225,0.497,0.225,0.785   C81.698,77.906,81.031,78.574,80.207,78.574z M62.377,61.192c-0.001-0.04-0.002-0.081-0.002-0.122l0-0.841H24.852v10.03h11.437   c-0.037,0.925-0.552,5.122-6.821,5.91h0.201c-0.99,0-1.792,0.803-1.792,1.792c0,0.99,0.803,1.792,1.792,1.792h27.484   c0.99,0,1.792-0.802,1.792-1.792c0-0.99-0.803-1.792-1.792-1.792h0.3c-6.269-0.788-6.784-4.985-6.821-5.91h11.746L62.377,61.192z    M43.461,67.934c-1.263,0-2.287-1.024-2.287-2.287c0-1.263,1.024-2.287,2.287-2.287c1.263,0,2.287,1.024,2.287,2.287   C45.749,66.91,44.725,67.934,43.461,67.934z M75.617,24.923v10.5l-3.857,0v-10.5c0-0.452-0.368-0.82-0.82-0.82h-2.546H68.13H19.869   h-0.531h-3.357c-0.452,0-0.82,0.368-0.82,0.82v23.52h-3.857v-23.52c0-2.579,2.098-4.676,4.676-4.676h3.889H68.13h2.81   C73.519,20.246,75.617,22.344,75.617,24.923z M18.552,79.754c1.658,0,3.015-1.357,3.015-3.015v-6.134V57.32v-2.577   c0-1.658-1.357-3.015-3.015-3.015H8.26c-1.658,0-3.015,1.357-3.015,3.015v21.996c0,1.658,1.357,3.015,3.015,3.015H18.552z    M13.406,78.425c-0.835,0-1.512-0.677-1.512-1.512c0-0.835,0.677-1.512,1.512-1.512c0.835,0,1.512,0.677,1.512,1.512   C14.919,77.748,14.241,78.425,13.406,78.425z M7.842,57.139h11.014v17.249H7.842V57.139z"></path></g></svg></g></g></svg>