<svg id="Layer_1" data-name="Layer 1" xmlns="http://www.w3.org/2000/svg" xmlns:xlink="http://www.w3.org/1999/xlink" viewBox="0 0 1200 1200"><defs><style>.cls-1{fill:#858585;}.cls-2,.cls-4{fill:none;}.cls-2,.cls-3,.cls-4{stroke:#262626;stroke-linejoin:round;stroke-width:40px;}.cls-3,.cls-4{stroke-linecap:round;}.cls-3{fill:url(#New_Gradient_Swatch);}</style><linearGradient id="New_Gradient_Swatch" x1="464.29" y1="353.49" x2="735.71" y2="353.49" gradientUnits="userSpaceOnUse"><stop offset="0" stop-color="#24ae1d"/><stop offset="1" stop-color="#89df00"/></linearGradient></defs><rect class="cls-1" x="441.8" y="-7.27" width="316.39" height="539.13" rx="20" transform="translate(862.29 -337.71) rotate(90)"/><polygon class="cls-2" points="929.56 955.91 729.56 955.91 729.56 1155.91 929.56 955.91"/><path class="cls-2" d="M889.56,44.09H310.44a40,40,0,0,0-40,40V1115.91a40,40,0,0,0,40,40H729.56l200-200V84.09A40,40,0,0,0,889.56,44.09Z"/><rect class="cls-3" x="464.29" y="217.78" width="271.43" height="271.43" rx="20"/><line class="cls-4" x1="392.37" y1="619.22" x2="829.56" y2="619.22"/><line class="cls-4" x1="392.37" y1="742.01" x2="829.56" y2="742.01"/><line class="cls-4" x1="392.37" y1="864.8" x2="829.56" y2="864.8"/><line class="cls-4" x1="392.37" y1="864.8" x2="829.56" y2="864.8"/><line class="cls-4" x1="392.37" y1="987.59" x2="617.08" y2="987.59"/></svg>