<svg xmlns="http://www.w3.org/2000/svg" xmlns:xlink="http://www.w3.org/1999/xlink" width="100" height="100" viewBox="0 0 100 100"><g><g transform="translate(50 50) scale(0.69 0.69) rotate(0) translate(-50 -50)" style="fill:#000000"><svg fill="#000000" xmlns="http://www.w3.org/2000/svg" xmlns:xlink="http://www.w3.org/1999/xlink" version="1.1" x="0px" y="0px" viewBox="0 0 65 65" enable-background="new 0 0 65 65" xml:space="preserve"><g><path d="M61.5,2.7h-58c-2.1,0-3.8,1.7-3.8,3.8l0,52.2c0,2.1,1.7,3.8,3.7,3.8h58c2.1,0,3.8-1.7,3.8-3.8l0-52.2   C65.3,4.3,63.6,2.7,61.5,2.7z M3.5,4.2h58c1.2,0,2.3,1,2.3,2.3l0,4.2H1.3l0-4.2C1.3,5.2,2.3,4.2,3.5,4.2z M61.5,60.8h-58   c-1.2,0-2.3-1-2.3-2.3l0-46.4h62.5l0,46.4C63.7,59.8,62.7,60.8,61.5,60.8z"></path><rect x="54.9" y="6.7" width="1.5" height="1.5"></rect><rect x="51.1" y="6.7" width="1.5" height="1.5"></rect><rect x="58.7" y="6.7" width="1.5" height="1.5"></rect><path d="M5.7,8.2H46c0.4,0,0.8-0.3,0.8-0.8c0-0.4-0.3-0.8-0.8-0.8H5.7C5.3,6.7,4.9,7,4.9,7.4C4.9,7.9,5.3,8.2,5.7,8.2z"></path><path d="M50.4,40.7h-4.8v-3.9c0-0.4-0.3-0.8-0.8-0.8H31.4l-3.7-3.3c-0.1-0.1-0.3-0.2-0.5-0.2H14.6c-0.4,0-0.8,0.3-0.8,0.8v23.8   c0,0,0,0,0,0.1c0,0,0,0.1,0,0.1c0,0.1,0,0.1,0.1,0.2c0,0,0,0,0,0.1c0,0,0,0,0,0c0,0.1,0.1,0.1,0.2,0.2c0,0,0,0,0.1,0.1   c0.1,0,0.2,0.1,0.3,0.1H45c0.3,0,0.6-0.2,0.7-0.5l5.4-15.6c0.1-0.2,0-0.5-0.1-0.7C50.9,40.9,50.6,40.7,50.4,40.7z M26.9,34.1   l3.7,3.3c0.1,0.1,0.3,0.2,0.5,0.2h13v3.2H20c-0.3,0-0.6,0.2-0.7,0.5l-3.9,11.4V34.1H26.9z M44.5,56.4H15.7l4.9-14.1h28.8L44.5,56.4   z"></path><polygon points="40.3,29.9 39.2,28.9 37.7,30.4 37.7,25.9 36.2,25.9 36.2,30.4 34.8,28.9 33.7,30 37,33.2  "></polygon><rect x="36.2" y="20.1" width="1.5" height="1.5"></rect><rect x="36.2" y="23.1" width="1.5" height="1.5"></rect><polygon points="48.1,25.2 47,24.1 45.5,25.6 45.5,21.2 44,21.2 44,25.6 42.6,24.1 41.5,25.2 44.8,28.5  "></polygon><rect x="44" y="15.4" width="1.5" height="1.5"></rect><rect x="44" y="18.4" width="1.5" height="1.5"></rect></g></svg></g></g></svg>