<svg xmlns="http://www.w3.org/2000/svg" xmlns:xlink="http://www.w3.org/1999/xlink" width="100" height="100" viewBox="0 0 100 100"><g><g transform="translate(50 50) scale(0.69 0.69) rotate(0) translate(-50 -50)" style="fill:#000000"><svg fill="#000000" xmlns="http://www.w3.org/2000/svg" data-name="Layer 1" viewBox="0 0 100 100" x="0px" y="0px"><title>Artboard 16</title><path d="M53.9,98.06a6.16,6.16,0,0,0,6,.31L83.95,86.58a6.78,6.78,0,0,0,3.77-6V19.47a6.78,6.78,0,0,0-3.77-6L59.89,1.64A6.19,6.19,0,0,0,51,7.19v7.13H33.17A6.14,6.14,0,0,0,27,20.46v4.43a2.5,2.5,0,1,0,5,0V20.46a1.14,1.14,0,0,1,1.13-1.13H51V80.67H33.17A1.14,1.14,0,0,1,32,79.54V75.11a2.5,2.5,0,1,0-5,0v4.43a6.14,6.14,0,0,0,6.13,6.13H51v7.13A6.15,6.15,0,0,0,53.9,98.06ZM56,7.19a1.16,1.16,0,0,1,.56-1A1.2,1.2,0,0,1,57.17,6a1.18,1.18,0,0,1,.52.13L81.75,17.91a1.75,1.75,0,0,1,1,1.56V80.53a1.75,1.75,0,0,1-1,1.56h0L57.69,93.87A1.19,1.19,0,0,1,56,92.81Z"></path><path d="M64,55.35a2.5,2.5,0,0,0,2.5-2.5v-5.7a2.5,2.5,0,0,0-5,0v5.7A2.5,2.5,0,0,0,64,55.35Z"></path><path d="M17.86,41.17v4.15a6.42,6.42,0,0,0-5.58,6.36v9.49a6.42,6.42,0,0,0,6.42,6.42H35.87a6.42,6.42,0,0,0,6.42-6.42V51.68a6.42,6.42,0,0,0-5.58-6.36V41.17a8.77,8.77,0,0,0-8.76-8.76H26.62A8.77,8.77,0,0,0,17.86,41.17ZM37.29,51.68v9.49a1.42,1.42,0,0,1-1.42,1.42H18.69a1.42,1.42,0,0,1-1.42-1.42V51.68a1.42,1.42,0,0,1,1.42-1.42H35.87A1.42,1.42,0,0,1,37.29,51.68ZM31.71,41.17v4.09H22.86V41.17a3.77,3.77,0,0,1,3.76-3.76h1.33A3.77,3.77,0,0,1,31.71,41.17Z"></path></svg></g></g></svg>