<svg xmlns="http://www.w3.org/2000/svg" xmlns:xlink="http://www.w3.org/1999/xlink" width="100" height="100" viewBox="0 0 100 100"><g><g transform="translate(50 50) scale(0.69 0.69) rotate(0) translate(-50 -50)" style="fill:#000000"><svg fill="#000000" xmlns="http://www.w3.org/2000/svg" xmlns:xlink="http://www.w3.org/1999/xlink" version="1.1" x="0px" y="0px" viewBox="0 0 100 100" style="enable-background:new 0 0 100 100;" xml:space="preserve"><g><path d="M57.136,16.578c-0.638-4.183-1.275-8.365-1.913-12.549c7.807,3.689,13.432-6.928,21.238-3.238   c-1.778,1.102-3.398,3.234-4.946,5.844c2.186,1.573,4.443,3.624,6.858,6.707C70.567,9.651,64.941,20.269,57.136,16.578z    M61.493,67.445c-0.894,0.137-1.729-0.478-1.865-1.371l-2.661-17.456c-3.551,0.167-9.433,0.444-9.463,0.444   c0,0-1.302,0.103-2.267-1.116l-4.893-6.346c0.155,0.858,0.161,2.009-0.004,2.776c-0.292,1.361-1.898,2.457-1.898,2.457   s-0.082,3.958,1.363,6.847l-6.018,1.549l-1.393-1.983l-1.388,1.983l-6.017-1.549c1.445-2.889,1.363-6.847,1.363-6.847   s-1.606-1.096-1.898-2.457c-0.194-0.903,0.036-2.338,0.212-3.201c-0.452-0.769-9.591-9.521-9.591-9.521   c-0.982-1-6.196-11.719-6.196-11.719c-0.722-1.404-0.167-3.129,1.238-3.85c1.405-0.723,3.129-0.168,3.851,1.237l5.404,10.523   l3.825,3.646c0.665-0.127,1.731-0.013,3.472,0.398l-2.51,6.021l4.372-2.109l3.863,3.604l3.868-3.604l4.365,2.125l-2.503-6.037   c2.473,0.617,4.039,2.24,5.748,4.462c1.925,2.322,4.99,6.925,4.99,6.925l7.238-0.344l-5.671-37.2   c-0.136-0.894,0.478-1.729,1.371-1.864c0.895-0.137,1.729,0.477,1.865,1.371l5.723,37.539c1.561-0.048,2.871,1.164,2.941,2.727   c0.063,1.356-0.832,2.533-2.086,2.883l2.621,17.191C63.001,66.475,62.387,67.309,61.493,67.445z M33.574,48.385   c0-0.65-0.527-1.177-1.177-1.177c-0.65,0-1.177,0.526-1.177,1.177s0.527,1.177,1.177,1.177   C33.047,49.562,33.574,49.035,33.574,48.385z M33.574,43.844c0-0.65-0.527-1.178-1.177-1.178c-0.65,0-1.177,0.527-1.177,1.178   c0,0.649,0.527,1.176,1.177,1.176C33.047,45.02,33.574,44.493,33.574,43.844z M100,86.55V99.98L0,100   c6.729-5.35,17.44-11.844,26.462-16.998c-0.668-0.573-1.093-1.422-1.093-2.37l-0.003-10.849h-2.113c0,0-0.279-10.25,1.981-15.595   l5.935,1.554l1.225-1.817l1.23,1.817l5.936-1.554c2.26,5.345,1.981,15.595,1.981,15.595h-2.113l-0.002,6.051   c2.109-1.129,3.366-1.783,3.366-1.783c7.215-3.406,13.46-5.512,17.869-5.512C71.992,68.539,92.25,80.409,100,86.55z M31.65,80.08   c0.51-0.284,1.008-0.561,1.495-0.829v-9.468H31.65V80.08z M29.327,30.342c-2.127-1.101-3.593-3.308-3.631-5.855   c-0.423,0.092-0.76,0.146-0.76,0.146c-0.32,4.323-3.034,4.838-3.034,4.838S25.635,31.891,29.327,30.342z M38.807,22.415   c0,0,0.295,1.062,0.295,1.972c0,2.59-1.478,4.84-3.634,5.956c3.692,1.548,7.425-0.872,7.425-0.872s-3.8-0.686-2.629-5.91   c0.705-3.141,0.117-5.085-0.592-6.199c-1.01-1.623-2.414-1.955-3.16-1.933c-0.13,1.167-0.453,2.304-0.741,2.843   C36.886,20.854,38.807,22.415,38.807,22.415z M35.313,18.118c0.148-0.407,0.542-1.554,0.702-2.673   c-0.775-1.721-11.671-3.771-11.671,8.107c0,0.228-0.004,0.445-0.013,0.656C28.327,23.783,32.708,21.969,35.313,18.118z"></path></g></svg></g></g></svg>